SplineFontDB: 3.2
FontName: NeoSpleen
FullName: NeoSpleen
FamilyName: NeoSpleen
Weight: Book
Copyright: "Copyright (c) 2025, Matthew Wilding"
Version: "1.0.0"
ItalicAngle: 0
UnderlinePosition: -100
UnderlineWidth: 40
Ascent: 832
Descent: 192
InvalidEm: 0
sfntRevision: 0x00010000
LayerCount: 2
Layer: 0 1 "Back" 1
Layer: 1 1 "Fore" 0
XUID: [1021 692 -191584965 3826193]
StyleMap: 0x0000
FSType: 0
OS2Version: 4
OS2_WeightWidthSlopeOnly: 0
OS2_UseTypoMetrics: 1
CreationTime: 1703523052
ModificationTime: 315532800
PfmFamily: 17
TTFWeight: 400
TTFWidth: 5
LineGap: 0
VLineGap: 0
Panose: 2 0 0 9 0 0 0 0 0 0
OS2TypoAscent: 1020
OS2TypoAOffset: 0
OS2TypoDescent: -300
OS2TypoDOffset: 0
OS2TypoLinegap: 0
OS2WinAscent: 1020
OS2WinAOffset: 0
OS2WinDescent: 300
OS2WinDOffset: 0
HheadAscent: 1020
HheadAOffset: 0
HheadDescent: -300
HheadDOffset: 0
OS2SubXSize: 650
OS2SubYSize: 600
OS2SubXOff: 0
OS2SubYOff: 75
OS2SupXSize: 650
OS2SupYSize: 600
OS2SupXOff: 0
OS2SupYOff: 350
OS2StrikeYSize: 50
OS2StrikeYPos: 320
OS2Vendor: 'MATT'
OS2CodePages: 40000093.cdd40000
OS2UnicodeRanges: 800000af.100078e3.00040000.00000000
MarkAttachClasses: 1
DEI: 91125
ShortTable: maxp 16
  1
  0
  890
  256
  32
  71
  5
  2
  0
  1
  1
  0
  64
  0
  3
  2
EndShort
LangName: 1033 "" "" "Regular" "FontForge 2.0 : NeoSpleen : 12-5-2025" "" "Version +ACIA-1.0.0+ACIA"
GaspTable: 1 65535 2 0
Encoding: UnicodeBmp
UnicodeInterp: none
NameList: AGL For New Fonts
DisplaySize: -48
AntiAlias: 1
FitToEm: 0
WinInfo: 40 40 5
BeginChars: 65539 890

StartChar: .notdef
Encoding: 65536 -1 0
Width: 598
VWidth: 1196
GlyphClass: 1
Flags: HW
HStem: 0 60<119 479> 588 60<119 479>
VStem: 60 60<60 588> 479 60<60 588>
LayerCount: 2
Fore
SplineSet
119 60 m 1,0,-1
 479 60 l 1,1,-1
 479 588 l 1,2,-1
 119 588 l 1,3,-1
 119 60 l 1,0,-1
60 0 m 1,4,-1
 60 647 l 1,5,-1
 538 647 l 1,6,-1
 538 0 l 1,7,-1
 60 0 l 1,4,-1
EndSplineSet
EndChar

StartChar: EXCLAMATION
Encoding: 33 33 4
Width: 598
VWidth: 1196
GlyphClass: 1
Flags: HW
HStem: 0 119<252 346> 724 23G<252 346>
VStem: 252 93<0 119 238 748>
LayerCount: 2
Fore
SplineSet
252 238 m 1,0,-1
 252 748 l 1,1,-1
 346 748 l 1,2,-1
 346 238 l 1,3,-1
 252 238 l 1,0,-1
252 0 m 1,4,-1
 252 119 l 1,5,-1
 346 119 l 1,6,-1
 346 0 l 1,7,-1
 252 0 l 1,4,-1
EndSplineSet
EndChar

StartChar: NUMBER
Encoding: 35 35 6
Width: 598
VWidth: 1196
GlyphClass: 1
Flags: HW
HStem: 0 25G<135 210 388 463> 173 75<37 135 210 388 463 561> 500 75<37 135 210 388 463 561> 724 23G<135 210 388 463>
VStem: 135 75<0 173 248 500 575 748> 388 75<0 173 248 500 575 748>
LayerCount: 2
Fore
SplineSet
388 248 m 1,0,-1
 388 500 l 1,1,-1
 210 500 l 1,2,-1
 210 248 l 1,3,-1
 388 248 l 1,0,-1
388 0 m 1,4,-1
 388 173 l 1,5,-1
 210 173 l 1,6,-1
 210 0 l 1,7,-1
 135 0 l 1,8,-1
 135 173 l 1,9,-1
 37 173 l 1,10,-1
 37 248 l 1,11,-1
 135 248 l 1,12,-1
 135 500 l 1,13,-1
 37 500 l 1,14,-1
 37 575 l 1,15,-1
 135 575 l 1,16,-1
 135 748 l 1,17,-1
 210 748 l 1,18,-1
 210 575 l 1,19,-1
 388 575 l 1,20,-1
 388 748 l 1,21,-1
 463 748 l 1,22,-1
 463 575 l 1,23,-1
 561 575 l 1,24,-1
 561 500 l 1,25,-1
 463 500 l 1,26,-1
 463 248 l 1,27,-1
 561 248 l 1,28,-1
 561 173 l 1,29,-1
 463 173 l 1,30,-1
 463 0 l 1,31,-1
 388 0 l 1,4,-1
EndSplineSet
EndChar

StartChar: DOLLAR
Encoding: 36 36 7
Width: 598
VWidth: 1196
GlyphClass: 1
Flags: HW
HStem: 0 25G<259 334> 62 63<72 259 334 420> 349 62<177 259 334 432> 623 63<166 259 334 521> 724 23G<259 334>
VStem: 56 77<455 589> 259 75<0 62 125 349 411 623 686 748> 463 79<171 320>
LayerCount: 2
Fore
SplineSet
259 411 m 1,0,-1
 259 623 l 1,1,2
 245 625 245 625 239 625 c 0,3,4
 193 625 193 625 163 594 c 128,-1,5
 133 563 133 563 133 523.5 c 128,-1,6
 133 484 133 484 165.5 447.5 c 128,-1,7
 198 411 198 411 259 411 c 1,0,-1
334 125 m 1,8,9
 340 124 340 124 352 124 c 0,10,11
 401 124 401 124 432 163.5 c 128,-1,12
 463 203 463 203 463 255 c 0,13,14
 463 350 463 350 334 349 c 1,15,-1
 334 125 l 1,8,9
259 0 m 1,16,-1
 259 62 l 1,17,-1
 72 62 l 1,18,-1
 72 125 l 1,19,-1
 259 125 l 1,20,-1
 259 349 l 1,21,22
 161 349 161 349 108.5 403.5 c 128,-1,23
 56 458 56 458 56 523 c 0,24,25
 56 587 56 587 106.5 636.5 c 128,-1,26
 157 686 157 686 237 686 c 2,27,-1
 259 686 l 1,28,-1
 259 748 l 1,29,-1
 334 748 l 1,30,-1
 334 686 l 1,31,-1
 521 686 l 1,32,-1
 521 623 l 1,33,-1
 334 623 l 1,34,-1
 334 411 l 1,35,36
 439 411 439 411 490.5 369.5 c 128,-1,37
 542 328 542 328 542 256 c 0,38,39
 542 180 542 180 491 121 c 128,-1,40
 440 62 440 62 359 62 c 2,41,-1
 334 62 l 1,42,-1
 334 0 l 1,43,-1
 259 0 l 1,16,-1
EndSplineSet
EndChar

StartChar: AMPERSAND
Encoding: 38 38 9
Width: 598
VWidth: 1196
GlyphClass: 1
Flags: HW
HStem: 0 72<142 288> 659 77<195 329>
VStem: 48 60<108 314> 104 69<503 636> 360 72<547 626>
LayerCount: 2
Fore
SplineSet
215 72 m 0,0,1
 272 72 272 72 312 123 c 2,2,-1
 363 188 l 1,3,-1
 239 347 l 1,4,-1
 209 347 l 2,5,6
 161 347 161 347 135 318 c 0,7,8
 107 288 107 288 107 238 c 2,9,-1
 107 181 l 2,10,11
 107 130 107 130 138 102 c 0,12,13
 166 72 166 72 215 72 c 0,0,1
237 0 m 2,14,15
 141 0 141 0 99 43 c 0,16,17
 48 94 48 94 48 181 c 2,18,-1
 48 238 l 2,19,20
 48 324 48 324 90 368 c 0,21,22
 113 395 113 395 131.5 405 c 128,-1,23
 150 415 150 415 186 417 c 1,24,-1
 158 452 l 2,25,26
 104 521 104 521 104 577 c 0,27,28
 104 663 104 663 141 698 c 0,29,30
 167 721 167 721 185 728.5 c 128,-1,31
 203 736 203 736 239 736 c 0,32,33
 303 736 303 736 343 711 c 0,34,35
 383 690 383 690 409 646 c 0,36,37
 432 602 432 602 432 547 c 1,38,-1
 360 547 l 1,39,40
 360 597 360 597 334 627 c 0,41,42
 308 659 308 659 256 659 c 0,43,44
 219 659 219 659 196 635 c 0,45,46
 173 613 173 613 173 576 c 0,47,48
 173 537 173 537 201 500 c 2,49,-1
 402 234 l 1,50,-1
 501 347 l 1,51,-1
 590 347 l 1,52,-1
 446 185 l 1,53,-1
 586 0 l 1,54,-1
 508 0 l 1,55,-1
 405 141 l 1,56,-1
 361 79 l 2,57,58
 357 75 357 75 345.5 60.5 c 128,-1,59
 334 46 334 46 329 40 c 128,-1,60
 324 34 324 34 314 25 c 128,-1,61
 304 16 304 16 294 12 c 0,62,63
 268 0 268 0 249 0 c 2,64,-1
 237 0 l 2,14,15
EndSplineSet
EndChar

StartChar: APOSTROPHE
Encoding: 39 39 10
Width: 598
VWidth: 1196
GlyphClass: 1
Flags: HW
HStem: 495 280<245 353>
VStem: 245 107<495 776>
LayerCount: 2
Fore
SplineSet
353 495 m 1,0,-1
 245 495 l 1,1,-1
 245 776 l 1,2,-1
 353 776 l 1,3,-1
 353 495 l 1,0,-1
EndSplineSet
EndChar

StartChar: LEFT
Encoding: 40 40 11
Width: 598
VWidth: 1196
GlyphClass: 1
Flags: HW
HStem: -150 75<294 449> 822 75<294 449>
VStem: 150 75<28 719>
LayerCount: 2
Fore
SplineSet
224 91 m 2,0,1
 224 73 224 73 265 -1 c 128,-1,2
 306 -75 306 -75 320 -75 c 2,3,-1
 449 -75 l 1,4,-1
 449 -150 l 1,5,-1
 301 -150 l 2,6,7
 265 -150 265 -150 207.5 -60 c 128,-1,8
 150 30 150 30 150 72 c 2,9,-1
 150 675 l 2,10,11
 150 717 150 717 207.5 807 c 128,-1,12
 265 897 265 897 301 897 c 2,13,-1
 449 897 l 1,14,-1
 449 822 l 1,15,-1
 320 822 l 2,16,17
 306 822 306 822 265 748 c 128,-1,18
 224 674 224 674 224 656 c 2,19,-1
 224 91 l 2,0,1
EndSplineSet
EndChar

StartChar: RIGHT
Encoding: 41 41 12
Width: 598
VWidth: 1196
GlyphClass: 1
Flags: HW
HStem: -150 75<150 304> 822 75<150 304>
VStem: 374 75<28 719>
LayerCount: 2
Fore
SplineSet
374 91 m 2,0,-1
 374 656 l 2,1,2
 374 674 374 674 333 748 c 128,-1,3
 292 822 292 822 278 822 c 2,4,-1
 150 822 l 1,5,-1
 150 897 l 1,6,-1
 297 897 l 2,7,8
 333 897 333 897 391 807 c 128,-1,9
 449 717 449 717 449 675 c 2,10,-1
 449 72 l 2,11,12
 449 30 449 30 391 -60 c 128,-1,13
 333 -150 333 -150 297 -150 c 2,14,-1
 150 -150 l 1,15,-1
 150 -75 l 1,16,-1
 278 -75 l 2,17,18
 292 -75 292 -75 333 -1 c 128,-1,19
 374 73 374 73 374 91 c 2,0,-1
EndSplineSet
EndChar

StartChar: ASTERISK
Encoding: 42 42 13
Width: 598
VWidth: 1196
GlyphClass: 1
Flags: HW
VStem: 255 89<420 610>
LayerCount: 2
Fore
SplineSet
197 139 m 1,0,-1
 112 194 l 1,1,-1
 231 345 l 1,2,-1
 49 396 l 1,3,-1
 82 485 l 1,4,-1
 255 420 l 1,5,-1
 246 610 l 1,6,-1
 352 610 l 1,7,-1
 343 420 l 1,8,-1
 516 485 l 1,9,-1
 549 396 l 1,10,-1
 367 345 l 1,11,-1
 486 194 l 1,12,-1
 401 139 l 1,13,-1
 299 292 l 1,14,-1
 197 139 l 1,0,-1
EndSplineSet
EndChar

StartChar: PLUS
Encoding: 43 43 14
Width: 598
VWidth: 1196
GlyphClass: 1
Flags: HW
HStem: 336 75<75 262 336 523>
VStem: 262 75<150 336 411 598>
LayerCount: 2
Fore
SplineSet
262 150 m 1,0,-1
 262 336 l 1,1,-1
 75 336 l 1,2,-1
 75 411 l 1,3,-1
 262 411 l 1,4,-1
 262 598 l 1,5,-1
 336 598 l 1,6,-1
 336 411 l 1,7,-1
 523 411 l 1,8,-1
 523 336 l 1,9,-1
 336 336 l 1,10,-1
 336 150 l 1,11,-1
 262 150 l 1,0,-1
EndSplineSet
EndChar

StartChar: COMMA
Encoding: 44 44 15
Width: 598
VWidth: 1196
GlyphClass: 1
Flags: HW
HStem: -109 222
VStem: 188 222
LayerCount: 2
Fore
SplineSet
410 36 m 1,0,-1
 265 -109 l 1,1,-1
 188 -32 l 1,2,-1
 333 113 l 1,3,-1
 410 36 l 1,0,-1
EndSplineSet
EndChar

StartChar: HYPHEN-MINUS
Encoding: 45 45 16
Width: 598
VWidth: 1196
GlyphClass: 1
Flags: HW
HStem: 336 75<75 523>
LayerCount: 2
Fore
SplineSet
75 336 m 1,0,-1
 75 411 l 1,1,-1
 523 411 l 1,2,-1
 523 336 l 1,3,-1
 75 336 l 1,0,-1
EndSplineSet
EndChar

StartChar: FULL
Encoding: 46 46 17
Width: 598
VWidth: 1196
GlyphClass: 1
Flags: HW
HStem: 0 150<243 355>
VStem: 224 150<19 131>
LayerCount: 2
Fore
SplineSet
224 74.5 m 128,-1,1
 224 105 224 105 246.5 127.5 c 128,-1,2
 269 150 269 150 299 150 c 128,-1,3
 329 150 329 150 351.5 127.5 c 128,-1,4
 374 105 374 105 374 74.5 c 128,-1,5
 374 44 374 44 351.5 22 c 128,-1,6
 329 0 329 0 299 0 c 128,-1,7
 269 0 269 0 246.5 22 c 128,-1,0
 224 44 224 44 224 74.5 c 128,-1,1
EndSplineSet
EndChar

StartChar: SOLIDUS
Encoding: 47 47 18
Width: 598
VWidth: 1196
GlyphClass: 1
Flags: HW
LayerCount: 2
Fore
SplineSet
577 693 m 1,0,-1
 75 2 l 1,1,-1
 21 55 l 1,2,-1
 523 745 l 1,3,-1
 577 693 l 1,0,-1
EndSplineSet
EndChar

StartChar: DIGIT
Encoding: 48 48 19
Width: 598
VWidth: 1196
GlyphClass: 1
Flags: HW
HStem: 0 75<160 438> 673 75<160 438>
VStem: 75 75<86 187 299 662> 449 75<86 467 579 662>
LayerCount: 2
Fore
SplineSet
449 635 m 2,0,1
 449 651 449 651 438 662 c 128,-1,2
 427 673 427 673 411 673 c 2,3,-1
 187 673 l 2,4,5
 171 673 171 673 160.5 662.5 c 128,-1,6
 150 652 150 652 150 635 c 2,7,-1
 150 299 l 1,8,-1
 449 579 l 1,9,-1
 449 635 l 2,0,1
411 75 m 2,10,11
 427 75 427 75 438 85.5 c 128,-1,12
 449 96 449 96 449 112 c 2,13,-1
 449 467 l 1,14,-1
 150 187 l 1,15,-1
 150 112 l 2,16,17
 150 96 150 96 160.5 85.5 c 128,-1,18
 171 75 171 75 187 75 c 2,19,-1
 411 75 l 2,10,11
75 654 m 2,20,21
 75 693 75 693 102.5 720.5 c 128,-1,22
 130 748 130 748 168 748 c 2,23,-1
 430 748 l 2,24,25
 469 748 469 748 496 720.5 c 128,-1,26
 523 693 523 693 523 654 c 2,27,-1
 523 93 l 2,28,29
 523 54 523 54 495.5 27 c 128,-1,30
 468 0 468 0 430 0 c 2,31,-1
 168 0 l 2,32,33
 129 0 129 0 102 27.5 c 128,-1,34
 75 55 75 55 75 93 c 2,35,-1
 75 654 l 2,20,21
EndSplineSet
EndChar

StartChar: DIGIT
Encoding: 49 49 20
Width: 598
VWidth: 1196
GlyphClass: 1
Flags: HW
HStem: 0 75<124 273 348 498> 724 23G<231 348>
VStem: 273 75<75 673>
LayerCount: 2
Fore
SplineSet
107 600 m 1,0,-1
 255 748 l 1,1,-1
 348 748 l 1,2,-1
 348 75 l 1,3,-1
 498 75 l 1,4,-1
 498 0 l 1,5,-1
 124 0 l 1,6,-1
 124 75 l 1,7,-1
 273 75 l 1,8,-1
 273 673 l 1,9,-1
 145 541 l 1,10,-1
 107 600 l 1,0,-1
EndSplineSet
EndChar

StartChar: DIGIT
Encoding: 50 50 21
Width: 598
VWidth: 1196
GlyphClass: 1
Flags: HW
HStem: 0 75<150 438> 673 75<160 438>
VStem: 75 75<75 131 635 662> 449 75<86 112 505 662>
LayerCount: 2
Fore
SplineSet
75 596 m 1,0,-1
 75 654 l 2,1,2
 75 693 75 693 102.5 720.5 c 128,-1,3
 130 748 130 748 168 748 c 2,4,-1
 430 748 l 2,5,6
 469 748 469 748 496 720.5 c 128,-1,7
 523 693 523 693 523 654 c 2,8,-1
 523 505 l 2,9,10
 523 486 523 486 505 467 c 2,11,-1
 150 131 l 1,12,-1
 150 75 l 1,13,-1
 411 75 l 2,14,15
 427 75 427 75 438 85.5 c 128,-1,16
 449 96 449 96 449 112 c 1,17,-1
 523 152 l 1,18,-1
 523 93 l 2,19,20
 523 54 523 54 495.5 27 c 128,-1,21
 468 0 468 0 430 0 c 2,22,-1
 75 0 l 1,23,-1
 75 150 l 1,24,-1
 449 505 l 1,25,-1
 449 635 l 2,26,27
 449 651 449 651 438 662 c 128,-1,28
 427 673 427 673 411 673 c 2,29,-1
 187 673 l 2,30,31
 171 673 171 673 160.5 662.5 c 128,-1,32
 150 652 150 652 150 635 c 1,33,-1
 75 596 l 1,0,-1
EndSplineSet
EndChar

StartChar: DIGIT
Encoding: 51 51 22
Width: 598
VWidth: 1196
GlyphClass: 1
Flags: HW
HStem: 0 75<75 438> 336 75<187 438> 673 75<75 438>
VStem: 449 75<86 326 422 662>
CounterMasks: 1 e0
LayerCount: 2
Fore
SplineSet
75 75 m 1,0,-1
 411 75 l 2,1,2
 427 75 427 75 438 85.5 c 128,-1,3
 449 96 449 96 449 112 c 2,4,-1
 449 299 l 2,5,6
 449 315 449 315 438 325.5 c 128,-1,7
 427 336 427 336 411 336 c 2,8,-1
 187 336 l 1,9,-1
 187 411 l 1,10,-1
 411 411 l 2,11,12
 427 411 427 411 438 421.5 c 128,-1,13
 449 432 449 432 449 449 c 2,14,-1
 449 635 l 2,15,16
 449 651 449 651 438 662 c 128,-1,17
 427 673 427 673 411 673 c 2,18,-1
 75 673 l 1,19,-1
 75 748 l 1,20,-1
 430 748 l 2,21,22
 469 748 469 748 496 720.5 c 128,-1,23
 523 693 523 693 523 654 c 2,24,-1
 523 93 l 2,25,26
 523 54 523 54 495.5 27 c 128,-1,27
 468 0 468 0 430 0 c 2,28,-1
 75 0 l 1,29,-1
 75 75 l 1,0,-1
EndSplineSet
EndChar

StartChar: DIGIT
Encoding: 52 52 23
Width: 598
VWidth: 1196
GlyphClass: 1
Flags: HW
HStem: 0 25G<374 449> 336 75<160 363 459 523> 724 23G<75 150 374 449>
VStem: 75 75<422 748> 374 75<0 326 422 748>
LayerCount: 2
Fore
SplineSet
449 449 m 2,0,1
 449 433 449 433 459.5 422 c 128,-1,2
 470 411 470 411 486 411 c 2,3,-1
 523 411 l 1,4,-1
 523 336 l 1,5,-1
 486 336 l 2,6,7
 470 336 470 336 459.5 325.5 c 128,-1,8
 449 315 449 315 449 299 c 2,9,-1
 449 0 l 1,10,-1
 374 0 l 1,11,-1
 374 299 l 2,12,13
 374 315 374 315 363.5 325.5 c 128,-1,14
 353 336 353 336 336 336 c 2,15,-1
 168 336 l 2,16,17
 129 336 129 336 102 363.5 c 128,-1,18
 75 391 75 391 75 430 c 2,19,-1
 75 748 l 1,20,-1
 150 748 l 1,21,-1
 150 449 l 2,22,23
 150 433 150 433 160.5 422 c 128,-1,24
 171 411 171 411 187 411 c 2,25,-1
 336 411 l 2,26,27
 352 411 352 411 363 421.5 c 128,-1,28
 374 432 374 432 374 449 c 2,29,-1
 374 748 l 1,30,-1
 449 748 l 1,31,-1
 449 449 l 2,0,1
EndSplineSet
EndChar

StartChar: DIGIT
Encoding: 53 53 24
Width: 598
VWidth: 1196
GlyphClass: 1
Flags: HW
HStem: 0 75<160 438> 336 75<160 438> 673 75<160 523>
VStem: 75 75<86 112 422 662> 449 75<86 326>
CounterMasks: 1 e0
LayerCount: 2
Fore
SplineSet
150 112 m 1,0,1
 150 96 150 96 160.5 85.5 c 128,-1,2
 171 75 171 75 187 75 c 2,3,-1
 411 75 l 2,4,5
 427 75 427 75 438 85.5 c 128,-1,6
 449 96 449 96 449 112 c 2,7,-1
 449 299 l 2,8,9
 449 315 449 315 438 325.5 c 128,-1,10
 427 336 427 336 411 336 c 2,11,-1
 168 336 l 2,12,13
 129 336 129 336 102 363.5 c 128,-1,14
 75 391 75 391 75 430 c 2,15,-1
 75 654 l 2,16,17
 75 693 75 693 102.5 720.5 c 128,-1,18
 130 748 130 748 168 748 c 2,19,-1
 523 748 l 1,20,-1
 523 673 l 1,21,-1
 187 673 l 2,22,23
 171 673 171 673 160.5 662.5 c 128,-1,24
 150 652 150 652 150 635 c 2,25,-1
 150 449 l 2,26,27
 150 433 150 433 160.5 422 c 128,-1,28
 171 411 171 411 187 411 c 2,29,-1
 430 411 l 2,30,31
 469 411 469 411 496 383.5 c 128,-1,32
 523 356 523 356 523 318 c 2,33,-1
 523 93 l 2,34,35
 523 54 523 54 495.5 27 c 128,-1,36
 468 0 468 0 430 0 c 2,37,-1
 168 0 l 2,38,39
 129 0 129 0 102 27.5 c 128,-1,40
 75 55 75 55 75 93 c 2,41,-1
 75 152 l 1,42,-1
 150 112 l 1,0,1
EndSplineSet
EndChar

StartChar: DIGIT
Encoding: 54 54 25
Width: 598
VWidth: 1196
GlyphClass: 1
Flags: HW
HStem: 0 75<160 438> 336 75<160 438> 673 75<160 523>
VStem: 75 75<86 326 422 662> 449 75<86 326>
CounterMasks: 1 e0
LayerCount: 2
Fore
SplineSet
150 112 m 2,0,1
 150 96 150 96 160.5 85.5 c 128,-1,2
 171 75 171 75 187 75 c 2,3,-1
 411 75 l 2,4,5
 427 75 427 75 438 85.5 c 128,-1,6
 449 96 449 96 449 112 c 2,7,-1
 449 299 l 2,8,9
 449 315 449 315 438 325.5 c 128,-1,10
 427 336 427 336 411 336 c 2,11,-1
 187 336 l 2,12,13
 171 336 171 336 160.5 325.5 c 128,-1,14
 150 315 150 315 150 299 c 2,15,-1
 150 112 l 2,0,1
150 449 m 2,16,17
 150 433 150 433 160.5 422 c 128,-1,18
 171 411 171 411 187 411 c 2,19,-1
 430 411 l 2,20,21
 469 411 469 411 496 383.5 c 128,-1,22
 523 356 523 356 523 318 c 2,23,-1
 523 93 l 2,24,25
 523 54 523 54 495.5 27 c 128,-1,26
 468 0 468 0 430 0 c 2,27,-1
 168 0 l 2,28,29
 129 0 129 0 102 27.5 c 128,-1,30
 75 55 75 55 75 93 c 2,31,-1
 75 654 l 2,32,33
 75 693 75 693 102.5 720.5 c 128,-1,34
 130 748 130 748 168 748 c 2,35,-1
 523 748 l 1,36,-1
 523 673 l 1,37,-1
 187 673 l 2,38,39
 171 673 171 673 160.5 662.5 c 128,-1,40
 150 652 150 652 150 635 c 2,41,-1
 150 449 l 2,16,17
EndSplineSet
EndChar

StartChar: DIGIT
Encoding: 55 55 26
Width: 598
VWidth: 1196
GlyphClass: 1
Flags: HW
HStem: 1 25G<262 336> 673 75<75 438>
VStem: 262 75<1 299> 449 75<523 661>
LayerCount: 2
Fore
SplineSet
75 673 m 1,0,-1
 75 748 l 1,1,-1
 430 748 l 2,2,3
 470 748 470 748 496.5 720.5 c 128,-1,4
 523 693 523 693 523 654 c 2,5,-1
 523 523 l 1,6,-1
 336 299 l 1,7,-1
 336 1 l 1,8,-1
 262 1 l 1,9,-1
 262 299 l 1,10,-1
 449 523 l 1,11,-1
 449 635 l 2,12,13
 449 650 449 650 438 661.5 c 128,-1,14
 427 673 427 673 411 673 c 2,15,-1
 75 673 l 1,0,-1
EndSplineSet
EndChar

StartChar: DIGIT
Encoding: 56 56 27
Width: 598
VWidth: 1196
GlyphClass: 1
Flags: HW
HStem: 0 75<152 446> 336 75<151 447> 673 75<152 446>
VStem: 75 75<77 335 413 670> 449 75<77 335 413 670>
CounterMasks: 1 e0
LayerCount: 2
Fore
SplineSet
150 449 m 2,0,1
 150 434 150 434 161 422.5 c 128,-1,2
 172 411 172 411 187 411 c 2,3,-1
 411 411 l 2,4,5
 426 411 426 411 437.5 422 c 128,-1,6
 449 433 449 433 449 449 c 2,7,-1
 449 635 l 2,8,9
 449 650 449 650 437.5 661.5 c 128,-1,10
 426 673 426 673 411 673 c 2,11,-1
 187 673 l 2,12,13
 172 673 172 673 161 662 c 128,-1,14
 150 651 150 651 150 635 c 2,15,-1
 150 449 l 2,0,1
449 299 m 2,16,17
 449 314 449 314 437.5 325 c 128,-1,18
 426 336 426 336 411 336 c 2,19,-1
 187 336 l 2,20,21
 172 336 172 336 161 325 c 128,-1,22
 150 314 150 314 150 299 c 2,23,-1
 150 112 l 2,24,25
 150 97 150 97 161 86 c 128,-1,26
 172 75 172 75 187 75 c 2,27,-1
 411 75 l 2,28,29
 426 75 426 75 437.5 86 c 128,-1,30
 449 97 449 97 449 112 c 2,31,-1
 449 299 l 2,16,17
75 654 m 2,32,33
 75 693 75 693 102.5 720.5 c 128,-1,34
 130 748 130 748 168 748 c 2,35,-1
 430 748 l 2,36,37
 469 748 469 748 496 720.5 c 128,-1,38
 523 693 523 693 523 654 c 2,39,-1
 523 93 l 2,40,41
 523 54 523 54 495.5 27 c 128,-1,42
 468 0 468 0 430 0 c 2,43,-1
 168 0 l 2,44,45
 129 0 129 0 102 27.5 c 128,-1,46
 75 55 75 55 75 93 c 2,47,-1
 75 654 l 2,32,33
EndSplineSet
EndChar

StartChar: DIGIT
Encoding: 57 57 28
Width: 598
VWidth: 1196
GlyphClass: 1
Flags: HW
HStem: 0 75<75 438> 336 75<160 438> 673 75<160 438>
VStem: 75 75<422 662> 449 75<86 326 422 662>
CounterMasks: 1 e0
LayerCount: 2
Fore
SplineSet
449 112 m 2,0,-1
 449 299 l 2,1,2
 449 315 449 315 438 325.5 c 128,-1,3
 427 336 427 336 411 336 c 2,4,-1
 168 336 l 2,5,6
 129 336 129 336 102 363.5 c 128,-1,7
 75 391 75 391 75 430 c 2,8,-1
 75 654 l 2,9,10
 75 693 75 693 102.5 720.5 c 128,-1,11
 130 748 130 748 168 748 c 2,12,-1
 430 748 l 2,13,14
 469 748 469 748 496 720.5 c 128,-1,15
 523 693 523 693 523 654 c 2,16,-1
 523 93 l 2,17,18
 523 54 523 54 495.5 27 c 128,-1,19
 468 0 468 0 430 0 c 2,20,-1
 75 0 l 1,21,-1
 75 75 l 1,22,-1
 411 75 l 2,23,24
 427 75 427 75 438 85.5 c 128,-1,25
 449 96 449 96 449 112 c 2,0,-1
449 449 m 2,26,-1
 449 635 l 2,27,28
 449 651 449 651 438 662 c 128,-1,29
 427 673 427 673 411 673 c 2,30,-1
 187 673 l 2,31,32
 171 673 171 673 160.5 662.5 c 128,-1,33
 150 652 150 652 150 635 c 2,34,-1
 150 449 l 2,35,36
 150 433 150 433 160.5 422 c 128,-1,37
 171 411 171 411 187 411 c 2,38,-1
 411 411 l 2,39,40
 427 411 427 411 438 422 c 128,-1,41
 449 433 449 433 449 449 c 2,26,-1
EndSplineSet
EndChar

StartChar: LESS-THAN
Encoding: 60 60 31
Width: 598
VWidth: 1196
GlyphClass: 1
Flags: HW
HStem: 0 25G<388 523> 724 23G<388 523>
VStem: 75 112<336 411>
LayerCount: 2
Fore
SplineSet
187 336 m 1,0,-1
 523 0 l 1,1,-1
 411 0 l 1,2,-1
 75 336 l 1,3,-1
 75 411 l 1,4,-1
 411 748 l 1,5,-1
 523 748 l 1,6,-1
 187 411 l 1,7,-1
 187 336 l 1,0,-1
EndSplineSet
EndChar

StartChar: EQUALS
Encoding: 61 61 32
Width: 598
VWidth: 1196
GlyphClass: 1
Flags: HW
HStem: 224 75<75 523> 449 75<75 523>
LayerCount: 2
Fore
SplineSet
75 449 m 1,0,-1
 75 523 l 1,1,-1
 523 523 l 1,2,-1
 523 449 l 1,3,-1
 75 449 l 1,0,-1
75 224 m 1,4,-1
 75 299 l 1,5,-1
 523 299 l 1,6,-1
 523 224 l 1,7,-1
 75 224 l 1,4,-1
EndSplineSet
EndChar

StartChar: GREATER-THAN
Encoding: 62 62 33
Width: 598
VWidth: 1196
GlyphClass: 1
Flags: HW
HStem: 0 25G<75 210> 724 23G<75 210>
VStem: 411 112<336 411>
LayerCount: 2
Fore
SplineSet
411 336 m 1,0,-1
 411 411 l 1,1,-1
 75 748 l 1,2,-1
 187 748 l 1,3,-1
 523 411 l 1,4,-1
 523 336 l 1,5,-1
 187 0 l 1,6,-1
 75 0 l 1,7,-1
 411 336 l 1,0,-1
EndSplineSet
EndChar

StartChar: QUESTION
Encoding: 63 63 34
Width: 598
VWidth: 1196
GlyphClass: 1
Flags: HW
HStem: 0 119<262 336> 673 75<160 438>
VStem: 75 75<598 662> 262 75<0 119 238 343> 449 75<523 662>
CounterMasks: 1 38
LayerCount: 2
Fore
SplineSet
262 385 m 1,0,-1
 449 523 l 1,1,-1
 449 635 l 2,2,3
 449 651 449 651 438 662 c 128,-1,4
 427 673 427 673 411 673 c 2,5,-1
 187 673 l 2,6,7
 171 673 171 673 160.5 662.5 c 128,-1,8
 150 652 150 652 150 635 c 2,9,-1
 150 598 l 1,10,-1
 75 598 l 1,11,-1
 75 654 l 2,12,13
 75 693 75 693 102.5 720.5 c 128,-1,14
 130 748 130 748 168 748 c 2,15,-1
 430 748 l 2,16,17
 469 748 469 748 496 720.5 c 128,-1,18
 523 693 523 693 523 654 c 2,19,-1
 523 485 l 1,20,-1
 336 343 l 1,21,-1
 336 238 l 1,22,-1
 262 238 l 1,23,-1
 262 385 l 1,0,-1
336 0 m 1,24,-1
 262 0 l 1,25,-1
 262 119 l 1,26,-1
 336 119 l 1,27,-1
 336 0 l 1,24,-1
EndSplineSet
EndChar

StartChar: COMMERCIAL
Encoding: 64 64 35
Width: 598
VWidth: 1196
GlyphClass: 1
Flags: HW
HStem: 0 75<160 486> 187 75<341 449> 673 75<160 438>
VStem: 75 75<86 662> 262 79<262 561> 449 75<262 662>
LayerCount: 2
Fore
SplineSet
168 0 m 2,0,1
 129 0 129 0 102 27.5 c 128,-1,2
 75 55 75 55 75 93 c 2,3,-1
 75 654 l 2,4,5
 75 693 75 693 102.5 720.5 c 128,-1,6
 130 748 130 748 168 748 c 2,7,-1
 430 748 l 2,8,9
 469 748 469 748 496 720.5 c 128,-1,10
 523 693 523 693 523 654 c 2,11,-1
 523 187 l 1,12,-1
 262 187 l 1,13,-1
 262 561 l 1,14,-1
 341 561 l 1,15,-1
 341 262 l 1,16,-1
 449 262 l 1,17,-1
 449 635 l 2,18,19
 449 651 449 651 438 662 c 128,-1,20
 427 673 427 673 411 673 c 2,21,-1
 187 673 l 2,22,23
 171 673 171 673 160.5 662.5 c 128,-1,24
 150 652 150 652 150 635 c 2,25,-1
 150 112 l 2,26,27
 150 96 150 96 160.5 85.5 c 128,-1,28
 171 75 171 75 187 75 c 2,29,-1
 486 75 l 1,30,-1
 486 0 l 1,31,-1
 168 0 l 2,0,1
EndSplineSet
EndChar

StartChar: LATIN
Encoding: 65 65 36
Width: 598
VWidth: 1196
GlyphClass: 1
Flags: HW
HStem: 0 25G<75 150 449 523> 336 75<151 447> 673 75<152 446>
VStem: 75 75<0 335 413 670> 449 75<0 335 413 670>
LayerCount: 2
Fore
SplineSet
187 336 m 2,0,1
 172 336 172 336 161 325 c 128,-1,2
 150 314 150 314 150 299 c 2,3,4
 150 299 150 299 150 0 c 1,5,-1
 75 0 l 1,6,-1
 75 654 l 2,7,8
 75 693 75 693 102.5 720.5 c 128,-1,9
 130 748 130 748 168 748 c 2,10,11
 430 748 430 748 430 748 c 2,12,13
 469 748 469 748 496 720.5 c 128,-1,14
 523 693 523 693 523 654 c 2,15,16
 523 654 523 654 523 0 c 1,17,-1
 449 0 l 1,18,-1
 449 299 l 2,19,20
 449 314 449 314 437.5 325 c 128,-1,21
 426 336 426 336 411 336 c 2,22,-1
 187 336 l 2,0,1
187 673 m 2,23,24
 172 673 172 673 161 662 c 128,-1,25
 150 651 150 651 150 635 c 2,26,-1
 150 449 l 2,27,28
 150 434 150 434 161 422.5 c 128,-1,29
 172 411 172 411 187 411 c 2,30,-1
 411 411 l 2,31,32
 426 411 426 411 437.5 422 c 128,-1,33
 449 433 449 433 449 449 c 2,34,-1
 449 635 l 2,35,36
 449 650 449 650 437.5 661.5 c 128,-1,37
 426 673 426 673 411 673 c 2,38,-1
 187 673 l 2,23,24
EndSplineSet
EndChar

StartChar: LATIN
Encoding: 66 66 37
Width: 598
VWidth: 1196
GlyphClass: 1
Flags: HW
HStem: 0 75<151 446> 374 75<151 447> 673 75<151 446>
VStem: 75 75<76 372 450 671> 449 75<77 372 450 670>
LayerCount: 2
Fore
SplineSet
411 75 m 2,0,1
 426 75 426 75 437.5 86 c 128,-1,2
 449 97 449 97 449 112 c 2,3,-1
 449 336 l 2,4,5
 449 351 449 351 437.5 362.5 c 128,-1,6
 426 374 426 374 411 374 c 2,7,-1
 187 374 l 2,8,9
 172 374 172 374 161 363 c 128,-1,10
 150 352 150 352 150 336 c 2,11,-1
 150 112 l 2,12,13
 150 97 150 97 161 86 c 128,-1,14
 172 75 172 75 187 75 c 2,15,-1
 411 75 l 2,0,1
523 93 m 2,16,17
 523 54 523 54 495.5 27 c 128,-1,18
 468 0 468 0 430 0 c 2,19,-1
 75 0 l 1,20,-1
 75 748 l 1,21,-1
 430 748 l 2,22,23
 469 748 469 748 496 720.5 c 128,-1,24
 523 693 523 693 523 654 c 2,25,-1
 523 486 l 2,26,27
 523 463 523 463 507 446.5 c 128,-1,28
 491 430 491 430 467 430 c 2,29,-1
 449 430 l 1,30,-1
 449 392 l 1,31,-1
 467 392 l 2,32,33
 490 392 490 392 506.5 376 c 128,-1,34
 523 360 523 360 523 336 c 2,35,-1
 523 93 l 2,16,17
150 486 m 2,36,37
 150 471 150 471 161 460 c 128,-1,38
 172 449 172 449 187 449 c 2,39,-1
 411 449 l 2,40,41
 426 449 426 449 437.5 460 c 128,-1,42
 449 471 449 471 449 486 c 2,43,-1
 449 635 l 2,44,45
 449 650 449 650 437.5 661.5 c 128,-1,46
 426 673 426 673 411 673 c 2,47,-1
 187 673 l 2,48,49
 172 673 172 673 161 662 c 128,-1,50
 150 651 150 651 150 635 c 2,51,-1
 150 486 l 2,36,37
EndSplineSet
EndChar

StartChar: LATIN
Encoding: 67 67 38
Width: 598
VWidth: 1196
GlyphClass: 1
Flags: HW
HStem: 0 75<152 523> 673 75<152 523>
VStem: 75 75<77 670>
LayerCount: 2
Fore
SplineSet
75 654 m 2,0,1
 75 693 75 693 102.5 720.5 c 128,-1,2
 130 748 130 748 168 748 c 2,3,-1
 523 748 l 1,4,-1
 523 673 l 1,5,-1
 187 673 l 2,6,7
 172 673 172 673 161 662 c 128,-1,8
 150 651 150 651 150 635 c 2,9,-1
 150 112 l 2,10,11
 150 97 150 97 161 86 c 128,-1,12
 172 75 172 75 187 75 c 2,13,-1
 523 75 l 1,14,-1
 523 0 l 1,15,-1
 168 0 l 2,16,17
 129 0 129 0 102 27.5 c 128,-1,18
 75 55 75 55 75 93 c 2,19,-1
 75 654 l 2,0,1
EndSplineSet
EndChar

StartChar: LATIN
Encoding: 68 68 39
Width: 598
VWidth: 1196
GlyphClass: 1
Flags: HW
HStem: 0 75<150 446> 673 75<150 446>
VStem: 75 75<75 673> 449 75<77 670>
LayerCount: 2
Fore
SplineSet
411 75 m 2,0,1
 426 75 426 75 437.5 86 c 128,-1,2
 449 97 449 97 449 112 c 2,3,-1
 449 635 l 2,4,5
 449 650 449 650 437.5 661.5 c 128,-1,6
 426 673 426 673 411 673 c 2,7,-1
 150 673 l 1,8,-1
 150 75 l 1,9,-1
 411 75 l 2,0,1
523 93 m 2,10,11
 523 54 523 54 495.5 27 c 128,-1,12
 468 0 468 0 430 0 c 2,13,-1
 75 0 l 1,14,-1
 75 748 l 1,15,-1
 430 748 l 2,16,17
 469 748 469 748 496 720.5 c 128,-1,18
 523 693 523 693 523 654 c 2,19,-1
 523 93 l 2,10,11
EndSplineSet
EndChar

StartChar: LATIN
Encoding: 69 69 40
Width: 598
VWidth: 1196
GlyphClass: 1
Flags: HW
HStem: 0 75<152 523> 336 75<151 411> 673 75<152 523>
VStem: 75 75<77 335 413 670>
CounterMasks: 1 e0
LayerCount: 2
Fore
SplineSet
150 449 m 2,0,1
 150 434 150 434 161 422.5 c 128,-1,2
 172 411 172 411 187 411 c 2,3,-1
 411 411 l 1,4,-1
 411 336 l 1,5,-1
 187 336 l 2,6,7
 172 336 172 336 161 325 c 128,-1,8
 150 314 150 314 150 299 c 2,9,-1
 150 112 l 2,10,11
 150 97 150 97 161 86 c 128,-1,12
 172 75 172 75 187 75 c 2,13,-1
 523 75 l 1,14,-1
 523 0 l 1,15,-1
 168 0 l 2,16,17
 129 0 129 0 102 27.5 c 128,-1,18
 75 55 75 55 75 93 c 2,19,-1
 75 654 l 2,20,21
 75 693 75 693 102.5 720.5 c 128,-1,22
 130 748 130 748 168 748 c 2,23,-1
 523 748 l 1,24,-1
 523 673 l 1,25,-1
 187 673 l 2,26,27
 172 673 172 673 161 662 c 128,-1,28
 150 651 150 651 150 635 c 2,29,-1
 150 449 l 2,0,1
EndSplineSet
EndChar

StartChar: LATIN
Encoding: 70 70 41
Width: 598
VWidth: 1196
GlyphClass: 1
Flags: HW
HStem: 0 25G<75 150> 336 75<151 411> 673 75<152 523>
VStem: 75 75<0 335 413 670>
LayerCount: 2
Fore
SplineSet
150 0 m 1,0,-1
 75 0 l 1,1,-1
 75 654 l 2,2,3
 75 693 75 693 102.5 720.5 c 128,-1,4
 130 748 130 748 168 748 c 2,5,-1
 523 748 l 1,6,-1
 523 673 l 1,7,-1
 187 673 l 2,8,9
 172 673 172 673 161 662 c 128,-1,10
 150 651 150 651 150 635 c 2,11,-1
 150 449 l 2,12,13
 150 434 150 434 161 422.5 c 128,-1,14
 172 411 172 411 187 411 c 2,15,-1
 411 411 l 1,16,-1
 411 336 l 1,17,-1
 187 336 l 2,18,19
 172 336 172 336 161 325 c 128,-1,20
 150 314 150 314 150 299 c 2,21,-1
 150 0 l 1,0,-1
EndSplineSet
EndChar

StartChar: LATIN
Encoding: 71 71 42
Width: 598
VWidth: 1196
GlyphClass: 1
Flags: HW
HStem: 0 75<152 446> 336 75<299 446> 673 75<152 523>
VStem: 75 75<77 670> 449 75<77 334>
CounterMasks: 1 e0
LayerCount: 2
Fore
SplineSet
523 93 m 2,0,1
 523 54 523 54 495.5 27 c 128,-1,2
 468 0 468 0 430 0 c 2,3,-1
 168 0 l 2,4,5
 129 0 129 0 102 27.5 c 128,-1,6
 75 55 75 55 75 93 c 2,7,-1
 75 654 l 2,8,9
 75 693 75 693 102.5 720.5 c 128,-1,10
 130 748 130 748 168 748 c 2,11,-1
 523 748 l 1,12,-1
 523 673 l 1,13,-1
 187 673 l 2,14,15
 172 673 172 673 161 662 c 128,-1,16
 150 651 150 651 150 635 c 2,17,-1
 150 112 l 2,18,19
 150 97 150 97 161 86 c 128,-1,20
 172 75 172 75 187 75 c 2,21,-1
 411 75 l 2,22,23
 426 75 426 75 437.5 86 c 128,-1,24
 449 97 449 97 449 112 c 2,25,-1
 449 299 l 2,26,27
 449 314 449 314 437.5 325 c 128,-1,28
 426 336 426 336 411 336 c 2,29,-1
 299 336 l 1,30,-1
 299 411 l 1,31,-1
 430 411 l 2,32,33
 469 411 469 411 496 383.5 c 128,-1,34
 523 356 523 356 523 318 c 2,35,-1
 523 93 l 2,0,1
EndSplineSet
EndChar

StartChar: LATIN
Encoding: 72 72 43
Width: 598
VWidth: 1196
GlyphClass: 1
Flags: HW
HStem: 0 25G<75 150 449 523> 336 75<150 449> 724 23G<75 150 449 523>
VStem: 75 75<0 336 411 748> 449 75<0 336 411 748>
LayerCount: 2
Fore
SplineSet
449 0 m 1,0,-1
 449 336 l 1,1,-1
 150 336 l 1,2,-1
 150 0 l 1,3,-1
 75 0 l 1,4,-1
 75 748 l 1,5,-1
 150 748 l 1,6,-1
 150 411 l 1,7,-1
 449 411 l 1,8,-1
 449 748 l 1,9,-1
 523 748 l 1,10,-1
 523 0 l 1,11,-1
 449 0 l 1,0,-1
EndSplineSet
EndChar

StartChar: LATIN
Encoding: 73 73 44
Width: 598
VWidth: 1196
GlyphClass: 1
Flags: HW
HStem: 0 75<112 260 338 486> 673 75<112 260 338 486>
VStem: 262 75<76 671>
LayerCount: 2
Fore
SplineSet
262 635 m 2,0,1
 262 650 262 650 250.5 661.5 c 128,-1,2
 239 673 239 673 224 673 c 2,3,-1
 112 673 l 1,4,-1
 112 748 l 1,5,-1
 486 748 l 1,6,-1
 486 673 l 1,7,-1
 374 673 l 2,8,9
 359 673 359 673 347.5 662 c 128,-1,10
 336 651 336 651 336 635 c 2,11,-1
 336 112 l 2,12,13
 336 97 336 97 347.5 86 c 128,-1,14
 359 75 359 75 374 75 c 2,15,-1
 486 75 l 1,16,-1
 486 0 l 1,17,-1
 112 0 l 1,18,-1
 112 75 l 1,19,-1
 224 75 l 2,20,21
 239 75 239 75 250.5 86 c 128,-1,22
 262 97 262 97 262 112 c 2,23,-1
 262 635 l 2,0,1
EndSplineSet
EndChar

StartChar: LATIN
Encoding: 74 74 45
Width: 598
VWidth: 1196
GlyphClass: 1
Flags: HW
HStem: 0 75<86 260> 673 75<112 260 338 486>
VStem: 0 75<86 152> 262 74<77 671>
LayerCount: 2
Fore
SplineSet
335 93 m 2,0,1
 335 54 335 54 308 27 c 128,-1,2
 281 0 281 0 242 0 c 2,3,-1
 93 0 l 2,4,5
 54 0 54 0 27 27.5 c 128,-1,6
 0 55 0 55 0 93 c 2,7,-1
 0 152 l 1,8,-1
 75 152 l 1,9,-1
 75 112 l 2,10,11
 75 96 75 96 85.5 85.5 c 128,-1,12
 96 75 96 75 112 75 c 2,13,-1
 224 75 l 2,14,15
 239 75 239 75 250.5 86 c 128,-1,16
 262 97 262 97 262 112 c 2,17,-1
 262 635 l 2,18,19
 262 650 262 650 250.5 661.5 c 128,-1,20
 239 673 239 673 224 673 c 2,21,-1
 112 673 l 1,22,-1
 112 748 l 1,23,-1
 486 748 l 1,24,-1
 486 673 l 1,25,-1
 374 673 l 2,26,27
 359 673 359 673 347.5 662 c 128,-1,28
 336 651 336 651 336 635 c 2,29,-1
 335 93 l 2,0,1
EndSplineSet
EndChar

StartChar: LATIN
Encoding: 75 75 46
Width: 598
VWidth: 1196
GlyphClass: 1
Flags: HW
HStem: 0 25G<75 150 432 548> 724 23G<75 150 420 523>
VStem: 75 75<0 336 411 748>
LayerCount: 2
Fore
SplineSet
150 411 m 1,0,-1
 440 748 l 1,1,-1
 523 748 l 1,2,-1
 209 377 l 1,3,-1
 548 0 l 1,4,-1
 453 0 l 1,5,-1
 150 336 l 1,6,-1
 150 0 l 1,7,-1
 75 0 l 1,8,-1
 75 748 l 1,9,-1
 150 748 l 1,10,-1
 150 411 l 1,0,-1
EndSplineSet
EndChar

StartChar: LATIN
Encoding: 76 76 47
Width: 598
VWidth: 1196
GlyphClass: 1
Flags: HW
HStem: 0 75<152 523> 724 23G<75 150>
VStem: 75 75<77 748>
LayerCount: 2
Fore
SplineSet
168 0 m 2,0,1
 129 0 129 0 102 27.5 c 128,-1,2
 75 55 75 55 75 93 c 2,3,-1
 75 748 l 1,4,-1
 150 748 l 1,5,-1
 150 112 l 2,6,7
 150 97 150 97 161 86 c 128,-1,8
 172 75 172 75 187 75 c 2,9,-1
 523 75 l 1,10,-1
 523 0 l 1,11,-1
 168 0 l 2,0,1
EndSplineSet
EndChar

StartChar: LATIN
Encoding: 77 77 48
Width: 598
VWidth: 1196
GlyphClass: 1
Flags: HW
HStem: 0 25G<75 150 449 523> 673 75<160 251 347 438>
VStem: 75 75<0 662> 262 75<336 662> 449 75<0 662>
CounterMasks: 1 38
LayerCount: 2
Fore
SplineSet
449 0 m 1,0,-1
 449 635 l 2,1,2
 449 651 449 651 438 662 c 128,-1,3
 427 673 427 673 411 673 c 2,4,-1
 374 673 l 2,5,6
 358 673 358 673 347 662.5 c 128,-1,7
 336 652 336 652 336 635 c 2,8,-1
 336 336 l 1,9,-1
 262 336 l 1,10,-1
 262 635 l 2,11,12
 262 651 262 651 251.5 662 c 128,-1,13
 241 673 241 673 224 673 c 2,14,-1
 187 673 l 2,15,16
 171 673 171 673 160.5 662.5 c 128,-1,17
 150 652 150 652 150 635 c 2,18,-1
 150 0 l 1,19,-1
 75 0 l 1,20,-1
 75 654 l 2,21,22
 75 693 75 693 102.5 720.5 c 128,-1,23
 130 748 130 748 168 748 c 2,24,-1
 430 748 l 2,25,26
 469 748 469 748 496 720.5 c 128,-1,27
 523 693 523 693 523 654 c 2,28,-1
 523 0 l 1,29,-1
 449 0 l 1,0,-1
EndSplineSet
EndChar

StartChar: LATIN
Encoding: 78 78 49
Width: 598
VWidth: 1196
GlyphClass: 1
Flags: HW
HStem: 0 25G<75 150 437 523> 724 23G<75 167 449 523>
VStem: 75 75<0 593> 449 75<154 748>
LayerCount: 2
Fore
SplineSet
150 593 m 5,0,-1
 150 0 l 5,1,-1
 75 0 l 5,2,-1
 75 748 l 5,3,-1
 155 748 l 5,4,-1
 449 154 l 5,5,-1
 449 748 l 5,6,-1
 523 748 l 5,7,-1
 523 0 l 5,8,-1
 449 0 l 5,9,-1
 150 593 l 5,0,-1
EndSplineSet
EndChar

StartChar: LATIN
Encoding: 79 79 50
Width: 598
VWidth: 1196
GlyphClass: 1
Flags: HW
HStem: 0 75<152 446> 673 75<152 446>
VStem: 75 75<77 670> 449 75<77 670>
LayerCount: 2
Fore
SplineSet
150 112 m 2,0,1
 150 97 150 97 161 86 c 128,-1,2
 172 75 172 75 187 75 c 2,3,-1
 411 75 l 2,4,5
 426 75 426 75 437.5 86 c 128,-1,6
 449 97 449 97 449 112 c 2,7,-1
 449 635 l 2,8,9
 449 650 449 650 437.5 661.5 c 128,-1,10
 426 673 426 673 411 673 c 2,11,-1
 187 673 l 2,12,13
 172 673 172 673 161 662 c 128,-1,14
 150 651 150 651 150 635 c 2,15,-1
 150 112 l 2,0,1
75 654 m 2,16,17
 75 693 75 693 102.5 720.5 c 128,-1,18
 130 748 130 748 168 748 c 2,19,-1
 430 748 l 2,20,21
 469 748 469 748 496 720.5 c 128,-1,22
 523 693 523 693 523 654 c 2,23,-1
 523 93 l 2,24,25
 523 54 523 54 495.5 27 c 128,-1,26
 468 0 468 0 430 0 c 2,27,-1
 168 0 l 2,28,29
 129 0 129 0 102 27.5 c 128,-1,30
 75 55 75 55 75 93 c 2,31,-1
 75 654 l 2,16,17
EndSplineSet
EndChar

StartChar: LATIN
Encoding: 80 80 51
Width: 598
VWidth: 1196
GlyphClass: 1
Flags: HW
HStem: 0 25G<75 150> 336 75<151 446> 673 75<152 446>
VStem: 75 75<0 335 413 670> 449 75<413 670>
LayerCount: 2
Fore
SplineSet
187 673 m 2,0,1
 172 673 172 673 161 662 c 128,-1,2
 150 651 150 651 150 635 c 2,3,-1
 150 449 l 2,4,5
 150 434 150 434 161 422.5 c 128,-1,6
 172 411 172 411 187 411 c 2,7,-1
 411 411 l 2,8,9
 426 411 426 411 437.5 422 c 128,-1,10
 449 433 449 433 449 449 c 2,11,-1
 449 635 l 2,12,13
 449 650 449 650 437.5 661.5 c 128,-1,14
 426 673 426 673 411 673 c 2,15,-1
 187 673 l 2,0,1
150 0 m 1,16,-1
 75 0 l 1,17,-1
 75 654 l 2,18,19
 75 693 75 693 102.5 720.5 c 128,-1,20
 130 748 130 748 168 748 c 2,21,-1
 430 748 l 2,22,23
 469 748 469 748 496 720.5 c 128,-1,24
 523 693 523 693 523 654 c 2,25,-1
 523 430 l 2,26,27
 523 391 523 391 495.5 363.5 c 128,-1,28
 468 336 468 336 430 336 c 2,29,-1
 187 336 l 2,30,31
 172 336 172 336 161 325 c 128,-1,32
 150 314 150 314 150 299 c 2,33,-1
 150 0 l 1,16,-1
EndSplineSet
EndChar

StartChar: LATIN
Encoding: 81 81 52
Width: 598
VWidth: 1196
GlyphClass: 1
Flags: HW
HStem: 0 75<152 260 373 446> 673 75<152 446>
VStem: 75 75<77 670> 262 75<76 142> 297 75<-37 -2> 449 75<77 670>
LayerCount: 2
Fore
SplineSet
411 75 m 2,0,1
 426 75 426 75 437.5 86 c 128,-1,2
 449 97 449 97 449 112 c 2,3,-1
 449 635 l 2,4,5
 449 650 449 650 437.5 661.5 c 128,-1,6
 426 673 426 673 411 673 c 2,7,-1
 187 673 l 2,8,9
 172 673 172 673 161 662 c 128,-1,10
 150 651 150 651 150 635 c 2,11,-1
 150 112 l 2,12,13
 150 97 150 97 161 86 c 128,-1,14
 172 75 172 75 187 75 c 2,15,-1
 224 75 l 2,16,17
 239 75 239 75 250.5 86 c 128,-1,18
 262 97 262 97 262 112 c 2,19,-1
 227 236 l 1,20,-1
 301 236 l 1,21,-1
 336 112 l 2,22,23
 336 97 336 97 347.5 86 c 128,-1,24
 359 75 359 75 374 75 c 2,25,-1
 411 75 l 2,0,1
406 -103 m 1,26,-1
 332 -103 l 1,27,-1
 297 -37 l 1,28,29
 297 -22 297 -22 285.5 -11 c 128,-1,30
 274 0 274 0 259 0 c 2,31,-1
 168 0 l 2,32,33
 129 0 129 0 102 27.5 c 128,-1,34
 75 55 75 55 75 93 c 2,35,-1
 75 654 l 2,36,37
 75 693 75 693 102.5 720.5 c 128,-1,38
 130 748 130 748 168 748 c 2,39,-1
 430 748 l 2,40,41
 469 748 469 748 496 720.5 c 128,-1,42
 523 693 523 693 523 654 c 2,43,-1
 523 93 l 2,44,45
 523 54 523 54 495.5 27 c 128,-1,46
 468 0 468 0 430 0 c 2,47,-1
 409 0 l 2,48,49
 394 0 394 0 382.5 -11 c 128,-1,50
 371 -22 371 -22 371 -37 c 1,51,-1
 406 -103 l 1,26,-1
EndSplineSet
EndChar

StartChar: LATIN
Encoding: 82 82 53
Width: 598
VWidth: 1196
GlyphClass: 1
Flags: HW
HStem: 0 25G<75 150 435 523> 336 75<151 250 325 446> 673 75<152 446>
VStem: 75 75<0 335 413 670> 449 75<413 670>
LayerCount: 2
Fore
SplineSet
325 336 m 1,0,-1
 523 0 l 1,1,-1
 449 0 l 1,2,-1
 250 336 l 1,3,-1
 187 336 l 2,4,5
 172 336 172 336 161 325 c 128,-1,6
 150 314 150 314 150 299 c 2,7,8
 150 299 150 299 150 0 c 1,9,-1
 75 0 l 1,10,-1
 75 654 l 2,11,12
 75 693 75 693 102.5 720.5 c 128,-1,13
 130 748 130 748 168 748 c 2,14,15
 430 748 430 748 430 748 c 2,16,17
 469 748 469 748 496 720.5 c 128,-1,18
 523 693 523 693 523 654 c 2,19,20
 523 430 523 430 523 430 c 2,21,22
 523 391 523 391 495.5 363.5 c 128,-1,23
 468 336 468 336 430 336 c 2,24,25
 430 336 430 336 325 336 c 1,0,-1
187 673 m 2,26,27
 172 673 172 673 161 662 c 128,-1,28
 150 651 150 651 150 635 c 2,29,-1
 150 449 l 2,30,31
 150 434 150 434 161 422.5 c 128,-1,32
 172 411 172 411 187 411 c 2,33,-1
 411 411 l 2,34,35
 426 411 426 411 437.5 422 c 128,-1,36
 449 433 449 433 449 449 c 2,37,-1
 449 635 l 2,38,39
 449 650 449 650 437.5 661.5 c 128,-1,40
 426 673 426 673 411 673 c 2,41,-1
 187 673 l 2,26,27
EndSplineSet
EndChar

StartChar: LATIN
Encoding: 83 83 54
Width: 598
VWidth: 1196
GlyphClass: 1
Flags: HW
HStem: 0 75<75 446> 336 75<152 446> 673 75<152 523>
VStem: 75 75<413 670> 449 75<77 334>
CounterMasks: 1 e0
LayerCount: 2
Fore
SplineSet
523 93 m 2,0,1
 523 54 523 54 495.5 27 c 128,-1,2
 468 0 468 0 430 0 c 2,3,-1
 75 0 l 1,4,-1
 75 75 l 1,5,-1
 411 75 l 2,6,7
 426 75 426 75 437.5 86 c 128,-1,8
 449 97 449 97 449 112 c 2,9,-1
 449 299 l 2,10,11
 449 314 449 314 437.5 325 c 128,-1,12
 426 336 426 336 411 336 c 2,13,-1
 168 336 l 2,14,15
 129 336 129 336 102 363.5 c 128,-1,16
 75 391 75 391 75 430 c 2,17,-1
 75 654 l 2,18,19
 75 693 75 693 102.5 720.5 c 128,-1,20
 130 748 130 748 168 748 c 2,21,-1
 523 748 l 1,22,-1
 523 673 l 1,23,-1
 187 673 l 2,24,25
 172 673 172 673 161 662 c 128,-1,26
 150 651 150 651 150 635 c 2,27,-1
 150 449 l 2,28,29
 150 434 150 434 161 422.5 c 128,-1,30
 172 411 172 411 187 411 c 2,31,-1
 430 411 l 2,32,33
 469 411 469 411 496 383.5 c 128,-1,34
 523 356 523 356 523 318 c 2,35,-1
 523 93 l 2,0,1
EndSplineSet
EndChar

StartChar: LATIN
Encoding: 84 84 55
Width: 598
VWidth: 1196
GlyphClass: 1
Flags: HW
HStem: 0 25G<262 336> 673 75<37 262 336 561>
VStem: 262 75<0 673>
LayerCount: 2
Fore
SplineSet
262 0 m 1,0,-1
 262 673 l 1,1,-1
 37 673 l 1,2,-1
 37 748 l 1,3,-1
 561 748 l 1,4,-1
 561 673 l 1,5,-1
 336 673 l 1,6,-1
 336 0 l 1,7,-1
 262 0 l 1,0,-1
EndSplineSet
EndChar

StartChar: LATIN
Encoding: 85 85 56
Width: 598
VWidth: 1196
GlyphClass: 1
Flags: HW
HStem: 0 75<152 446> 724 23G<75 150 449 523>
VStem: 75 75<77 748> 449 75<77 748>
LayerCount: 2
Fore
SplineSet
449 748 m 1,0,-1
 523 748 l 1,1,-1
 523 93 l 2,2,3
 523 54 523 54 495.5 27 c 128,-1,4
 468 0 468 0 430 0 c 2,5,-1
 168 0 l 2,6,7
 129 0 129 0 102 27.5 c 128,-1,8
 75 55 75 55 75 93 c 2,9,-1
 75 748 l 1,10,-1
 150 748 l 1,11,-1
 150 112 l 2,12,13
 150 97 150 97 161 86 c 128,-1,14
 172 75 172 75 187 75 c 2,15,-1
 411 75 l 2,16,17
 426 75 426 75 437.5 86 c 128,-1,18
 449 97 449 97 449 112 c 2,19,-1
 449 748 l 1,0,-1
EndSplineSet
EndChar

StartChar: LATIN
Encoding: 86 86 57
Width: 598
VWidth: 1196
GlyphClass: 1
Flags: HW
HStem: 0 25G<238 360> 724 23G<75 150 449 523>
VStem: 75 75<206 748> 449 75<206 748>
LayerCount: 2
Fore
SplineSet
262 0 m 1,0,-1
 75 187 l 1,1,-1
 75 748 l 1,2,-1
 150 748 l 1,3,-1
 150 206 l 1,4,-1
 299 57 l 1,5,-1
 449 206 l 1,6,-1
 449 748 l 1,7,-1
 523 748 l 1,8,-1
 523 187 l 1,9,-1
 336 0 l 1,10,-1
 262 0 l 1,0,-1
EndSplineSet
EndChar

StartChar: LATIN
Encoding: 87 87 58
Width: 598
VWidth: 1196
GlyphClass: 1
Flags: HW
HStem: 0 75<152 260 338 446> 724 23G<75 150 449 523>
VStem: 75 75<77 748> 262 75<76 411> 449 75<77 748>
CounterMasks: 1 38
LayerCount: 2
Fore
SplineSet
449 748 m 1,0,-1
 523 748 l 1,1,-1
 523 93 l 2,2,3
 523 54 523 54 495.5 27 c 128,-1,4
 468 0 468 0 430 0 c 2,5,-1
 168 0 l 2,6,7
 129 0 129 0 102 27.5 c 128,-1,8
 75 55 75 55 75 93 c 2,9,-1
 75 748 l 1,10,-1
 150 748 l 1,11,-1
 150 112 l 2,12,13
 150 97 150 97 161 86 c 128,-1,14
 172 75 172 75 187 75 c 2,15,-1
 224 75 l 2,16,17
 239 75 239 75 250.5 86 c 128,-1,18
 262 97 262 97 262 112 c 2,19,-1
 262 411 l 1,20,-1
 336 411 l 1,21,-1
 336 112 l 2,22,23
 336 97 336 97 347.5 86 c 128,-1,24
 359 75 359 75 374 75 c 2,25,-1
 411 75 l 2,26,27
 426 75 426 75 437.5 86 c 128,-1,28
 449 97 449 97 449 112 c 2,29,-1
 449 748 l 1,0,-1
EndSplineSet
EndChar

StartChar: LATIN
Encoding: 88 88 59
Width: 598
VWidth: 1196
GlyphClass: 1
Flags: HW
HStem: 0 25G<75 161 437 523> 724 23G<75 161 437 523>
LayerCount: 2
Fore
SplineSet
449 748 m 1,0,-1
 523 748 l 1,1,-1
 336 374 l 1,2,-1
 523 0 l 1,3,-1
 449 0 l 1,4,-1
 299 299 l 1,5,-1
 150 0 l 1,6,-1
 75 0 l 1,7,-1
 262 374 l 1,8,-1
 75 748 l 1,9,-1
 150 748 l 1,10,-1
 299 449 l 1,11,-1
 449 748 l 1,0,-1
EndSplineSet
EndChar

StartChar: LATIN
Encoding: 89 89 60
Width: 598
VWidth: 1196
GlyphClass: 1
Flags: HW
HStem: 0 25G<262 336> 724 23G<75 150 449 523>
VStem: 75 75<542 748> 262 75<0 336> 449 75<542 748>
CounterMasks: 1 38
LayerCount: 2
Fore
SplineSet
299 394 m 1,0,-1
 449 542 l 1,1,-1
 449 748 l 1,2,-1
 523 748 l 1,3,-1
 523 523 l 1,4,-1
 336 336 l 1,5,-1
 336 0 l 1,6,-1
 262 0 l 1,7,-1
 262 336 l 1,8,-1
 75 523 l 1,9,-1
 75 748 l 1,10,-1
 150 748 l 1,11,-1
 150 542 l 1,12,-1
 299 394 l 1,0,-1
EndSplineSet
EndChar

StartChar: LATIN
Encoding: 90 90 61
Width: 598
VWidth: 1196
GlyphClass: 1
Flags: HW
HStem: 0 75<187 523> 673 75<75 449>
LayerCount: 2
Fore
SplineSet
523 635 m 1,0,-1
 187 75 l 1,1,-1
 523 75 l 1,2,-1
 523 0 l 1,3,-1
 75 0 l 1,4,-1
 75 75 l 1,5,-1
 449 673 l 1,6,-1
 75 673 l 1,7,-1
 75 748 l 1,8,-1
 523 748 l 1,9,-1
 523 635 l 1,0,-1
EndSplineSet
EndChar

StartChar: LEFT
Encoding: 91 91 62
Width: 598
VWidth: 1196
GlyphClass: 1
Flags: HW
HStem: -150 75<187 486> 822 75<187 486>
VStem: 112 75<-75 822>
LayerCount: 2
Fore
SplineSet
112 -150 m 1,0,-1
 112 897 l 1,1,-1
 486 897 l 1,2,-1
 486 822 l 1,3,-1
 187 822 l 1,4,-1
 187 -75 l 1,5,-1
 486 -75 l 1,6,-1
 486 -150 l 1,7,-1
 112 -150 l 1,0,-1
EndSplineSet
EndChar

StartChar: REVERSE
Encoding: 92 92 63
Width: 598
VWidth: 1196
GlyphClass: 1
Flags: HW
LayerCount: 2
Fore
SplineSet
21 693 m 1,0,-1
 75 745 l 1,1,-1
 577 55 l 1,2,-1
 523 2 l 1,3,-1
 21 693 l 1,0,-1
EndSplineSet
EndChar

StartChar: RIGHT
Encoding: 93 93 64
Width: 598
VWidth: 1196
GlyphClass: 1
Flags: HW
HStem: -150 75<112 411> 822 75<112 411>
VStem: 411 75<-75 822>
LayerCount: 2
Fore
SplineSet
486 -150 m 1,0,-1
 112 -150 l 1,1,-1
 112 -75 l 1,2,-1
 411 -75 l 1,3,-1
 411 822 l 1,4,-1
 112 822 l 1,5,-1
 112 897 l 1,6,-1
 486 897 l 1,7,-1
 486 -150 l 1,0,-1
EndSplineSet
EndChar

StartChar: LOW
Encoding: 95 95 66
Width: 598
VWidth: 1196
GlyphClass: 1
Flags: HW
HStem: -150 75<37 561>
LayerCount: 2
Fore
SplineSet
37 -150 m 1,0,-1
 37 -75 l 1,1,-1
 561 -75 l 1,2,-1
 561 -150 l 1,3,-1
 37 -150 l 1,0,-1
EndSplineSet
EndChar

StartChar: LATIN
Encoding: 97 97 68
Width: 598
VWidth: 1196
GlyphClass: 1
Flags: HW
HStem: 0 75<152 447> 262 75<152 447> 449 75<75 446>
VStem: 75 75<77 259> 449 75<76 260 338 446>
LayerCount: 2
Fore
SplineSet
449 411 m 2,0,1
 449 426 449 426 437.5 437.5 c 128,-1,2
 426 449 426 449 411 449 c 2,3,-1
 75 449 l 1,4,-1
 75 523 l 1,5,-1
 430 523 l 2,6,7
 469 523 469 523 496 495.5 c 128,-1,8
 523 468 523 468 523 430 c 2,9,-1
 523 75 l 2,10,11
 523 45 523 45 501 22.5 c 128,-1,12
 479 0 479 0 449 0 c 2,13,-1
 168 0 l 2,14,15
 129 0 129 0 102 27.5 c 128,-1,16
 75 55 75 55 75 93 c 2,17,-1
 75 243 l 2,18,19
 75 282 75 282 102.5 309 c 128,-1,20
 130 336 130 336 168 336 c 2,21,-1
 411 336 l 2,22,23
 426 336 426 336 437.5 347.5 c 128,-1,24
 449 359 449 359 449 374 c 2,25,-1
 449 411 l 2,0,1
449 224 m 2,26,27
 449 239 449 239 437.5 250.5 c 128,-1,28
 426 262 426 262 411 262 c 2,29,-1
 187 262 l 2,30,31
 172 262 172 262 161 250.5 c 128,-1,32
 150 239 150 239 150 224 c 2,33,-1
 150 112 l 2,34,35
 150 97 150 97 161 86 c 128,-1,36
 172 75 172 75 187 75 c 2,37,-1
 411 75 l 2,38,39
 426 75 426 75 437.5 86 c 128,-1,40
 449 97 449 97 449 112 c 2,41,-1
 449 224 l 2,26,27
EndSplineSet
EndChar

StartChar: LATIN
Encoding: 98 98 69
Width: 598
VWidth: 1196
GlyphClass: 1
Flags: HW
HStem: 0 75<152 446> 449 75<151 446> 724 23G<75 150>
VStem: 76 74<77 447 525 748> 449 75<77 446>
LayerCount: 2
Fore
SplineSet
430 523 m 2,0,1
 469 523 469 523 496 495.5 c 128,-1,2
 523 468 523 468 523 430 c 2,3,-1
 523 93 l 2,4,5
 523 54 523 54 495.5 27 c 128,-1,6
 468 0 468 0 430 0 c 2,7,-1
 169 0 l 2,8,9
 130 0 130 0 103 27.5 c 128,-1,10
 76 55 76 55 76 93 c 2,11,-1
 75 748 l 1,12,-1
 150 748 l 1,13,-1
 150 561 l 2,14,15
 150 546 150 546 161 534.5 c 128,-1,16
 172 523 172 523 187 523 c 2,17,-1
 430 523 l 2,0,1
150 112 m 2,18,19
 150 97 150 97 161 86 c 128,-1,20
 172 75 172 75 187 75 c 2,21,-1
 411 75 l 2,22,23
 426 75 426 75 437.5 86 c 128,-1,24
 449 97 449 97 449 112 c 2,25,-1
 449 411 l 2,26,27
 449 426 449 426 437.5 437.5 c 128,-1,28
 426 449 426 449 411 449 c 2,29,-1
 187 449 l 2,30,31
 172 449 172 449 161 437.5 c 128,-1,32
 150 426 150 426 150 411 c 2,33,-1
 150 112 l 2,18,19
EndSplineSet
EndChar

StartChar: LATIN
Encoding: 99 99 70
Width: 598
VWidth: 1196
GlyphClass: 1
Flags: HW
HStem: 0 75<152 523> 449 75<152 523>
VStem: 75 75<77 446>
LayerCount: 2
Fore
SplineSet
75 430 m 2,0,1
 75 469 75 469 102.5 496 c 128,-1,2
 130 523 130 523 168 523 c 2,3,-1
 523 523 l 1,4,-1
 523 449 l 1,5,-1
 187 449 l 2,6,7
 172 449 172 449 161 437.5 c 128,-1,8
 150 426 150 426 150 411 c 2,9,-1
 150 112 l 2,10,11
 150 97 150 97 161 86 c 128,-1,12
 172 75 172 75 187 75 c 2,13,-1
 523 75 l 1,14,-1
 523 0 l 1,15,-1
 168 0 l 2,16,17
 129 0 129 0 102 27.5 c 128,-1,18
 75 55 75 55 75 93 c 2,19,-1
 75 430 l 2,0,1
EndSplineSet
EndChar

StartChar: LATIN
Encoding: 100 100 71
Width: 598
VWidth: 1196
GlyphClass: 1
Flags: HW
HStem: 0 75<152 446> 449 75<152 447> 724 23G<449 523>
VStem: 75 75<77 446> 449 75<77 447 525 748>
LayerCount: 2
Fore
SplineSet
449 748 m 1,0,-1
 523 748 l 1,1,-1
 523 93 l 2,2,3
 523 54 523 54 495.5 27 c 128,-1,4
 468 0 468 0 430 0 c 2,5,-1
 168 0 l 2,6,7
 129 0 129 0 102 27.5 c 128,-1,8
 75 55 75 55 75 93 c 2,9,-1
 75 430 l 2,10,11
 75 469 75 469 102.5 496 c 128,-1,12
 130 523 130 523 168 523 c 2,13,-1
 411 523 l 2,14,15
 426 523 426 523 437.5 534 c 128,-1,16
 449 545 449 545 449 561 c 2,17,-1
 449 748 l 1,0,-1
449 411 m 2,18,19
 449 426 449 426 437.5 437.5 c 128,-1,20
 426 449 426 449 411 449 c 2,21,-1
 187 449 l 2,22,23
 172 449 172 449 161 437.5 c 128,-1,24
 150 426 150 426 150 411 c 2,25,-1
 150 112 l 2,26,27
 150 97 150 97 161 86 c 128,-1,28
 172 75 172 75 187 75 c 2,29,-1
 411 75 l 2,30,31
 426 75 426 75 437.5 86 c 128,-1,32
 449 97 449 97 449 112 c 2,33,-1
 449 411 l 2,18,19
EndSplineSet
EndChar

StartChar: LATIN
Encoding: 101 101 72
Width: 598
VWidth: 1196
GlyphClass: 1
Flags: HW
HStem: 0 75<152 523> 224 75<151 447> 449 75<152 447>
VStem: 75 75<77 223 301 446> 449 75<301 447>
CounterMasks: 1 e0
LayerCount: 2
Fore
SplineSet
411 299 m 2,0,1
 426 299 426 299 437.5 310 c 128,-1,2
 449 321 449 321 449 336 c 2,3,-1
 449 411 l 2,4,5
 449 426 449 426 437.5 437.5 c 128,-1,6
 426 449 426 449 411 449 c 2,7,-1
 187 449 l 2,8,9
 172 449 172 449 161 437.5 c 128,-1,10
 150 426 150 426 150 411 c 2,11,-1
 150 336 l 2,12,13
 150 321 150 321 161 310 c 128,-1,14
 172 299 172 299 187 299 c 2,15,-1
 411 299 l 2,0,1
187 224 m 2,16,17
 172 224 172 224 161 213 c 128,-1,18
 150 202 150 202 150 187 c 2,19,-1
 150 112 l 2,20,21
 150 97 150 97 161 86 c 128,-1,22
 172 75 172 75 187 75 c 2,23,-1
 523 75 l 1,24,-1
 523 0 l 1,25,-1
 168 0 l 2,26,27
 129 0 129 0 102 27.5 c 128,-1,28
 75 55 75 55 75 93 c 2,29,-1
 75 430 l 2,30,31
 75 469 75 469 102.5 496 c 128,-1,32
 130 523 130 523 168 523 c 2,33,-1
 449 523 l 2,34,35
 479 523 479 523 501 501 c 128,-1,36
 523 479 523 479 523 449 c 2,37,-1
 523 299 l 2,38,39
 523 269 523 269 501 246.5 c 128,-1,40
 479 224 479 224 449 224 c 2,41,-1
 187 224 l 2,16,17
EndSplineSet
EndChar

StartChar: LATIN
Encoding: 102 102 73
Width: 598
VWidth: 1196
GlyphClass: 1
Flags: HW
HStem: 0 25G<187 262> 449 75<75 176 263 411> 673 75<272 523>
VStem: 187 75<0 438 534 662>
LayerCount: 2
Fore
SplineSet
262 635 m 2,0,-1
 262 561 l 2,1,2
 262 546 262 546 273 534.5 c 128,-1,3
 284 523 284 523 299 523 c 2,4,-1
 411 523 l 1,5,-1
 411 449 l 1,6,-1
 299 449 l 2,7,8
 284 449 284 449 273 437.5 c 128,-1,9
 262 426 262 426 262 411 c 2,10,-1
 262 0 l 1,11,-1
 187 0 l 1,12,-1
 187 411 l 2,13,14
 187 427 187 427 176.5 438 c 128,-1,15
 166 449 166 449 150 449 c 2,16,-1
 75 449 l 1,17,-1
 75 523 l 1,18,-1
 150 523 l 2,19,20
 166 523 166 523 176.5 533.5 c 128,-1,21
 187 544 187 544 187 561 c 2,22,-1
 187 654 l 2,23,24
 187 693 187 693 214 720.5 c 128,-1,25
 241 748 241 748 280 748 c 2,26,-1
 523 748 l 1,27,-1
 523 673 l 1,28,-1
 299 673 l 2,29,30
 283 673 283 673 272.5 662 c 128,-1,31
 262 651 262 651 262 635 c 2,0,-1
EndSplineSet
EndChar

StartChar: LATIN
Encoding: 103 103 74
Width: 598
VWidth: 1196
GlyphClass: 1
Flags: HW
HStem: -224 75<75 438> 0 75<160 438> 449 75<160 438>
VStem: 75 75<86 438> 449 75<-139 -11 86 438>
LayerCount: 2
Fore
SplineSet
449 112 m 2,0,-1
 449 411 l 2,1,2
 449 427 449 427 438 438 c 128,-1,3
 427 449 427 449 411 449 c 2,4,-1
 187 449 l 2,5,6
 171 449 171 449 160.5 438 c 128,-1,7
 150 427 150 427 150 411 c 2,8,-1
 150 112 l 2,9,10
 150 96 150 96 160.5 85.5 c 128,-1,11
 171 75 171 75 187 75 c 2,12,-1
 411 75 l 2,13,14
 427 75 427 75 438 85.5 c 128,-1,15
 449 96 449 96 449 112 c 2,0,-1
523 430 m 2,16,-1
 523 -131 l 2,17,18
 523 -170 523 -170 495.5 -197 c 128,-1,19
 468 -224 468 -224 430 -224 c 2,20,-1
 75 -224 l 1,21,-1
 75 -150 l 1,22,-1
 411 -150 l 2,23,24
 427 -150 427 -150 438 -139 c 128,-1,25
 449 -128 449 -128 449 -112 c 2,26,-1
 449 -37 l 2,27,28
 449 -21 449 -21 438 -10.5 c 128,-1,29
 427 0 427 0 411 0 c 2,30,-1
 168 0 l 2,31,32
 129 0 129 0 102 27.5 c 128,-1,33
 75 55 75 55 75 93 c 2,34,-1
 75 430 l 2,35,36
 75 469 75 469 102.5 496 c 128,-1,37
 130 523 130 523 168 523 c 2,38,-1
 430 523 l 2,39,40
 469 523 469 523 496 496 c 128,-1,41
 523 469 523 469 523 430 c 2,16,-1
EndSplineSet
EndChar

StartChar: LATIN
Encoding: 104 104 75
Width: 598
VWidth: 1196
GlyphClass: 1
Flags: HW
HStem: 0 25G<75 150 449 523> 449 75<151 446> 724 23G<75 150>
VStem: 75 75<0 447 525 748> 449 75<0 446>
LayerCount: 2
Fore
SplineSet
430 523 m 2,0,1
 469 523 469 523 496 495.5 c 128,-1,2
 523 468 523 468 523 430 c 2,3,-1
 523 0 l 1,4,-1
 449 0 l 1,5,-1
 449 411 l 2,6,7
 449 426 449 426 437.5 437.5 c 128,-1,8
 426 449 426 449 411 449 c 2,9,-1
 187 449 l 2,10,11
 172 449 172 449 161 437.5 c 128,-1,12
 150 426 150 426 150 411 c 2,13,-1
 150 0 l 1,14,-1
 75 0 l 1,15,-1
 75 748 l 1,16,-1
 150 748 l 1,17,-1
 150 561 l 2,18,19
 150 546 150 546 161 534.5 c 128,-1,20
 172 523 172 523 187 523 c 2,21,-1
 430 523 l 2,0,1
EndSplineSet
EndChar

StartChar: LATIN
Encoding: 105 105 76
Width: 598
VWidth: 1196
GlyphClass: 1
Flags: HW
HStem: 0 75<339 411> 449 75<187 259> 635 112<262 336>
VStem: 262 75<77 446 635 748>
LayerCount: 2
Fore
SplineSet
336 635 m 1,0,-1
 262 635 l 1,1,-1
 262 748 l 1,2,-1
 336 748 l 1,3,-1
 336 635 l 1,0,-1
336 112 m 2,4,5
 336 97 336 97 347.5 86 c 128,-1,6
 359 75 359 75 374 75 c 2,7,-1
 411 75 l 1,8,-1
 411 0 l 1,9,-1
 355 0 l 2,10,11
 316 0 316 0 289 27.5 c 128,-1,12
 262 55 262 55 262 93 c 2,13,-1
 262 411 l 2,14,15
 262 426 262 426 250.5 437.5 c 128,-1,16
 239 449 239 449 224 449 c 2,17,-1
 187 449 l 1,18,-1
 187 523 l 1,19,-1
 243 523 l 2,20,21
 282 523 282 523 309 495.5 c 128,-1,22
 336 468 336 468 336 430 c 2,23,-1
 336 112 l 2,4,5
EndSplineSet
EndChar

StartChar: LATIN
Encoding: 106 106 77
Width: 598
VWidth: 1196
GlyphClass: 1
Flags: HW
HStem: -224 75<40 251> 500 23G<262 336> 635 112<262 336>
VStem: 262 75<-139 523 635 748>
LayerCount: 2
Fore
SplineSet
336 -131 m 2,0,1
 336 -170 336 -170 309.5 -197 c 128,-1,2
 283 -224 283 -224 243 -224 c 2,3,-1
 40 -224 l 1,4,-1
 40 -150 l 1,5,-1
 224 -150 l 2,6,7
 240 -150 240 -150 251 -139 c 128,-1,8
 262 -128 262 -128 262 -112 c 2,9,-1
 262 523 l 1,10,-1
 336 523 l 1,11,-1
 336 -131 l 2,0,1
336 748 m 1,12,-1
 336 635 l 1,13,-1
 262 635 l 1,14,-1
 262 748 l 1,15,-1
 336 748 l 1,12,-1
EndSplineSet
EndChar

StartChar: LATIN
Encoding: 107 107 78
Width: 598
VWidth: 1196
GlyphClass: 1
Flags: HW
HStem: 0 25G<85 160 395 513> 500 23G<323 438> 724 23G<85 160>
VStem: 85 75<0 263 338 748>
LayerCount: 2
Fore
SplineSet
160 338 m 1,0,-1
 347 523 l 1,1,-1
 438 523 l 1,2,-1
 220 304 l 1,3,-1
 513 0 l 1,4,-1
 418 0 l 1,5,-1
 160 263 l 1,6,-1
 160 0 l 1,7,-1
 85 0 l 1,8,-1
 85 748 l 1,9,-1
 160 748 l 1,10,-1
 160 338 l 1,0,-1
EndSplineSet
EndChar

StartChar: LATIN
Encoding: 108 108 79
Width: 598
VWidth: 1196
GlyphClass: 1
Flags: HW
HStem: 0 75<264 486> 724 23G<187 262>
VStem: 187 75<77 748>
LayerCount: 2
Fore
SplineSet
187 93 m 2,0,-1
 187 748 l 1,1,-1
 262 748 l 1,2,-1
 262 112 l 2,3,4
 262 97 262 97 273 86 c 128,-1,5
 284 75 284 75 299 75 c 2,6,-1
 486 75 l 1,7,-1
 486 0 l 1,8,-1
 280 0 l 2,9,10
 241 0 241 0 214 27 c 128,-1,11
 187 54 187 54 187 93 c 2,0,-1
EndSplineSet
EndChar

StartChar: LATIN
Encoding: 109 109 80
Width: 598
VWidth: 1196
GlyphClass: 1
Flags: HW
HStem: 0 25G<75 150 449 523> 449 75<152 258 338 446>
VStem: 75 75<0 446> 259 77<224 447> 449 75<0 446>
LayerCount: 2
Fore
SplineSet
336 224 m 1,0,-1
 259 224 l 1,1,-1
 259 411 l 2,2,3
 259 426 259 426 248 437.5 c 128,-1,4
 237 449 237 449 222 449 c 2,5,-1
 187 449 l 2,6,7
 172 449 172 449 161 437.5 c 128,-1,8
 150 426 150 426 150 411 c 2,9,-1
 150 0 l 1,10,-1
 75 0 l 1,11,-1
 75 430 l 2,12,13
 75 469 75 469 102.5 496 c 128,-1,14
 130 523 130 523 168 523 c 2,15,-1
 430 523 l 2,16,17
 469 523 469 523 496 495.5 c 128,-1,18
 523 468 523 468 523 430 c 2,19,-1
 523 0 l 1,20,-1
 449 0 l 1,21,-1
 449 411 l 2,22,23
 449 426 449 426 437.5 437.5 c 128,-1,24
 426 449 426 449 411 449 c 2,25,-1
 374 449 l 2,26,27
 359 449 359 449 347.5 437.5 c 128,-1,28
 336 426 336 426 336 411 c 2,29,-1
 336 224 l 1,0,-1
EndSplineSet
EndChar

StartChar: LATIN
Encoding: 110 110 81
Width: 598
VWidth: 1196
GlyphClass: 1
Flags: HW
HStem: 0 25G<75 150 449 523> 449 75<152 446>
VStem: 75 75<0 446> 449 75<0 446>
LayerCount: 2
Fore
SplineSet
150 0 m 1,0,-1
 75 0 l 1,1,-1
 75 430 l 2,2,3
 75 469 75 469 102.5 496 c 128,-1,4
 130 523 130 523 168 523 c 2,5,-1
 430 523 l 2,6,7
 469 523 469 523 496 495.5 c 128,-1,8
 523 468 523 468 523 430 c 2,9,-1
 523 0 l 1,10,-1
 449 0 l 1,11,-1
 449 411 l 2,12,13
 449 426 449 426 437.5 437.5 c 128,-1,14
 426 449 426 449 411 449 c 2,15,-1
 187 449 l 2,16,17
 172 449 172 449 161 437.5 c 128,-1,18
 150 426 150 426 150 411 c 2,19,-1
 150 0 l 1,0,-1
EndSplineSet
EndChar

StartChar: LATIN
Encoding: 111 111 82
Width: 598
VWidth: 1196
GlyphClass: 1
Flags: HW
HStem: 0 75<152 446> 449 75<152 446>
VStem: 75 75<77 446> 449 75<77 446>
LayerCount: 2
Fore
SplineSet
411 75 m 2,0,1
 426 75 426 75 437.5 86 c 128,-1,2
 449 97 449 97 449 112 c 2,3,-1
 449 411 l 2,4,5
 449 426 449 426 437.5 437.5 c 128,-1,6
 426 449 426 449 411 449 c 2,7,-1
 187 449 l 2,8,9
 172 449 172 449 161 437.5 c 128,-1,10
 150 426 150 426 150 411 c 2,11,-1
 150 112 l 2,12,13
 150 97 150 97 161 86 c 128,-1,14
 172 75 172 75 187 75 c 2,15,-1
 411 75 l 2,0,1
75 430 m 2,16,17
 75 469 75 469 102.5 496 c 128,-1,18
 130 523 130 523 168 523 c 2,19,-1
 430 523 l 2,20,21
 469 523 469 523 496 495.5 c 128,-1,22
 523 468 523 468 523 430 c 2,23,-1
 523 93 l 2,24,25
 523 54 523 54 495.5 27 c 128,-1,26
 468 0 468 0 430 0 c 2,27,-1
 168 0 l 2,28,29
 129 0 129 0 102 27.5 c 128,-1,30
 75 55 75 55 75 93 c 2,31,-1
 75 430 l 2,16,17
EndSplineSet
EndChar

StartChar: LATIN
Encoding: 112 112 83
Width: 598
VWidth: 1196
GlyphClass: 1
Flags: HW
HStem: -224 25G<75 150> 0 75<151 446> 449 75<152 446>
VStem: 75 75<-224 -2 76 446> 449 75<77 446>
LayerCount: 2
Fore
SplineSet
411 75 m 2,0,1
 426 75 426 75 437.5 86 c 128,-1,2
 449 97 449 97 449 112 c 2,3,-1
 449 411 l 2,4,5
 449 426 449 426 437.5 437.5 c 128,-1,6
 426 449 426 449 411 449 c 2,7,-1
 187 449 l 2,8,9
 172 449 172 449 161 437.5 c 128,-1,10
 150 426 150 426 150 411 c 2,11,-1
 150 112 l 2,12,13
 150 97 150 97 161 86 c 128,-1,14
 172 75 172 75 187 75 c 2,15,-1
 411 75 l 2,0,1
75 430 m 2,16,17
 75 469 75 469 102.5 496 c 128,-1,18
 130 523 130 523 168 523 c 2,19,-1
 430 523 l 2,20,21
 469 523 469 523 496 495.5 c 128,-1,22
 523 468 523 468 523 430 c 2,23,-1
 523 93 l 2,24,25
 523 54 523 54 495.5 27 c 128,-1,26
 468 0 468 0 430 0 c 2,27,-1
 187 0 l 2,28,29
 172 0 172 0 161 -11 c 128,-1,30
 150 -22 150 -22 150 -37 c 2,31,-1
 150 -224 l 1,32,-1
 75 -224 l 1,33,-1
 75 430 l 2,16,17
EndSplineSet
EndChar

StartChar: LATIN
Encoding: 113 113 84
Width: 598
VWidth: 1196
GlyphClass: 1
Flags: HW
HStem: -224 25G<449 523> 0 75<160 438> 449 75<160 438>
VStem: 75 75<86 438> 449 75<-224 -11 86 438>
LayerCount: 2
Fore
SplineSet
187 75 m 2,0,-1
 411 75 l 2,1,2
 427 75 427 75 438 85.5 c 128,-1,3
 449 96 449 96 449 112 c 2,4,-1
 449 411 l 2,5,6
 449 427 449 427 438 438 c 128,-1,7
 427 449 427 449 411 449 c 2,8,-1
 187 449 l 2,9,10
 171 449 171 449 160.5 438 c 128,-1,11
 150 427 150 427 150 411 c 2,12,-1
 150 112 l 2,13,14
 150 96 150 96 160.5 85.5 c 128,-1,15
 171 75 171 75 187 75 c 2,0,-1
523 430 m 2,16,-1
 523 -224 l 1,17,-1
 449 -224 l 1,18,-1
 449 -37 l 2,19,20
 449 -21 449 -21 438 -10.5 c 128,-1,21
 427 0 427 0 411 0 c 2,22,-1
 168 0 l 2,23,24
 129 0 129 0 102 27.5 c 128,-1,25
 75 55 75 55 75 93 c 2,26,-1
 75 430 l 2,27,28
 75 469 75 469 102.5 496 c 128,-1,29
 130 523 130 523 168 523 c 2,30,-1
 430 523 l 2,31,32
 469 523 469 523 496 496 c 128,-1,33
 523 469 523 469 523 430 c 2,16,-1
EndSplineSet
EndChar

StartChar: LATIN
Encoding: 114 114 85
Width: 598
VWidth: 1196
GlyphClass: 1
Flags: HW
HStem: 0 25G<75 150> 449 75<152 523>
VStem: 75 75<0 446>
LayerCount: 2
Fore
SplineSet
523 449 m 1,0,-1
 187 449 l 2,1,2
 172 449 172 449 161 437.5 c 128,-1,3
 150 426 150 426 150 411 c 2,4,-1
 150 0 l 1,5,-1
 75 0 l 1,6,-1
 75 430 l 2,7,8
 75 469 75 469 102.5 496 c 128,-1,9
 130 523 130 523 168 523 c 2,10,-1
 523 523 l 1,11,-1
 523 449 l 1,0,-1
EndSplineSet
EndChar

StartChar: LATIN
Encoding: 115 115 86
Width: 598
VWidth: 1196
GlyphClass: 1
Flags: HW
HStem: 0 75<75 446> 224 75<152 446> 449 75<152 523>
VStem: 75 75<301 446> 449 75<77 222>
CounterMasks: 1 e0
LayerCount: 2
Fore
SplineSet
187 449 m 2,0,1
 172 449 172 449 161 437.5 c 128,-1,2
 150 426 150 426 150 411 c 2,3,-1
 150 336 l 2,4,5
 150 321 150 321 161 310 c 128,-1,6
 172 299 172 299 187 299 c 2,7,-1
 430 299 l 2,8,9
 469 299 469 299 496 271.5 c 128,-1,10
 523 244 523 244 523 206 c 2,11,-1
 523 93 l 2,12,13
 523 54 523 54 495.5 27 c 128,-1,14
 468 0 468 0 430 0 c 2,15,-1
 75 0 l 1,16,-1
 75 75 l 1,17,-1
 411 75 l 2,18,19
 426 75 426 75 437.5 86 c 128,-1,20
 449 97 449 97 449 112 c 2,21,-1
 449 187 l 2,22,23
 449 202 449 202 437.5 213 c 128,-1,24
 426 224 426 224 411 224 c 2,25,-1
 168 224 l 2,26,27
 129 224 129 224 102 251.5 c 128,-1,28
 75 279 75 279 75 318 c 2,29,-1
 75 430 l 2,30,31
 75 469 75 469 102.5 496 c 128,-1,32
 130 523 130 523 168 523 c 2,33,-1
 523 523 l 1,34,-1
 523 449 l 1,35,-1
 187 449 l 2,0,1
EndSplineSet
EndChar

StartChar: LATIN
Encoding: 116 116 87
Width: 598
VWidth: 1196
GlyphClass: 1
Flags: HW
HStem: 0 75<272 486> 449 75<75 176 263 411> 724 23G<187 262>
VStem: 187 75<86 438 534 748>
LayerCount: 2
Fore
SplineSet
262 411 m 2,0,-1
 262 112 l 2,1,2
 262 96 262 96 272.5 85.5 c 128,-1,3
 283 75 283 75 299 75 c 2,4,-1
 486 75 l 1,5,-1
 486 0 l 1,6,-1
 280 0 l 2,7,8
 241 0 241 0 214 27.5 c 128,-1,9
 187 55 187 55 187 93 c 2,10,-1
 187 411 l 2,11,12
 187 427 187 427 176.5 438 c 128,-1,13
 166 449 166 449 150 449 c 2,14,-1
 75 449 l 1,15,-1
 75 523 l 1,16,-1
 150 523 l 2,17,18
 166 523 166 523 176.5 533.5 c 128,-1,19
 187 544 187 544 187 561 c 2,20,-1
 187 748 l 1,21,-1
 262 748 l 1,22,-1
 262 561 l 2,23,24
 262 546 262 546 273 534.5 c 128,-1,25
 284 523 284 523 299 523 c 2,26,-1
 411 523 l 1,27,-1
 411 449 l 1,28,-1
 299 449 l 2,29,30
 284 449 284 449 273 437.5 c 128,-1,31
 262 426 262 426 262 411 c 2,0,-1
EndSplineSet
EndChar

StartChar: LATIN
Encoding: 117 117 88
Width: 598
VWidth: 1196
GlyphClass: 1
Flags: HW
HStem: 0 75<160 438> 500 23G<75 150 449 523>
VStem: 75 75<86 523> 449 75<86 523>
LayerCount: 2
Fore
SplineSet
150 523 m 1,0,-1
 150 112 l 2,1,2
 150 96 150 96 160.5 85.5 c 128,-1,3
 171 75 171 75 187 75 c 2,4,-1
 411 75 l 2,5,6
 427 75 427 75 438 85.5 c 128,-1,7
 449 96 449 96 449 112 c 2,8,-1
 449 523 l 1,9,-1
 523 523 l 1,10,-1
 523 93 l 2,11,12
 523 54 523 54 495.5 27 c 128,-1,13
 468 0 468 0 430 0 c 2,14,-1
 168 0 l 2,15,16
 129 0 129 0 102 27.5 c 128,-1,17
 75 55 75 55 75 93 c 2,18,-1
 75 523 l 1,19,-1
 150 523 l 1,0,-1
EndSplineSet
EndChar

StartChar: LATIN
Encoding: 118 118 89
Width: 598
VWidth: 1196
GlyphClass: 1
Flags: HW
HStem: 0 25G<238 360> 500 23G<75 150 449 523>
VStem: 75 75<206 523> 449 75<206 523>
LayerCount: 2
Fore
SplineSet
262 0 m 1,0,-1
 75 187 l 1,1,-1
 75 523 l 1,2,-1
 150 523 l 1,3,-1
 150 206 l 1,4,-1
 299 57 l 1,5,-1
 449 206 l 1,6,-1
 449 523 l 1,7,-1
 523 523 l 1,8,-1
 523 187 l 1,9,-1
 336 0 l 1,10,-1
 262 0 l 1,0,-1
EndSplineSet
EndChar

StartChar: LATIN
Encoding: 120 120 91
Width: 598
VWidth: 1196
GlyphClass: 1
Flags: HW
HStem: 0 25G<71 170 428 527> 500 23G<71 170 428 527>
LayerCount: 2
Fore
SplineSet
71 523 m 1,0,-1
 153 523 l 1,1,-1
 299 319 l 1,2,-1
 445 523 l 1,3,-1
 527 523 l 1,4,-1
 340 262 l 1,5,-1
 527 0 l 1,6,-1
 445 0 l 1,7,-1
 299 204 l 1,8,-1
 153 0 l 1,9,-1
 71 0 l 1,10,-1
 258 262 l 1,11,-1
 71 523 l 1,0,-1
EndSplineSet
EndChar

StartChar: LATIN
Encoding: 121 121 92
Width: 598
VWidth: 1196
GlyphClass: 1
Flags: HW
HStem: -224 75<75 446> 0 75<152 449> 500 23G<75 150 449 523>
VStem: 75 75<77 523> 449 75<-147 0 75 523>
LayerCount: 2
Fore
SplineSet
523 -131 m 2,0,1
 523 -170 523 -170 495.5 -197 c 128,-1,2
 468 -224 468 -224 430 -224 c 2,3,-1
 75 -224 l 1,4,-1
 75 -150 l 1,5,-1
 411 -150 l 2,6,7
 426 -150 426 -150 437.5 -138.5 c 128,-1,8
 449 -127 449 -127 449 -112 c 2,9,-1
 449 0 l 1,10,-1
 168 0 l 2,11,12
 129 0 129 0 102 27.5 c 128,-1,13
 75 55 75 55 75 93 c 2,14,-1
 75 523 l 1,15,-1
 150 523 l 1,16,-1
 150 112 l 2,17,18
 150 97 150 97 161 86 c 128,-1,19
 172 75 172 75 187 75 c 2,20,-1
 449 75 l 1,21,-1
 449 523 l 1,22,-1
 523 523 l 1,23,-1
 523 -131 l 2,0,1
EndSplineSet
EndChar

StartChar: LATIN
Encoding: 122 122 93
Width: 598
VWidth: 1196
GlyphClass: 1
Flags: HW
HStem: 0 75<187 523> 449 75<75 449>
LayerCount: 2
Fore
SplineSet
523 411 m 1,0,-1
 187 75 l 1,1,-1
 523 75 l 1,2,-1
 523 0 l 1,3,-1
 75 0 l 1,4,-1
 75 75 l 1,5,-1
 449 449 l 1,6,-1
 75 449 l 1,7,-1
 75 523 l 1,8,-1
 523 523 l 1,9,-1
 523 411 l 1,0,-1
EndSplineSet
EndChar

StartChar: LEFT
Encoding: 123 123 94
Width: 598
VWidth: 1196
GlyphClass: 1
Flags: HW
HStem: -150 75<301 523> 299 150<75 207> 822 75<301 523>
VStem: 75 150<336 411> 224 75<-72 282 465 820>
CounterMasks: 1 e0
LayerCount: 2
Fore
SplineSet
224 804 m 2,0,1
 224 843 224 843 251.5 870 c 128,-1,2
 279 897 279 897 318 897 c 2,3,-1
 523 897 l 1,4,-1
 523 822 l 1,5,-1
 336 822 l 2,6,7
 321 822 321 822 310 811 c 128,-1,8
 299 800 299 800 299 785 c 2,9,-1
 299 467 l 2,10,11
 299 444 299 444 282.5 427.5 c 128,-1,12
 266 411 266 411 243 411 c 2,13,-1
 224 411 l 1,14,-1
 224 336 l 1,15,-1
 243 336 l 2,16,17
 266 336 266 336 282.5 320 c 128,-1,18
 299 304 299 304 299 280 c 2,19,-1
 299 -37 l 2,20,21
 299 -52 299 -52 310 -63.5 c 128,-1,22
 321 -75 321 -75 336 -75 c 2,23,-1
 523 -75 l 1,24,-1
 523 -150 l 1,25,-1
 318 -150 l 2,26,27
 279 -150 279 -150 251.5 -122.5 c 128,-1,28
 224 -95 224 -95 224 -56 c 2,29,-1
 224 243 l 2,30,31
 224 266 224 266 208 282.5 c 128,-1,32
 192 299 192 299 168 299 c 2,33,-1
 75 299 l 1,34,-1
 75 449 l 1,35,-1
 168 449 l 2,36,37
 191 449 191 449 207.5 465 c 128,-1,38
 224 481 224 481 224 505 c 2,39,-1
 224 804 l 2,0,1
EndSplineSet
EndChar

StartChar: VERTICAL
Encoding: 124 124 95
Width: 598
VWidth: 1196
GlyphClass: 1
Flags: HW
VStem: 262 75<-150 897>
LayerCount: 2
Fore
SplineSet
336 -150 m 1,0,-1
 262 -150 l 1,1,-1
 262 897 l 1,2,-1
 336 897 l 1,3,-1
 336 -150 l 1,0,-1
EndSplineSet
EndChar

StartChar: RIGHT
Encoding: 125 125 96
Width: 598
VWidth: 1196
GlyphClass: 1
Flags: HW
HStem: -150 75<75 288> 299 150<391 523> 822 75<75 288>
VStem: 299 75<-64 282 465 811> 374 150<336 411>
CounterMasks: 1 e0
LayerCount: 2
Fore
SplineSet
374 804 m 2,0,-1
 374 505 l 2,1,2
 374 482 374 482 390 465.5 c 128,-1,3
 406 449 406 449 430 449 c 2,4,-1
 523 449 l 1,5,-1
 523 299 l 1,6,-1
 430 299 l 2,7,8
 407 299 407 299 390.5 282.5 c 128,-1,9
 374 266 374 266 374 243 c 2,10,-1
 374 -56 l 2,11,12
 374 -95 374 -95 346.5 -122.5 c 128,-1,13
 319 -150 319 -150 280 -150 c 2,14,-1
 75 -150 l 1,15,-1
 75 -75 l 1,16,-1
 262 -75 l 2,17,18
 278 -75 278 -75 288.5 -64.5 c 128,-1,19
 299 -54 299 -54 299 -37 c 2,20,-1
 299 280 l 2,21,22
 299 303 299 303 315.5 319.5 c 128,-1,23
 332 336 332 336 355 336 c 2,24,-1
 374 336 l 1,25,-1
 374 411 l 1,26,-1
 355 411 l 2,27,28
 332 411 332 411 315.5 427.5 c 128,-1,29
 299 444 299 444 299 467 c 2,30,-1
 299 785 l 2,31,32
 299 801 299 801 288.5 811.5 c 128,-1,33
 278 822 278 822 262 822 c 2,34,-1
 75 822 l 1,35,-1
 75 897 l 1,36,-1
 280 897 l 2,37,38
 319 897 319 897 346.5 870 c 128,-1,39
 374 843 374 843 374 804 c 2,0,-1
EndSplineSet
EndChar

StartChar: TILDE
Encoding: 126 126 97
Width: 598
VWidth: 1196
GlyphClass: 1
Flags: HW
HStem: 279 75<355 438> 391 75<160 224>
VStem: 75 75<279 380> 449 75<365 466>
LayerCount: 2
Fore
SplineSet
336 279 m 1,0,-1
 224 391 l 1,1,-1
 187 391 l 2,2,3
 171 391 171 391 160.5 380 c 128,-1,4
 150 369 150 369 150 354 c 2,5,-1
 150 279 l 1,6,-1
 75 279 l 1,7,-1
 75 391 l 2,8,9
 75 421 75 421 102.5 443.5 c 128,-1,10
 130 466 130 466 168 466 c 2,11,-1
 243 466 l 1,12,-1
 355 354 l 1,13,-1
 411 354 l 2,14,15
 427 354 427 354 438 365 c 128,-1,16
 449 376 449 376 449 391 c 2,17,-1
 449 466 l 1,18,-1
 523 466 l 1,19,-1
 523 354 l 2,20,21
 523 324 523 324 495.5 301.5 c 128,-1,22
 468 279 468 279 430 279 c 2,23,-1
 336 279 l 1,0,-1
EndSplineSet
EndChar

StartChar: INVERTED
Encoding: 161 161 100
Width: 598
VWidth: 1196
GlyphClass: 1
Flags: HW
HStem: 0 25G<262 336> 628 119<262 336>
VStem: 262 75<0 509 628 748>
LayerCount: 2
Fore
SplineSet
262 509 m 1,0,-1
 336 509 l 1,1,-1
 336 0 l 1,2,-1
 262 0 l 1,3,-1
 262 509 l 1,0,-1
262 748 m 1,4,-1
 336 748 l 1,5,-1
 336 628 l 1,6,-1
 262 628 l 1,7,-1
 262 748 l 1,4,-1
EndSplineSet
EndChar

StartChar: CENT
Encoding: 162 162 101
Width: 598
VWidth: 1196
GlyphClass: 1
Flags: HW
HStem: 0 75<152 299 374 523> 449 75<152 299 374 523>
VStem: 75 75<77 446> 299 75<-75 0 75 449 523 598>
LayerCount: 2
Fore
SplineSet
150 112 m 2,0,1
 150 97 150 97 161 86 c 128,-1,2
 172 75 172 75 187 75 c 2,3,-1
 299 75 l 1,4,-1
 299 449 l 1,5,-1
 187 449 l 2,6,7
 172 449 172 449 161 437.5 c 128,-1,8
 150 426 150 426 150 411 c 2,9,-1
 150 112 l 2,0,1
168 0 m 2,10,11
 129 0 129 0 102 27.5 c 128,-1,12
 75 55 75 55 75 93 c 2,13,-1
 75 430 l 2,14,15
 75 469 75 469 102.5 496 c 128,-1,16
 130 523 130 523 168 523 c 2,17,-1
 299 523 l 1,18,-1
 299 598 l 1,19,-1
 374 598 l 1,20,-1
 374 523 l 1,21,-1
 523 523 l 1,22,-1
 523 449 l 1,23,-1
 374 449 l 1,24,-1
 374 75 l 1,25,-1
 523 75 l 1,26,-1
 523 0 l 1,27,-1
 374 0 l 1,28,-1
 374 -75 l 1,29,-1
 299 -75 l 1,30,-1
 299 0 l 1,31,-1
 168 0 l 2,10,11
EndSplineSet
EndChar

StartChar: POUND
Encoding: 163 163 102
Width: 598
VWidth: 1196
GlyphClass: 1
Flags: HW
HStem: 0 75<75 140 199 523> 336 75<75 150 224 449> 673 75<227 409>
VStem: 150 75<78 336 411 670> 411 75<598 670>
CounterMasks: 1 e0
LayerCount: 2
Fore
SplineSet
112 75 m 2,0,1
 127 75 127 75 138.5 97 c 128,-1,2
 150 119 150 119 150 150 c 2,3,-1
 150 336 l 1,4,-1
 75 336 l 1,5,-1
 75 411 l 1,6,-1
 150 411 l 1,7,-1
 150 654 l 2,8,9
 150 693 150 693 177 720.5 c 128,-1,10
 204 748 204 748 243 748 c 2,11,-1
 392 748 l 2,12,13
 431 748 431 748 458.5 720.5 c 128,-1,14
 486 693 486 693 486 654 c 2,15,-1
 486 598 l 1,16,-1
 411 598 l 1,17,-1
 411 635 l 2,18,19
 411 650 411 650 400 661.5 c 128,-1,20
 389 673 389 673 374 673 c 2,21,-1
 262 673 l 2,22,23
 247 673 247 673 235.5 662 c 128,-1,24
 224 651 224 651 224 635 c 2,25,-1
 224 411 l 1,26,-1
 449 411 l 1,27,-1
 449 336 l 1,28,-1
 224 336 l 1,29,-1
 224 150 l 2,30,31
 224 75 224 75 199 75 c 1,32,-1
 523 75 l 1,33,-1
 523 0 l 1,34,-1
 75 0 l 1,35,-1
 75 75 l 1,36,-1
 112 75 l 2,0,1
EndSplineSet
EndChar

StartChar: CURRENCY
Encoding: 164 164 103
Width: 598
VWidth: 1196
GlyphClass: 1
Flags: HW
HStem: 187 75<280 318> 486 75<280 318>
VStem: 112 75<263 484> 411 75<263 484>
LayerCount: 2
Fore
SplineSet
411 299 m 2,0,-1
 411 449 l 2,1,2
 411 464 411 464 400 475 c 128,-1,3
 389 486 389 486 374 486 c 2,4,-1
 224 486 l 2,5,6
 209 486 209 486 198 475 c 128,-1,7
 187 464 187 464 187 449 c 2,8,-1
 187 299 l 2,9,10
 187 284 187 284 198 273 c 128,-1,11
 209 262 209 262 224 262 c 2,12,-1
 374 262 l 2,13,14
 389 262 389 262 400 273 c 128,-1,15
 411 284 411 284 411 299 c 2,0,-1
374 635 m 1,16,-1
 486 635 l 1,17,-1
 411 542 l 1,18,-1
 430 542 l 2,19,20
 453 542 453 542 469.5 525.5 c 128,-1,21
 486 509 486 509 486 486 c 2,22,-1
 486 262 l 2,23,24
 486 239 486 239 469.5 222.5 c 128,-1,25
 453 206 453 206 430 206 c 2,26,-1
 411 206 l 1,27,-1
 411 187 l 1,28,-1
 486 112 l 1,29,-1
 374 112 l 1,30,-1
 318 187 l 1,31,-1
 280 187 l 1,32,-1
 224 112 l 1,33,-1
 112 112 l 1,34,-1
 187 187 l 1,35,-1
 187 206 l 1,36,-1
 168 206 l 2,37,38
 145 206 145 206 128.5 222 c 128,-1,39
 112 238 112 238 112 262 c 2,40,-1
 112 486 l 2,41,42
 112 509 112 509 128.5 525.5 c 128,-1,43
 145 542 145 542 168 542 c 2,44,-1
 187 542 l 1,45,-1
 112 635 l 1,46,-1
 224 635 l 1,47,-1
 280 561 l 1,48,-1
 318 561 l 1,49,-1
 374 635 l 1,16,-1
EndSplineSet
EndChar

StartChar: YEN
Encoding: 165 165 104
Width: 598
VWidth: 1196
GlyphClass: 1
Flags: HW
HStem: 0 25G<262 336> 75 75<112 262 336 486> 224 75<112 262 336 486> 724 23G<75 161 437 523>
VStem: 262 75<0 75 150 224 299 374>
LayerCount: 2
Fore
SplineSet
336 374 m 1,0,-1
 336 299 l 1,1,-1
 486 299 l 1,2,-1
 486 224 l 1,3,-1
 336 224 l 1,4,-1
 336 150 l 1,5,-1
 486 150 l 1,6,-1
 486 75 l 1,7,-1
 336 75 l 1,8,-1
 336 0 l 1,9,-1
 262 0 l 1,10,-1
 262 75 l 1,11,-1
 112 75 l 1,12,-1
 112 150 l 1,13,-1
 262 150 l 1,14,-1
 262 224 l 1,15,-1
 112 224 l 1,16,-1
 112 299 l 1,17,-1
 262 299 l 1,18,-1
 262 374 l 1,19,-1
 75 710 l 1,20,-1
 75 748 l 1,21,-1
 150 748 l 1,22,-1
 280 488 l 1,23,-1
 318 488 l 1,24,-1
 449 748 l 1,25,-1
 523 748 l 1,26,-1
 523 710 l 1,27,-1
 336 374 l 1,0,-1
EndSplineSet
EndChar

StartChar: BROKEN
Encoding: 166 166 105
Width: 598
VWidth: 1196
GlyphClass: 1
Flags: HW
VStem: 262 75<-75 299 449 822>
LayerCount: 2
Fore
SplineSet
336 449 m 1,0,-1
 262 449 l 1,1,-1
 262 822 l 1,2,-1
 336 822 l 1,3,-1
 336 449 l 1,0,-1
336 -75 m 1,4,-1
 262 -75 l 1,5,-1
 262 299 l 1,6,-1
 336 299 l 1,7,-1
 336 -75 l 1,4,-1
EndSplineSet
EndChar

StartChar: SECTION
Encoding: 167 167 106
Width: 598
VWidth: 1196
GlyphClass: 1
Flags: HW
HStem: -75 112<168 256> -75 75<262 409> 187 75<189 392> 486 75<206 409> 710 112<342 430> 748 75<189 336>
VStem: 112 75<264 484 579 745> 336 112<716 748> 411 75<2 168 264 484>
LayerCount: 2
Fore
SplineSet
224 262 m 2,0,-1
 374 262 l 2,1,2
 389 262 389 262 400 273 c 128,-1,3
 411 284 411 284 411 299 c 2,4,-1
 411 449 l 2,5,6
 411 464 411 464 400 475 c 128,-1,7
 389 486 389 486 374 486 c 2,8,-1
 224 486 l 2,9,10
 209 486 209 486 198 475 c 128,-1,11
 187 464 187 464 187 449 c 2,12,-1
 187 299 l 2,13,14
 187 284 187 284 198 273 c 128,-1,15
 209 262 209 262 224 262 c 2,0,-1
150 523 m 2,16,-1
 168 523 l 1,17,-1
 168 561 l 1,18,-1
 150 561 l 2,19,20
 135 561 135 561 123.5 577 c 128,-1,21
 112 593 112 593 112 617 c 2,22,-1
 112 729 l 2,23,24
 112 768 112 768 139.5 795 c 128,-1,25
 167 822 167 822 206 822 c 2,26,-1
 374 822 l 2,27,28
 404 822 404 822 426.5 800 c 128,-1,29
 449 778 449 778 449 748 c 2,30,-1
 449 710 l 1,31,-1
 355 710 l 2,32,33
 347 710 347 710 341.5 715.5 c 128,-1,34
 336 721 336 721 336 729 c 2,35,-1
 336 748 l 1,36,-1
 224 748 l 2,37,38
 209 748 209 748 198 736.5 c 128,-1,39
 187 725 187 725 187 710 c 2,40,-1
 187 635 l 2,41,42
 187 605 187 605 209 583 c 128,-1,43
 231 561 231 561 262 561 c 2,44,-1
 392 561 l 2,45,46
 431 561 431 561 458.5 533.5 c 128,-1,47
 486 506 486 506 486 467 c 2,48,-1
 486 280 l 2,49,50
 486 257 486 257 475 240.5 c 128,-1,51
 464 224 464 224 449 224 c 2,52,-1
 430 224 l 1,53,-1
 430 187 l 1,54,-1
 449 187 l 2,55,56
 464 187 464 187 475 170.5 c 128,-1,57
 486 154 486 154 486 131 c 2,58,-1
 486 19 l 2,59,60
 486 -20 486 -20 458.5 -47.5 c 128,-1,61
 431 -75 431 -75 392 -75 c 2,62,-1
 224 -75 l 2,63,64
 194 -75 194 -75 172 -52.5 c 128,-1,65
 150 -30 150 -30 150 0 c 2,66,-1
 150 37 l 1,67,-1
 243 37 l 2,68,69
 251 37 251 37 256.5 32 c 128,-1,70
 262 27 262 27 262 19 c 2,71,-1
 262 0 l 1,72,-1
 374 0 l 2,73,74
 389 0 389 0 400 11 c 128,-1,75
 411 22 411 22 411 37 c 2,76,-1
 411 112 l 2,77,78
 411 142 411 142 389 164.5 c 128,-1,79
 367 187 367 187 336 187 c 2,80,-1
 206 187 l 2,81,82
 167 187 167 187 139.5 214.5 c 128,-1,83
 112 242 112 242 112 280 c 2,84,-1
 112 467 l 2,85,86
 112 490 112 490 123.5 506.5 c 128,-1,87
 135 523 135 523 150 523 c 2,16,-1
EndSplineSet
EndChar

StartChar: FEMININE
Encoding: 170 170 109
Width: 598
VWidth: 1196
GlyphClass: 1
Flags: HW
HStem: 299 75<150 449> 449 75<243 374> 598 75<243 374> 748 75<187 336>
VStem: 150 93<523 542 579 598> 150 75<542 579> 374 75<523 598 673 710>
LayerCount: 2
Fore
SplineSet
243 523 m 1,0,-1
 374 523 l 1,1,-1
 374 598 l 1,2,-1
 243 598 l 1,3,-1
 243 579 l 1,4,-1
 224 579 l 1,5,-1
 224 542 l 1,6,-1
 243 542 l 1,7,-1
 243 523 l 1,0,-1
449 449 m 1,8,-1
 224 449 l 1,9,-1
 224 467 l 1,10,-1
 187 467 l 1,11,-1
 187 486 l 1,12,-1
 168 486 l 1,13,-1
 168 523 l 1,14,-1
 150 523 l 1,15,-1
 150 598 l 1,16,-1
 168 598 l 1,17,-1
 168 635 l 1,18,-1
 187 635 l 1,19,-1
 187 654 l 1,20,-1
 224 654 l 1,21,-1
 224 673 l 1,22,-1
 374 673 l 1,23,-1
 374 710 l 1,24,-1
 355 710 l 1,25,-1
 355 729 l 1,26,-1
 336 729 l 1,27,-1
 336 748 l 1,28,-1
 187 748 l 1,29,-1
 187 822 l 1,30,-1
 355 822 l 1,31,-1
 355 804 l 1,32,-1
 392 804 l 1,33,-1
 392 785 l 1,34,-1
 411 785 l 1,35,-1
 411 766 l 1,36,-1
 430 766 l 1,37,-1
 430 729 l 1,38,-1
 449 729 l 1,39,-1
 449 449 l 1,8,-1
449 299 m 1,40,-1
 150 299 l 1,41,-1
 150 374 l 1,42,-1
 449 374 l 1,43,-1
 449 299 l 1,40,-1
EndSplineSet
EndChar

StartChar: LEFT-POINTING
Encoding: 171 171 110
Width: 598
VWidth: 1196
GlyphClass: 1
Flags: HW
HStem: 75 374
LayerCount: 2
Fore
SplineSet
234 449 m 1,0,-1
 346 449 l 1,1,-1
 178 280 l 1,2,-1
 178 243 l 1,3,-1
 346 75 l 1,4,-1
 234 75 l 1,5,-1
 65 243 l 1,6,-1
 65 280 l 1,7,-1
 234 449 l 1,0,-1
252 243 m 1,8,-1
 252 280 l 1,9,-1
 420 449 l 1,10,-1
 533 449 l 1,11,-1
 364 280 l 1,12,-1
 364 243 l 1,13,-1
 533 75 l 1,14,-1
 420 75 l 1,15,-1
 252 243 l 1,8,-1
EndSplineSet
EndChar

StartChar: NOT
Encoding: 172 172 111
Width: 598
VWidth: 1196
GlyphClass: 1
Flags: HW
HStem: 449 75<75 449>
VStem: 449 75<224 449>
LayerCount: 2
Fore
SplineSet
523 224 m 1,0,-1
 449 224 l 1,1,-1
 449 449 l 1,2,-1
 75 449 l 1,3,-1
 75 523 l 1,4,-1
 523 523 l 1,5,-1
 523 224 l 1,0,-1
EndSplineSet
EndChar

StartChar: SOFT
Encoding: 173 173 112
Width: 598
VWidth: 1196
GlyphClass: 1
Flags: HW
HStem: 299 75<112 486>
VStem: 112 374<299 374>
LayerCount: 2
Fore
SplineSet
486 299 m 1,0,-1
 112 299 l 1,1,-1
 112 374 l 1,2,-1
 486 374 l 1,3,-1
 486 299 l 1,0,-1
EndSplineSet
EndChar

StartChar: MACRON
Encoding: 175 175 114
Width: 598
VWidth: 1196
GlyphClass: 1
Flags: HW
HStem: 822 75<150 449>
VStem: 150 299<822 897>
LayerCount: 2
Fore
SplineSet
449 822 m 1,0,-1
 150 822 l 1,1,-1
 150 897 l 1,2,-1
 449 897 l 1,3,-1
 449 822 l 1,0,-1
EndSplineSet
EndChar

StartChar: DEGREE
Encoding: 176 176 115
Width: 598
VWidth: 1196
GlyphClass: 1
Flags: HW
HStem: 473 60<236 362> 690 60<236 362>
VStem: 181 55<533 690> 362 55<533 690>
LayerCount: 2
Fore
SplineSet
347 533 m 2,0,1
 353 533 353 533 357.5 537.5 c 128,-1,2
 362 542 362 542 362 548 c 2,3,-1
 362 674 l 2,4,5
 362 681 362 681 357.5 685.5 c 128,-1,6
 353 690 353 690 347 690 c 2,7,-1
 251 690 l 2,8,9
 245 690 245 690 240.5 685.5 c 128,-1,10
 236 681 236 681 236 674 c 2,11,-1
 236 548 l 2,12,13
 236 542 236 542 240.5 537.5 c 128,-1,14
 245 533 245 533 251 533 c 2,15,-1
 347 533 l 2,0,1
181 700 m 2,16,17
 181 721 181 721 195 735.5 c 128,-1,18
 209 750 209 750 230 750 c 2,19,-1
 368 750 l 2,20,21
 389 750 389 750 403 735.5 c 128,-1,22
 417 721 417 721 417 700 c 2,23,-1
 417 522 l 2,24,25
 417 502 417 502 403 487.5 c 128,-1,26
 389 473 389 473 368 473 c 2,27,-1
 230 473 l 2,28,29
 209 473 209 473 195 487.5 c 128,-1,30
 181 502 181 502 181 522 c 2,31,-1
 181 700 l 2,16,17
EndSplineSet
EndChar

StartChar: PLUS-MINUS
Encoding: 177 177 116
Width: 598
VWidth: 1196
GlyphClass: 1
Flags: HW
HStem: 75 75<112 486> 411 75<75 262 336 523>
VStem: 262 75<224 411 486 673>
LayerCount: 2
Fore
SplineSet
262 224 m 1,0,-1
 262 411 l 1,1,-1
 75 411 l 1,2,-1
 75 486 l 1,3,-1
 262 486 l 1,4,-1
 262 673 l 1,5,-1
 336 673 l 1,6,-1
 336 486 l 1,7,-1
 523 486 l 1,8,-1
 523 411 l 1,9,-1
 336 411 l 1,10,-1
 336 224 l 1,11,-1
 262 224 l 1,0,-1
486 75 m 1,12,-1
 112 75 l 1,13,-1
 112 150 l 1,14,-1
 486 150 l 1,15,-1
 486 75 l 1,12,-1
EndSplineSet
EndChar

StartChar: ACUTE
Encoding: 180 180 119
Width: 598
VWidth: 1196
GlyphClass: 1
Flags: HW
HStem: 526 220
VStem: 189 220
LayerCount: 2
Fore
SplineSet
189 586 m 1,0,-1
 348 745 l 1,1,-1
 409 684 l 1,2,-1
 250 526 l 1,3,-1
 189 586 l 1,0,-1
EndSplineSet
EndChar

StartChar: MICRO
Encoding: 181 181 120
Width: 598
VWidth: 1196
GlyphClass: 1
Flags: HW
HStem: -224 25G<75 150> 0 75<467 561> 28 47<160 363> 500 23G<75 150 374 449>
VStem: 75 75<-224 28 86 523> 374 75<86 523>
LayerCount: 2
Fore
SplineSet
430 28 m 2,0,-1
 150 28 l 1,1,-1
 150 -224 l 1,2,-1
 75 -224 l 1,3,-1
 75 523 l 1,4,-1
 150 523 l 1,5,-1
 150 112 l 2,6,7
 150 96 150 96 160.5 85.5 c 128,-1,8
 171 75 171 75 187 75 c 2,9,-1
 336 75 l 2,10,11
 352 75 352 75 363 85.5 c 128,-1,12
 374 96 374 96 374 112 c 2,13,-1
 374 523 l 1,14,-1
 449 523 l 1,15,-1
 449 112 l 2,16,17
 449 96 449 96 459.5 85.5 c 128,-1,18
 470 75 470 75 486 75 c 2,19,-1
 561 75 l 1,20,-1
 561 0 l 1,21,-1
 467 0 l 1,22,-1
 467 8 l 2,23,24
 467 16 467 16 456 22 c 128,-1,25
 445 28 445 28 430 28 c 2,0,-1
EndSplineSet
EndChar

StartChar: PILCROW
Encoding: 182 182 121
Width: 598
VWidth: 1196
GlyphClass: 1
Flags: HW
HStem: 0 25G<262 336 449 523> 374 75<187 262> 673 75<187 262 336 449>
VStem: 75 93<467 486 635 654> 75 75<486 635> 93 93<449 467 654 673> 262 75<0 374 449 673> 449 75<0 673>
LayerCount: 2
Fore
SplineSet
187 449 m 1,0,-1
 262 449 l 1,1,-1
 262 673 l 1,2,-1
 187 673 l 1,3,-1
 187 654 l 1,4,-1
 168 654 l 1,5,-1
 168 635 l 1,6,-1
 150 635 l 1,7,-1
 150 486 l 1,8,-1
 168 486 l 1,9,-1
 168 467 l 1,10,-1
 187 467 l 1,11,-1
 187 449 l 1,0,-1
523 0 m 1,12,-1
 449 0 l 1,13,-1
 449 673 l 1,14,-1
 336 673 l 1,15,-1
 336 0 l 1,16,-1
 262 0 l 1,17,-1
 262 374 l 1,18,-1
 168 374 l 1,19,-1
 168 392 l 1,20,-1
 131 392 l 1,21,-1
 131 411 l 1,22,-1
 112 411 l 1,23,-1
 112 430 l 1,24,-1
 93 430 l 1,25,-1
 93 467 l 1,26,-1
 75 467 l 1,27,-1
 75 654 l 1,28,-1
 93 654 l 1,29,-1
 93 691 l 1,30,-1
 112 691 l 1,31,-1
 112 710 l 1,32,-1
 131 710 l 1,33,-1
 131 729 l 1,34,-1
 168 729 l 1,35,-1
 168 748 l 1,36,-1
 523 748 l 1,37,-1
 523 0 l 1,12,-1
EndSplineSet
EndChar

StartChar: MASCULINE
Encoding: 186 186 125
Width: 598
VWidth: 1196
GlyphClass: 1
Flags: HW
HStem: 299 75<181 417> 473 60<236 362> 690 60<236 362>
VStem: 181 55<533 690> 362 55<533 690>
LayerCount: 2
Fore
SplineSet
347 533 m 2,0,1
 353 533 353 533 357.5 537.5 c 128,-1,2
 362 542 362 542 362 548 c 2,3,-1
 362 674 l 2,4,5
 362 681 362 681 357.5 685.5 c 128,-1,6
 353 690 353 690 347 690 c 2,7,-1
 251 690 l 2,8,9
 245 690 245 690 240.5 685.5 c 128,-1,10
 236 681 236 681 236 674 c 2,11,-1
 236 548 l 2,12,13
 236 542 236 542 240.5 537.5 c 128,-1,14
 245 533 245 533 251 533 c 2,15,-1
 347 533 l 2,0,1
181 700 m 2,16,17
 181 721 181 721 195 735.5 c 128,-1,18
 209 750 209 750 230 750 c 2,19,-1
 368 750 l 2,20,21
 389 750 389 750 403 735.5 c 128,-1,22
 417 721 417 721 417 700 c 2,23,-1
 417 522 l 2,24,25
 417 502 417 502 403 487.5 c 128,-1,26
 389 473 389 473 368 473 c 2,27,-1
 230 473 l 2,28,29
 209 473 209 473 195 487.5 c 128,-1,30
 181 502 181 502 181 522 c 2,31,-1
 181 700 l 2,16,17
417 299 m 1,32,-1
 181 299 l 1,33,-1
 181 374 l 1,34,-1
 417 374 l 1,35,-1
 417 299 l 1,32,-1
EndSplineSet
EndChar

StartChar: RIGHT-POINTING
Encoding: 187 187 126
Width: 598
VWidth: 1196
GlyphClass: 1
Flags: HW
HStem: 75 374
LayerCount: 2
Fore
SplineSet
364 449 m 1,0,-1
 533 280 l 1,1,-1
 533 243 l 1,2,-1
 364 75 l 1,3,-1
 252 75 l 1,4,-1
 420 243 l 1,5,-1
 420 280 l 1,6,-1
 252 449 l 1,7,-1
 364 449 l 1,0,-1
346 243 m 1,8,-1
 178 75 l 1,9,-1
 65 75 l 1,10,-1
 234 243 l 1,11,-1
 234 280 l 1,12,-1
 65 449 l 1,13,-1
 178 449 l 1,14,-1
 346 280 l 1,15,-1
 346 243 l 1,8,-1
EndSplineSet
EndChar

StartChar: LATIN
Encoding: 198 198 137
Width: 598
VWidth: 1196
GlyphClass: 1
Flags: HW
HStem: 0 75<385 523> 336 75<160 288 385 523> 673 75<160 288 385 523>
VStem: 75 75<0 326 422 662> 299 75<86 326 422 662>
CounterMasks: 1 e0
LayerCount: 2
Fore
SplineSet
374 299 m 2,0,-1
 374 112 l 2,1,2
 374 96 374 96 384.5 85.5 c 128,-1,3
 395 75 395 75 411 75 c 2,4,-1
 523 75 l 1,5,-1
 523 0 l 1,6,-1
 299 0 l 1,7,-1
 299 299 l 2,8,9
 299 315 299 315 288.5 325.5 c 128,-1,10
 278 336 278 336 262 336 c 2,11,-1
 187 336 l 2,12,13
 171 336 171 336 160.5 325.5 c 128,-1,14
 150 315 150 315 150 299 c 2,15,-1
 150 0 l 1,16,-1
 75 0 l 1,17,-1
 75 654 l 2,18,19
 75 693 75 693 102.5 720.5 c 128,-1,20
 130 748 130 748 168 748 c 2,21,-1
 523 748 l 1,22,-1
 523 673 l 1,23,-1
 411 673 l 2,24,25
 395 673 395 673 384.5 662.5 c 128,-1,26
 374 652 374 652 374 635 c 2,27,-1
 374 449 l 2,28,29
 374 433 374 433 384.5 422 c 128,-1,30
 395 411 395 411 411 411 c 2,31,-1
 523 411 l 1,32,-1
 523 336 l 1,33,-1
 411 336 l 2,34,35
 395 336 395 336 384.5 325.5 c 128,-1,36
 374 315 374 315 374 299 c 2,0,-1
299 449 m 2,37,-1
 299 635 l 2,38,39
 299 651 299 651 288.5 662 c 128,-1,40
 278 673 278 673 262 673 c 2,41,-1
 187 673 l 2,42,43
 171 673 171 673 160.5 662.5 c 128,-1,44
 150 652 150 652 150 635 c 2,45,-1
 150 449 l 2,46,47
 150 433 150 433 160.5 422 c 128,-1,48
 171 411 171 411 187 411 c 2,49,-1
 262 411 l 2,50,51
 278 411 278 411 288.5 422 c 128,-1,52
 299 433 299 433 299 449 c 2,37,-1
EndSplineSet
EndChar

StartChar: LATIN
Encoding: 200 200 139
Width: 598
VWidth: 1196
GlyphClass: 1
Flags: HW
HStem: 0 75<187 523> 336 75<150 411> 673 75<187 523> 785 56<355 374> 785 37<374 392> 878 56<206 224> 897 37<187 206>
VStem: 75 93<93 112 635 654> 75 75<112 336 411 635> 93 93<75 93 654 673>
LayerCount: 2
Fore
SplineSet
392 785 m 1,0,-1
 299 785 l 1,1,-1
 299 804 l 1,2,-1
 280 804 l 1,3,-1
 280 822 l 1,4,-1
 262 822 l 1,5,-1
 262 841 l 1,6,-1
 243 841 l 1,7,-1
 243 860 l 1,8,-1
 224 860 l 1,9,-1
 224 878 l 1,10,-1
 206 878 l 1,11,-1
 206 897 l 1,12,-1
 187 897 l 1,13,-1
 187 934 l 1,14,-1
 280 934 l 1,15,-1
 280 916 l 1,16,-1
 299 916 l 1,17,-1
 299 897 l 1,18,-1
 318 897 l 1,19,-1
 318 878 l 1,20,-1
 336 878 l 1,21,-1
 336 860 l 1,22,-1
 355 860 l 1,23,-1
 355 841 l 1,24,-1
 374 841 l 1,25,-1
 374 822 l 1,26,-1
 392 822 l 1,27,-1
 392 785 l 1,0,-1
523 0 m 1,28,-1
 168 0 l 1,29,-1
 168 19 l 1,30,-1
 131 19 l 1,31,-1
 131 37 l 1,32,-1
 112 37 l 1,33,-1
 112 56 l 1,34,-1
 93 56 l 1,35,-1
 93 93 l 1,36,-1
 75 93 l 1,37,-1
 75 654 l 1,38,-1
 93 654 l 1,39,-1
 93 691 l 1,40,-1
 112 691 l 1,41,-1
 112 710 l 1,42,-1
 131 710 l 1,43,-1
 131 729 l 1,44,-1
 168 729 l 1,45,-1
 168 748 l 1,46,-1
 523 748 l 1,47,-1
 523 673 l 1,48,-1
 187 673 l 1,49,-1
 187 654 l 1,50,-1
 168 654 l 1,51,-1
 168 635 l 1,52,-1
 150 635 l 1,53,-1
 150 411 l 1,54,-1
 411 411 l 1,55,-1
 411 336 l 1,56,-1
 150 336 l 1,57,-1
 150 112 l 1,58,-1
 168 112 l 1,59,-1
 168 93 l 1,60,-1
 187 93 l 1,61,-1
 187 75 l 1,62,-1
 523 75 l 1,63,-1
 523 0 l 1,28,-1
EndSplineSet
EndChar

StartChar: LATIN
Encoding: 201 201 140
Width: 598
VWidth: 1196
GlyphClass: 1
Flags: HW
HStem: 0 75<187 523> 336 75<150 411> 673 75<187 523> 785 56<224 243> 785 37<206 224> 878 56<374 392> 897 37<392 411>
VStem: 75 93<93 112 635 654> 75 75<112 336 411 635> 93 93<75 93 654 673>
LayerCount: 2
Fore
SplineSet
299 785 m 1,0,-1
 206 785 l 1,1,-1
 206 822 l 1,2,-1
 224 822 l 1,3,-1
 224 841 l 1,4,-1
 243 841 l 1,5,-1
 243 860 l 1,6,-1
 262 860 l 1,7,-1
 262 878 l 1,8,-1
 280 878 l 1,9,-1
 280 897 l 1,10,-1
 299 897 l 1,11,-1
 299 916 l 1,12,-1
 318 916 l 1,13,-1
 318 934 l 1,14,-1
 411 934 l 1,15,-1
 411 897 l 1,16,-1
 392 897 l 1,17,-1
 392 878 l 1,18,-1
 374 878 l 1,19,-1
 374 860 l 1,20,-1
 355 860 l 1,21,-1
 355 841 l 1,22,-1
 336 841 l 1,23,-1
 336 822 l 1,24,-1
 318 822 l 1,25,-1
 318 804 l 1,26,-1
 299 804 l 1,27,-1
 299 785 l 1,0,-1
523 0 m 1,28,-1
 168 0 l 1,29,-1
 168 19 l 1,30,-1
 131 19 l 1,31,-1
 131 37 l 1,32,-1
 112 37 l 1,33,-1
 112 56 l 1,34,-1
 93 56 l 1,35,-1
 93 93 l 1,36,-1
 75 93 l 1,37,-1
 75 654 l 1,38,-1
 93 654 l 1,39,-1
 93 691 l 1,40,-1
 112 691 l 1,41,-1
 112 710 l 1,42,-1
 131 710 l 1,43,-1
 131 729 l 1,44,-1
 168 729 l 1,45,-1
 168 748 l 1,46,-1
 523 748 l 1,47,-1
 523 673 l 1,48,-1
 187 673 l 1,49,-1
 187 654 l 1,50,-1
 168 654 l 1,51,-1
 168 635 l 1,52,-1
 150 635 l 1,53,-1
 150 411 l 1,54,-1
 411 411 l 1,55,-1
 411 336 l 1,56,-1
 150 336 l 1,57,-1
 150 112 l 1,58,-1
 168 112 l 1,59,-1
 168 93 l 1,60,-1
 187 93 l 1,61,-1
 187 75 l 1,62,-1
 523 75 l 1,63,-1
 523 0 l 1,28,-1
EndSplineSet
EndChar

StartChar: LATIN
Encoding: 202 202 141
Width: 598
VWidth: 1196
GlyphClass: 1
Flags: HW
HStem: 0 75<187 523> 336 75<150 411> 673 75<187 523> 822 93<206 224 374 392> 822 75<187 206 392 411> 822 56<168 187 411 430> 822 37<150 168 430 449> 878 93<280 318>
VStem: 75 93<93 112 635 654> 75 75<112 336 411 635> 93 93<75 93 654 673>
LayerCount: 2
Fore
SplineSet
449 822 m 1,0,-1
 355 822 l 1,1,-1
 355 841 l 1,2,-1
 336 841 l 1,3,-1
 336 860 l 1,4,-1
 318 860 l 1,5,-1
 318 878 l 1,6,-1
 280 878 l 1,7,-1
 280 860 l 1,8,-1
 262 860 l 1,9,-1
 262 841 l 1,10,-1
 243 841 l 1,11,-1
 243 822 l 1,12,-1
 150 822 l 1,13,-1
 150 860 l 1,14,-1
 168 860 l 1,15,-1
 168 878 l 1,16,-1
 187 878 l 1,17,-1
 187 897 l 1,18,-1
 206 897 l 1,19,-1
 206 916 l 1,20,-1
 224 916 l 1,21,-1
 224 934 l 1,22,-1
 243 934 l 1,23,-1
 243 953 l 1,24,-1
 262 953 l 1,25,-1
 262 972 l 1,26,-1
 336 972 l 1,27,-1
 336 953 l 1,28,-1
 355 953 l 1,29,-1
 355 934 l 1,30,-1
 374 934 l 1,31,-1
 374 916 l 1,32,-1
 392 916 l 1,33,-1
 392 897 l 1,34,-1
 411 897 l 1,35,-1
 411 878 l 1,36,-1
 430 878 l 1,37,-1
 430 860 l 1,38,-1
 449 860 l 1,39,-1
 449 822 l 1,0,-1
523 0 m 1,40,-1
 168 0 l 1,41,-1
 168 19 l 1,42,-1
 131 19 l 1,43,-1
 131 37 l 1,44,-1
 112 37 l 1,45,-1
 112 56 l 1,46,-1
 93 56 l 1,47,-1
 93 93 l 1,48,-1
 75 93 l 1,49,-1
 75 654 l 1,50,-1
 93 654 l 1,51,-1
 93 691 l 1,52,-1
 112 691 l 1,53,-1
 112 710 l 1,54,-1
 131 710 l 1,55,-1
 131 729 l 1,56,-1
 168 729 l 1,57,-1
 168 748 l 1,58,-1
 523 748 l 1,59,-1
 523 673 l 1,60,-1
 187 673 l 1,61,-1
 187 654 l 1,62,-1
 168 654 l 1,63,-1
 168 635 l 1,64,-1
 150 635 l 1,65,-1
 150 411 l 1,66,-1
 411 411 l 1,67,-1
 411 336 l 1,68,-1
 150 336 l 1,69,-1
 150 112 l 1,70,-1
 168 112 l 1,71,-1
 168 93 l 1,72,-1
 187 93 l 1,73,-1
 187 75 l 1,74,-1
 523 75 l 1,75,-1
 523 0 l 1,40,-1
EndSplineSet
EndChar

StartChar: LATIN
Encoding: 203 203 142
Width: 598
VWidth: 1196
GlyphClass: 1
Flags: HW
HStem: 0 75<187 523> 336 75<150 411> 673 75<187 523> 822 112<150 224 374 449>
VStem: 75 93<93 112 635 654> 75 75<112 336 411 635> 93 93<75 93 654 673> 150 75<822 934> 374 75<822 934>
LayerCount: 2
Fore
SplineSet
224 822 m 1,0,-1
 150 822 l 1,1,-1
 150 934 l 1,2,-1
 224 934 l 1,3,-1
 224 822 l 1,0,-1
449 822 m 1,4,-1
 374 822 l 1,5,-1
 374 934 l 1,6,-1
 449 934 l 1,7,-1
 449 822 l 1,4,-1
523 0 m 1,8,-1
 168 0 l 1,9,-1
 168 19 l 1,10,-1
 131 19 l 1,11,-1
 131 37 l 1,12,-1
 112 37 l 1,13,-1
 112 56 l 1,14,-1
 93 56 l 1,15,-1
 93 93 l 1,16,-1
 75 93 l 1,17,-1
 75 654 l 1,18,-1
 93 654 l 1,19,-1
 93 691 l 1,20,-1
 112 691 l 1,21,-1
 112 710 l 1,22,-1
 131 710 l 1,23,-1
 131 729 l 1,24,-1
 168 729 l 1,25,-1
 168 748 l 1,26,-1
 523 748 l 1,27,-1
 523 673 l 1,28,-1
 187 673 l 1,29,-1
 187 654 l 1,30,-1
 168 654 l 1,31,-1
 168 635 l 1,32,-1
 150 635 l 1,33,-1
 150 411 l 1,34,-1
 411 411 l 1,35,-1
 411 336 l 1,36,-1
 150 336 l 1,37,-1
 150 112 l 1,38,-1
 168 112 l 1,39,-1
 168 93 l 1,40,-1
 187 93 l 1,41,-1
 187 75 l 1,42,-1
 523 75 l 1,43,-1
 523 0 l 1,8,-1
EndSplineSet
EndChar

StartChar: LATIN
Encoding: 204 204 143
Width: 598
VWidth: 1196
GlyphClass: 1
Flags: HW
HStem: 0 75<112 262 336 486> 673 75<112 262 336 486> 785 56<355 374> 785 37<374 392> 878 56<206 224> 897 37<187 206>
VStem: 262 75<75 673>
LayerCount: 2
Fore
SplineSet
392 785 m 1,0,-1
 299 785 l 1,1,-1
 299 804 l 1,2,-1
 280 804 l 1,3,-1
 280 822 l 1,4,-1
 262 822 l 1,5,-1
 262 841 l 1,6,-1
 243 841 l 1,7,-1
 243 860 l 1,8,-1
 224 860 l 1,9,-1
 224 878 l 1,10,-1
 206 878 l 1,11,-1
 206 897 l 1,12,-1
 187 897 l 1,13,-1
 187 934 l 1,14,-1
 280 934 l 1,15,-1
 280 916 l 1,16,-1
 299 916 l 1,17,-1
 299 897 l 1,18,-1
 318 897 l 1,19,-1
 318 878 l 1,20,-1
 336 878 l 1,21,-1
 336 860 l 1,22,-1
 355 860 l 1,23,-1
 355 841 l 1,24,-1
 374 841 l 1,25,-1
 374 822 l 1,26,-1
 392 822 l 1,27,-1
 392 785 l 1,0,-1
486 0 m 1,28,-1
 112 0 l 1,29,-1
 112 75 l 1,30,-1
 262 75 l 1,31,-1
 262 673 l 1,32,-1
 112 673 l 1,33,-1
 112 748 l 1,34,-1
 486 748 l 1,35,-1
 486 673 l 1,36,-1
 336 673 l 1,37,-1
 336 75 l 1,38,-1
 486 75 l 1,39,-1
 486 0 l 1,28,-1
EndSplineSet
EndChar

StartChar: LATIN
Encoding: 205 205 144
Width: 598
VWidth: 1196
GlyphClass: 1
Flags: HW
HStem: 0 75<112 262 336 486> 673 75<112 262 336 486> 785 56<224 243> 785 37<206 224> 878 56<374 392> 897 37<392 411>
VStem: 262 75<75 673>
LayerCount: 2
Fore
SplineSet
299 785 m 1,0,-1
 206 785 l 1,1,-1
 206 822 l 1,2,-1
 224 822 l 1,3,-1
 224 841 l 1,4,-1
 243 841 l 1,5,-1
 243 860 l 1,6,-1
 262 860 l 1,7,-1
 262 878 l 1,8,-1
 280 878 l 1,9,-1
 280 897 l 1,10,-1
 299 897 l 1,11,-1
 299 916 l 1,12,-1
 318 916 l 1,13,-1
 318 934 l 1,14,-1
 411 934 l 1,15,-1
 411 897 l 1,16,-1
 392 897 l 1,17,-1
 392 878 l 1,18,-1
 374 878 l 1,19,-1
 374 860 l 1,20,-1
 355 860 l 1,21,-1
 355 841 l 1,22,-1
 336 841 l 1,23,-1
 336 822 l 1,24,-1
 318 822 l 1,25,-1
 318 804 l 1,26,-1
 299 804 l 1,27,-1
 299 785 l 1,0,-1
486 0 m 1,28,-1
 112 0 l 1,29,-1
 112 75 l 1,30,-1
 262 75 l 1,31,-1
 262 673 l 1,32,-1
 112 673 l 1,33,-1
 112 748 l 1,34,-1
 486 748 l 1,35,-1
 486 673 l 1,36,-1
 336 673 l 1,37,-1
 336 75 l 1,38,-1
 486 75 l 1,39,-1
 486 0 l 1,28,-1
EndSplineSet
EndChar

StartChar: LATIN
Encoding: 206 206 145
Width: 598
VWidth: 1196
GlyphClass: 1
Flags: HW
HStem: 0 75<112 262 336 486> 673 75<112 262 336 486> 822 93<206 224 374 392> 822 75<187 206 392 411> 822 56<168 187 411 430> 822 37<150 168 430 449> 878 93<280 318>
VStem: 262 75<75 673 953 972>
LayerCount: 2
Fore
SplineSet
449 822 m 1,0,-1
 355 822 l 1,1,-1
 355 841 l 1,2,-1
 336 841 l 1,3,-1
 336 860 l 1,4,-1
 318 860 l 1,5,-1
 318 878 l 1,6,-1
 280 878 l 1,7,-1
 280 860 l 1,8,-1
 262 860 l 1,9,-1
 262 841 l 1,10,-1
 243 841 l 1,11,-1
 243 822 l 1,12,-1
 150 822 l 1,13,-1
 150 860 l 1,14,-1
 168 860 l 1,15,-1
 168 878 l 1,16,-1
 187 878 l 1,17,-1
 187 897 l 1,18,-1
 206 897 l 1,19,-1
 206 916 l 1,20,-1
 224 916 l 1,21,-1
 224 934 l 1,22,-1
 243 934 l 1,23,-1
 243 953 l 1,24,-1
 262 953 l 1,25,-1
 262 972 l 1,26,-1
 336 972 l 1,27,-1
 336 953 l 1,28,-1
 355 953 l 1,29,-1
 355 934 l 1,30,-1
 374 934 l 1,31,-1
 374 916 l 1,32,-1
 392 916 l 1,33,-1
 392 897 l 1,34,-1
 411 897 l 1,35,-1
 411 878 l 1,36,-1
 430 878 l 1,37,-1
 430 860 l 1,38,-1
 449 860 l 1,39,-1
 449 822 l 1,0,-1
486 0 m 1,40,-1
 112 0 l 1,41,-1
 112 75 l 1,42,-1
 262 75 l 1,43,-1
 262 673 l 1,44,-1
 112 673 l 1,45,-1
 112 748 l 1,46,-1
 486 748 l 1,47,-1
 486 673 l 1,48,-1
 336 673 l 1,49,-1
 336 75 l 1,50,-1
 486 75 l 1,51,-1
 486 0 l 1,40,-1
EndSplineSet
EndChar

StartChar: LATIN
Encoding: 207 207 146
Width: 598
VWidth: 1196
GlyphClass: 1
Flags: HW
HStem: 0 75<112 262 336 486> 673 75<112 262 336 486> 822 112<150 224 374 449>
VStem: 150 75<822 934> 262 75<75 673> 374 75<822 934>
CounterMasks: 1 1c
LayerCount: 2
Fore
SplineSet
224 822 m 1,0,-1
 150 822 l 1,1,-1
 150 934 l 1,2,-1
 224 934 l 1,3,-1
 224 822 l 1,0,-1
449 822 m 1,4,-1
 374 822 l 1,5,-1
 374 934 l 1,6,-1
 449 934 l 1,7,-1
 449 822 l 1,4,-1
486 0 m 1,8,-1
 112 0 l 1,9,-1
 112 75 l 1,10,-1
 262 75 l 1,11,-1
 262 673 l 1,12,-1
 112 673 l 1,13,-1
 112 748 l 1,14,-1
 486 748 l 1,15,-1
 486 673 l 1,16,-1
 336 673 l 1,17,-1
 336 75 l 1,18,-1
 486 75 l 1,19,-1
 486 0 l 1,8,-1
EndSplineSet
EndChar

StartChar: LATIN
Encoding: 208 208 147
Width: 598
VWidth: 1196
GlyphClass: 1
Flags: HW
HStem: 0 75<150 411> 336 75<0 75 150 299> 673 75<150 411>
VStem: 75 75<75 336 411 673> 411 93<75 93 654 673> 430 93<93 112 635 654> 449 75<112 635>
CounterMasks: 1 e0
LayerCount: 2
Fore
SplineSet
150 75 m 1,0,-1
 411 75 l 1,1,-1
 411 93 l 1,2,-1
 430 93 l 1,3,-1
 430 112 l 1,4,-1
 449 112 l 1,5,-1
 449 635 l 1,6,-1
 430 635 l 1,7,-1
 430 654 l 1,8,-1
 411 654 l 1,9,-1
 411 673 l 1,10,-1
 150 673 l 1,11,-1
 150 411 l 1,12,-1
 299 411 l 1,13,-1
 299 336 l 1,14,-1
 150 336 l 1,15,-1
 150 75 l 1,0,-1
430 0 m 1,16,-1
 75 0 l 1,17,-1
 75 336 l 1,18,-1
 0 336 l 1,19,-1
 0 411 l 1,20,-1
 75 411 l 1,21,-1
 75 748 l 1,22,-1
 430 748 l 1,23,-1
 430 729 l 1,24,-1
 467 729 l 1,25,-1
 467 710 l 1,26,-1
 486 710 l 1,27,-1
 486 691 l 1,28,-1
 505 691 l 1,29,-1
 505 654 l 1,30,-1
 523 654 l 1,31,-1
 523 93 l 1,32,-1
 505 93 l 1,33,-1
 505 56 l 1,34,-1
 486 56 l 1,35,-1
 486 37 l 1,36,-1
 467 37 l 1,37,-1
 467 19 l 1,38,-1
 430 19 l 1,39,-1
 430 0 l 1,16,-1
EndSplineSet
EndChar

StartChar: LATIN
Encoding: 209 209 148
Width: 598
VWidth: 1196
GlyphClass: 1
Flags: HW
HStem: 0 25G<75 150 411 523> 724 23G<75 150 449 523> 785 93<93 112 336 355 411 430> 785 75<75 93 355 411> 841 93<168 187 243 262 486 505> 860 75<187 243 505 523>
VStem: 75 112<635 673 841 860> 75 93<673 710 822 841> 75 75<0 523 710 748 785 822> 168 93<486 523> 187 93<449 486> 206 93<411 449> 224 93<374 411> 243 93<336 374> 262 93<299 336> 280 93<262 299> 299 93<224 262> 318 93<187 224> 336 93<150 187> 411 112<0 37 860 878> 449 75<150 748 897 934>
LayerCount: 2
Fore
SplineSet
430 785 m 1,0,-1
 318 785 l 1,1,-1
 318 804 l 1,2,-1
 280 804 l 1,3,-1
 280 822 l 1,4,-1
 262 822 l 1,5,-1
 262 841 l 1,6,-1
 243 841 l 1,7,-1
 243 860 l 1,8,-1
 187 860 l 1,9,-1
 187 841 l 1,10,-1
 168 841 l 1,11,-1
 168 822 l 1,12,-1
 150 822 l 1,13,-1
 150 785 l 1,14,-1
 75 785 l 1,15,-1
 75 860 l 1,16,-1
 93 860 l 1,17,-1
 93 878 l 1,18,-1
 112 878 l 1,19,-1
 112 897 l 1,20,-1
 131 897 l 1,21,-1
 131 916 l 1,22,-1
 168 916 l 1,23,-1
 168 934 l 1,24,-1
 280 934 l 1,25,-1
 280 916 l 1,26,-1
 318 916 l 1,27,-1
 318 897 l 1,28,-1
 336 897 l 1,29,-1
 336 878 l 1,30,-1
 355 878 l 1,31,-1
 355 860 l 1,32,-1
 411 860 l 1,33,-1
 411 878 l 1,34,-1
 430 878 l 1,35,-1
 430 897 l 1,36,-1
 449 897 l 1,37,-1
 449 934 l 1,38,-1
 523 934 l 1,39,-1
 523 860 l 1,40,-1
 505 860 l 1,41,-1
 505 841 l 1,42,-1
 486 841 l 1,43,-1
 486 822 l 1,44,-1
 467 822 l 1,45,-1
 467 804 l 1,46,-1
 430 804 l 1,47,-1
 430 785 l 1,0,-1
523 0 m 1,48,-1
 411 0 l 1,49,-1
 411 37 l 1,50,-1
 392 37 l 1,51,-1
 392 75 l 1,52,-1
 374 75 l 1,53,-1
 374 112 l 1,54,-1
 355 112 l 1,55,-1
 355 150 l 1,56,-1
 336 150 l 1,57,-1
 336 187 l 1,58,-1
 318 187 l 1,59,-1
 318 224 l 1,60,-1
 299 224 l 1,61,-1
 299 262 l 1,62,-1
 280 262 l 1,63,-1
 280 299 l 1,64,-1
 262 299 l 1,65,-1
 262 336 l 1,66,-1
 243 336 l 1,67,-1
 243 374 l 1,68,-1
 224 374 l 1,69,-1
 224 411 l 1,70,-1
 206 411 l 1,71,-1
 206 449 l 1,72,-1
 187 449 l 1,73,-1
 187 486 l 1,74,-1
 168 486 l 1,75,-1
 168 523 l 1,76,-1
 150 523 l 1,77,-1
 150 0 l 1,78,-1
 75 0 l 1,79,-1
 75 748 l 1,80,-1
 150 748 l 1,81,-1
 150 710 l 1,82,-1
 168 710 l 1,83,-1
 168 673 l 1,84,-1
 187 673 l 1,85,-1
 187 635 l 1,86,-1
 206 635 l 1,87,-1
 206 598 l 1,88,-1
 224 598 l 1,89,-1
 224 561 l 1,90,-1
 243 561 l 1,91,-1
 243 523 l 1,92,-1
 262 523 l 1,93,-1
 262 486 l 1,94,-1
 280 486 l 1,95,-1
 280 449 l 1,96,-1
 299 449 l 1,97,-1
 299 411 l 1,98,-1
 318 411 l 1,99,-1
 318 374 l 1,100,-1
 336 374 l 1,101,-1
 336 336 l 1,102,-1
 355 336 l 1,103,-1
 355 299 l 1,104,-1
 374 299 l 1,105,-1
 374 262 l 1,106,-1
 392 262 l 1,107,-1
 392 224 l 1,108,-1
 411 224 l 1,109,-1
 411 187 l 1,110,-1
 430 187 l 1,111,-1
 430 150 l 1,112,-1
 449 150 l 1,113,-1
 449 748 l 1,114,-1
 523 748 l 1,115,-1
 523 0 l 1,48,-1
EndSplineSet
EndChar

StartChar: LATIN
Encoding: 210 210 149
Width: 598
VWidth: 1196
GlyphClass: 1
Flags: HW
HStem: 0 93<168 187 411 430> 0 75<187 411> 19 93<150 168 430 449> 635 93<150 168 430 449> 654 93<168 187 411 430> 673 75<187 411> 785 56<355 374> 785 37<374 392> 878 56<206 224> 897 37<187 206>
VStem: 75 93<93 112 635 654> 75 75<112 635> 93 93<75 93 654 673> 411 93<75 93 654 673> 430 93<93 112 635 654> 449 75<112 635>
LayerCount: 2
Fore
SplineSet
392 785 m 1,0,-1
 299 785 l 1,1,-1
 299 804 l 1,2,-1
 280 804 l 1,3,-1
 280 822 l 1,4,-1
 262 822 l 1,5,-1
 262 841 l 1,6,-1
 243 841 l 1,7,-1
 243 860 l 1,8,-1
 224 860 l 1,9,-1
 224 878 l 1,10,-1
 206 878 l 1,11,-1
 206 897 l 1,12,-1
 187 897 l 1,13,-1
 187 934 l 1,14,-1
 280 934 l 1,15,-1
 280 916 l 1,16,-1
 299 916 l 1,17,-1
 299 897 l 1,18,-1
 318 897 l 1,19,-1
 318 878 l 1,20,-1
 336 878 l 1,21,-1
 336 860 l 1,22,-1
 355 860 l 1,23,-1
 355 841 l 1,24,-1
 374 841 l 1,25,-1
 374 822 l 1,26,-1
 392 822 l 1,27,-1
 392 785 l 1,0,-1
187 75 m 1,28,-1
 411 75 l 1,29,-1
 411 93 l 1,30,-1
 430 93 l 1,31,-1
 430 112 l 1,32,-1
 449 112 l 1,33,-1
 449 635 l 1,34,-1
 430 635 l 1,35,-1
 430 654 l 1,36,-1
 411 654 l 1,37,-1
 411 673 l 1,38,-1
 187 673 l 1,39,-1
 187 654 l 1,40,-1
 168 654 l 1,41,-1
 168 635 l 1,42,-1
 150 635 l 1,43,-1
 150 112 l 1,44,-1
 168 112 l 1,45,-1
 168 93 l 1,46,-1
 187 93 l 1,47,-1
 187 75 l 1,28,-1
430 0 m 1,48,-1
 168 0 l 1,49,-1
 168 19 l 1,50,-1
 131 19 l 1,51,-1
 131 37 l 1,52,-1
 112 37 l 1,53,-1
 112 56 l 1,54,-1
 93 56 l 1,55,-1
 93 93 l 1,56,-1
 75 93 l 1,57,-1
 75 654 l 1,58,-1
 93 654 l 1,59,-1
 93 691 l 1,60,-1
 112 691 l 1,61,-1
 112 710 l 1,62,-1
 131 710 l 1,63,-1
 131 729 l 1,64,-1
 168 729 l 1,65,-1
 168 748 l 1,66,-1
 430 748 l 1,67,-1
 430 729 l 1,68,-1
 467 729 l 1,69,-1
 467 710 l 1,70,-1
 486 710 l 1,71,-1
 486 691 l 1,72,-1
 505 691 l 1,73,-1
 505 654 l 1,74,-1
 523 654 l 1,75,-1
 523 93 l 1,76,-1
 505 93 l 1,77,-1
 505 56 l 1,78,-1
 486 56 l 1,79,-1
 486 37 l 1,80,-1
 467 37 l 1,81,-1
 467 19 l 1,82,-1
 430 19 l 1,83,-1
 430 0 l 1,48,-1
EndSplineSet
EndChar

StartChar: LATIN
Encoding: 211 211 150
Width: 598
VWidth: 1196
GlyphClass: 1
Flags: HW
HStem: 0 93<168 187 411 430> 0 75<187 411> 19 93<150 168 430 449> 635 93<150 168 430 449> 654 93<168 187 411 430> 673 75<187 411> 785 56<224 243> 785 37<206 224> 878 56<374 392> 897 37<392 411>
VStem: 75 93<93 112 635 654> 75 75<112 635> 93 93<75 93 654 673> 411 93<75 93 654 673> 430 93<93 112 635 654> 449 75<112 635>
LayerCount: 2
Fore
SplineSet
299 785 m 1,0,-1
 206 785 l 1,1,-1
 206 822 l 1,2,-1
 224 822 l 1,3,-1
 224 841 l 1,4,-1
 243 841 l 1,5,-1
 243 860 l 1,6,-1
 262 860 l 1,7,-1
 262 878 l 1,8,-1
 280 878 l 1,9,-1
 280 897 l 1,10,-1
 299 897 l 1,11,-1
 299 916 l 1,12,-1
 318 916 l 1,13,-1
 318 934 l 1,14,-1
 411 934 l 1,15,-1
 411 897 l 1,16,-1
 392 897 l 1,17,-1
 392 878 l 1,18,-1
 374 878 l 1,19,-1
 374 860 l 1,20,-1
 355 860 l 1,21,-1
 355 841 l 1,22,-1
 336 841 l 1,23,-1
 336 822 l 1,24,-1
 318 822 l 1,25,-1
 318 804 l 1,26,-1
 299 804 l 1,27,-1
 299 785 l 1,0,-1
187 75 m 1,28,-1
 411 75 l 1,29,-1
 411 93 l 1,30,-1
 430 93 l 1,31,-1
 430 112 l 1,32,-1
 449 112 l 1,33,-1
 449 635 l 1,34,-1
 430 635 l 1,35,-1
 430 654 l 1,36,-1
 411 654 l 1,37,-1
 411 673 l 1,38,-1
 187 673 l 1,39,-1
 187 654 l 1,40,-1
 168 654 l 1,41,-1
 168 635 l 1,42,-1
 150 635 l 1,43,-1
 150 112 l 1,44,-1
 168 112 l 1,45,-1
 168 93 l 1,46,-1
 187 93 l 1,47,-1
 187 75 l 1,28,-1
430 0 m 1,48,-1
 168 0 l 1,49,-1
 168 19 l 1,50,-1
 131 19 l 1,51,-1
 131 37 l 1,52,-1
 112 37 l 1,53,-1
 112 56 l 1,54,-1
 93 56 l 1,55,-1
 93 93 l 1,56,-1
 75 93 l 1,57,-1
 75 654 l 1,58,-1
 93 654 l 1,59,-1
 93 691 l 1,60,-1
 112 691 l 1,61,-1
 112 710 l 1,62,-1
 131 710 l 1,63,-1
 131 729 l 1,64,-1
 168 729 l 1,65,-1
 168 748 l 1,66,-1
 430 748 l 1,67,-1
 430 729 l 1,68,-1
 467 729 l 1,69,-1
 467 710 l 1,70,-1
 486 710 l 1,71,-1
 486 691 l 1,72,-1
 505 691 l 1,73,-1
 505 654 l 1,74,-1
 523 654 l 1,75,-1
 523 93 l 1,76,-1
 505 93 l 1,77,-1
 505 56 l 1,78,-1
 486 56 l 1,79,-1
 486 37 l 1,80,-1
 467 37 l 1,81,-1
 467 19 l 1,82,-1
 430 19 l 1,83,-1
 430 0 l 1,48,-1
EndSplineSet
EndChar

StartChar: LATIN
Encoding: 212 212 151
Width: 598
VWidth: 1196
GlyphClass: 1
Flags: HW
HStem: 0 93<168 187 411 430> 0 75<187 411> 19 93<150 168 430 449> 635 93<150 168 430 449> 654 93<168 187 411 430> 673 75<187 411> 822 93<206 224 374 392> 822 75<187 206 392 411> 822 56<168 187 411 430> 822 37<150 168 430 449> 878 93<280 318>
VStem: 75 93<93 112 635 654> 75 75<112 635> 93 93<75 93 654 673> 411 93<75 93 654 673> 430 93<93 112 635 654> 449 75<112 635>
LayerCount: 2
Fore
SplineSet
449 822 m 1,0,-1
 355 822 l 1,1,-1
 355 841 l 1,2,-1
 336 841 l 1,3,-1
 336 860 l 1,4,-1
 318 860 l 1,5,-1
 318 878 l 1,6,-1
 280 878 l 1,7,-1
 280 860 l 1,8,-1
 262 860 l 1,9,-1
 262 841 l 1,10,-1
 243 841 l 1,11,-1
 243 822 l 1,12,-1
 150 822 l 1,13,-1
 150 860 l 1,14,-1
 168 860 l 1,15,-1
 168 878 l 1,16,-1
 187 878 l 1,17,-1
 187 897 l 1,18,-1
 206 897 l 1,19,-1
 206 916 l 1,20,-1
 224 916 l 1,21,-1
 224 934 l 1,22,-1
 243 934 l 1,23,-1
 243 953 l 1,24,-1
 262 953 l 1,25,-1
 262 972 l 1,26,-1
 336 972 l 1,27,-1
 336 953 l 1,28,-1
 355 953 l 1,29,-1
 355 934 l 1,30,-1
 374 934 l 1,31,-1
 374 916 l 1,32,-1
 392 916 l 1,33,-1
 392 897 l 1,34,-1
 411 897 l 1,35,-1
 411 878 l 1,36,-1
 430 878 l 1,37,-1
 430 860 l 1,38,-1
 449 860 l 1,39,-1
 449 822 l 1,0,-1
187 75 m 1,40,-1
 411 75 l 1,41,-1
 411 93 l 1,42,-1
 430 93 l 1,43,-1
 430 112 l 1,44,-1
 449 112 l 1,45,-1
 449 635 l 1,46,-1
 430 635 l 1,47,-1
 430 654 l 1,48,-1
 411 654 l 1,49,-1
 411 673 l 1,50,-1
 187 673 l 1,51,-1
 187 654 l 1,52,-1
 168 654 l 1,53,-1
 168 635 l 1,54,-1
 150 635 l 1,55,-1
 150 112 l 1,56,-1
 168 112 l 1,57,-1
 168 93 l 1,58,-1
 187 93 l 1,59,-1
 187 75 l 1,40,-1
430 0 m 1,60,-1
 168 0 l 1,61,-1
 168 19 l 1,62,-1
 131 19 l 1,63,-1
 131 37 l 1,64,-1
 112 37 l 1,65,-1
 112 56 l 1,66,-1
 93 56 l 1,67,-1
 93 93 l 1,68,-1
 75 93 l 1,69,-1
 75 654 l 1,70,-1
 93 654 l 1,71,-1
 93 691 l 1,72,-1
 112 691 l 1,73,-1
 112 710 l 1,74,-1
 131 710 l 1,75,-1
 131 729 l 1,76,-1
 168 729 l 1,77,-1
 168 748 l 1,78,-1
 430 748 l 1,79,-1
 430 729 l 1,80,-1
 467 729 l 1,81,-1
 467 710 l 1,82,-1
 486 710 l 1,83,-1
 486 691 l 1,84,-1
 505 691 l 1,85,-1
 505 654 l 1,86,-1
 523 654 l 1,87,-1
 523 93 l 1,88,-1
 505 93 l 1,89,-1
 505 56 l 1,90,-1
 486 56 l 1,91,-1
 486 37 l 1,92,-1
 467 37 l 1,93,-1
 467 19 l 1,94,-1
 430 19 l 1,95,-1
 430 0 l 1,60,-1
EndSplineSet
EndChar

StartChar: LATIN
Encoding: 213 213 152
Width: 598
VWidth: 1196
GlyphClass: 1
Flags: HW
HStem: 0 93<168 187 411 430> 0 75<187 411> 19 93<150 168 430 449> 635 93<150 168 430 449> 654 93<168 187 411 430> 673 75<187 411> 785 93<93 112 336 355 411 430> 785 75<75 93 355 411> 841 93<168 187 243 262 486 505> 860 75<187 243 505 523>
VStem: 75 93<93 112 635 654 822 841> 75 75<112 635 785 822> 93 93<75 93 654 673> 411 93<75 93 654 673> 430 93<93 112 635 654 878 897> 449 75<112 635 897 934>
LayerCount: 2
Fore
SplineSet
430 785 m 1,0,-1
 318 785 l 1,1,-1
 318 804 l 1,2,-1
 280 804 l 1,3,-1
 280 822 l 1,4,-1
 262 822 l 1,5,-1
 262 841 l 1,6,-1
 243 841 l 1,7,-1
 243 860 l 1,8,-1
 187 860 l 1,9,-1
 187 841 l 1,10,-1
 168 841 l 1,11,-1
 168 822 l 1,12,-1
 150 822 l 1,13,-1
 150 785 l 1,14,-1
 75 785 l 1,15,-1
 75 860 l 1,16,-1
 93 860 l 1,17,-1
 93 878 l 1,18,-1
 112 878 l 1,19,-1
 112 897 l 1,20,-1
 131 897 l 1,21,-1
 131 916 l 1,22,-1
 168 916 l 1,23,-1
 168 934 l 1,24,-1
 280 934 l 1,25,-1
 280 916 l 1,26,-1
 318 916 l 1,27,-1
 318 897 l 1,28,-1
 336 897 l 1,29,-1
 336 878 l 1,30,-1
 355 878 l 1,31,-1
 355 860 l 1,32,-1
 411 860 l 1,33,-1
 411 878 l 1,34,-1
 430 878 l 1,35,-1
 430 897 l 1,36,-1
 449 897 l 1,37,-1
 449 934 l 1,38,-1
 523 934 l 1,39,-1
 523 860 l 1,40,-1
 505 860 l 1,41,-1
 505 841 l 1,42,-1
 486 841 l 1,43,-1
 486 822 l 1,44,-1
 467 822 l 1,45,-1
 467 804 l 1,46,-1
 430 804 l 1,47,-1
 430 785 l 1,0,-1
187 75 m 1,48,-1
 411 75 l 1,49,-1
 411 93 l 1,50,-1
 430 93 l 1,51,-1
 430 112 l 1,52,-1
 449 112 l 1,53,-1
 449 635 l 1,54,-1
 430 635 l 1,55,-1
 430 654 l 1,56,-1
 411 654 l 1,57,-1
 411 673 l 1,58,-1
 187 673 l 1,59,-1
 187 654 l 1,60,-1
 168 654 l 1,61,-1
 168 635 l 1,62,-1
 150 635 l 1,63,-1
 150 112 l 1,64,-1
 168 112 l 1,65,-1
 168 93 l 1,66,-1
 187 93 l 1,67,-1
 187 75 l 1,48,-1
430 0 m 1,68,-1
 168 0 l 1,69,-1
 168 19 l 1,70,-1
 131 19 l 1,71,-1
 131 37 l 1,72,-1
 112 37 l 1,73,-1
 112 56 l 1,74,-1
 93 56 l 1,75,-1
 93 93 l 1,76,-1
 75 93 l 1,77,-1
 75 654 l 1,78,-1
 93 654 l 1,79,-1
 93 691 l 1,80,-1
 112 691 l 1,81,-1
 112 710 l 1,82,-1
 131 710 l 1,83,-1
 131 729 l 1,84,-1
 168 729 l 1,85,-1
 168 748 l 1,86,-1
 430 748 l 1,87,-1
 430 729 l 1,88,-1
 467 729 l 1,89,-1
 467 710 l 1,90,-1
 486 710 l 1,91,-1
 486 691 l 1,92,-1
 505 691 l 1,93,-1
 505 654 l 1,94,-1
 523 654 l 1,95,-1
 523 93 l 1,96,-1
 505 93 l 1,97,-1
 505 56 l 1,98,-1
 486 56 l 1,99,-1
 486 37 l 1,100,-1
 467 37 l 1,101,-1
 467 19 l 1,102,-1
 430 19 l 1,103,-1
 430 0 l 1,68,-1
EndSplineSet
EndChar

StartChar: LATIN
Encoding: 214 214 153
Width: 598
VWidth: 1196
GlyphClass: 1
Flags: HW
HStem: 0 93<168 187 411 430> 0 75<187 411> 19 93<150 168 430 449> 635 93<150 168 430 449> 654 93<168 187 411 430> 673 75<187 411> 822 112<150 224 374 449>
VStem: 75 93<93 112 635 654> 75 75<112 635> 93 93<75 93 654 673> 150 75<822 934> 374 75<822 934> 411 93<75 93 654 673> 430 93<93 112 635 654> 449 75<112 635>
LayerCount: 2
Fore
SplineSet
224 822 m 1,0,-1
 150 822 l 1,1,-1
 150 934 l 1,2,-1
 224 934 l 1,3,-1
 224 822 l 1,0,-1
449 822 m 1,4,-1
 374 822 l 1,5,-1
 374 934 l 1,6,-1
 449 934 l 1,7,-1
 449 822 l 1,4,-1
187 75 m 1,8,-1
 411 75 l 1,9,-1
 411 93 l 1,10,-1
 430 93 l 1,11,-1
 430 112 l 1,12,-1
 449 112 l 1,13,-1
 449 635 l 1,14,-1
 430 635 l 1,15,-1
 430 654 l 1,16,-1
 411 654 l 1,17,-1
 411 673 l 1,18,-1
 187 673 l 1,19,-1
 187 654 l 1,20,-1
 168 654 l 1,21,-1
 168 635 l 1,22,-1
 150 635 l 1,23,-1
 150 112 l 1,24,-1
 168 112 l 1,25,-1
 168 93 l 1,26,-1
 187 93 l 1,27,-1
 187 75 l 1,8,-1
430 0 m 1,28,-1
 168 0 l 1,29,-1
 168 19 l 1,30,-1
 131 19 l 1,31,-1
 131 37 l 1,32,-1
 112 37 l 1,33,-1
 112 56 l 1,34,-1
 93 56 l 1,35,-1
 93 93 l 1,36,-1
 75 93 l 1,37,-1
 75 654 l 1,38,-1
 93 654 l 1,39,-1
 93 691 l 1,40,-1
 112 691 l 1,41,-1
 112 710 l 1,42,-1
 131 710 l 1,43,-1
 131 729 l 1,44,-1
 168 729 l 1,45,-1
 168 748 l 1,46,-1
 430 748 l 1,47,-1
 430 729 l 1,48,-1
 467 729 l 1,49,-1
 467 710 l 1,50,-1
 486 710 l 1,51,-1
 486 691 l 1,52,-1
 505 691 l 1,53,-1
 505 654 l 1,54,-1
 523 654 l 1,55,-1
 523 93 l 1,56,-1
 505 93 l 1,57,-1
 505 56 l 1,58,-1
 486 56 l 1,59,-1
 486 37 l 1,60,-1
 467 37 l 1,61,-1
 467 19 l 1,62,-1
 430 19 l 1,63,-1
 430 0 l 1,28,-1
EndSplineSet
EndChar

StartChar: MULTIPLICATION
Encoding: 215 215 154
Width: 598
VWidth: 1196
GlyphClass: 1
Flags: HW
LayerCount: 2
Fore
SplineSet
224 355 m 1,0,-1
 224 392 l 1,1,-1
 75 523 l 1,2,-1
 75 598 l 1,3,-1
 131 598 l 1,4,-1
 280 430 l 1,5,-1
 318 430 l 1,6,-1
 467 598 l 1,7,-1
 523 598 l 1,8,-1
 523 523 l 1,9,-1
 374 392 l 1,10,-1
 374 355 l 1,11,-1
 523 224 l 1,12,-1
 523 150 l 1,13,-1
 467 150 l 1,14,-1
 318 318 l 1,15,-1
 280 318 l 1,16,-1
 131 150 l 1,17,-1
 75 150 l 1,18,-1
 75 224 l 1,19,-1
 224 355 l 1,0,-1
EndSplineSet
EndChar

StartChar: LATIN
Encoding: 216 216 155
Width: 598
VWidth: 1196
GlyphClass: 1
Flags: HW
HStem: -75 37<37 56> 0 75<187 411> 673 75<187 374>
VStem: 37 75<-75 -37> 56 75<-37 0> 75 75<224 635> 168 93<224 262> 187 93<262 299> 206 93<299 336> 224 93<336 374> 243 93<374 411> 262 93<411 449> 280 93<449 486> 299 93<486 523> 318 93<523 561> 336 93<561 598> 430 93<93 112 748 785> 449 75<112 598 785 822>
LayerCount: 2
Fore
SplineSet
168 224 m 1,0,-1
 168 262 l 1,1,-1
 187 262 l 1,2,-1
 187 299 l 1,3,-1
 206 299 l 1,4,-1
 206 336 l 1,5,-1
 224 336 l 1,6,-1
 224 374 l 1,7,-1
 243 374 l 1,8,-1
 243 411 l 1,9,-1
 262 411 l 1,10,-1
 262 449 l 1,11,-1
 280 449 l 1,12,-1
 280 486 l 1,13,-1
 299 486 l 1,14,-1
 299 523 l 1,15,-1
 318 523 l 1,16,-1
 318 561 l 1,17,-1
 336 561 l 1,18,-1
 336 598 l 1,19,-1
 355 598 l 1,20,-1
 355 635 l 1,21,-1
 374 635 l 1,22,-1
 374 673 l 1,23,-1
 187 673 l 1,24,-1
 187 654 l 1,25,-1
 168 654 l 1,26,-1
 168 635 l 1,27,-1
 150 635 l 1,28,-1
 150 224 l 1,29,-1
 168 224 l 1,0,-1
187 75 m 1,30,-1
 411 75 l 1,31,-1
 411 93 l 1,32,-1
 430 93 l 1,33,-1
 430 112 l 1,34,-1
 449 112 l 1,35,-1
 449 598 l 1,36,-1
 430 598 l 1,37,-1
 430 561 l 1,38,-1
 411 561 l 1,39,-1
 411 523 l 1,40,-1
 392 523 l 1,41,-1
 392 486 l 1,42,-1
 374 486 l 1,43,-1
 374 449 l 1,44,-1
 355 449 l 1,45,-1
 355 411 l 1,46,-1
 336 411 l 1,47,-1
 336 374 l 1,48,-1
 318 374 l 1,49,-1
 318 336 l 1,50,-1
 299 336 l 1,51,-1
 299 299 l 1,52,-1
 280 299 l 1,53,-1
 280 262 l 1,54,-1
 262 262 l 1,55,-1
 262 224 l 1,56,-1
 243 224 l 1,57,-1
 243 187 l 1,58,-1
 224 187 l 1,59,-1
 224 150 l 1,60,-1
 206 150 l 1,61,-1
 206 112 l 1,62,-1
 187 112 l 1,63,-1
 187 75 l 1,30,-1
112 -75 m 1,64,-1
 37 -75 l 1,65,-1
 37 -37 l 1,66,-1
 56 -37 l 1,67,-1
 56 0 l 1,68,-1
 75 0 l 1,69,-1
 75 654 l 1,70,-1
 93 654 l 1,71,-1
 93 691 l 1,72,-1
 112 691 l 1,73,-1
 112 710 l 1,74,-1
 131 710 l 1,75,-1
 131 729 l 1,76,-1
 168 729 l 1,77,-1
 168 748 l 1,78,-1
 430 748 l 1,79,-1
 430 785 l 1,80,-1
 449 785 l 1,81,-1
 449 822 l 1,82,-1
 523 822 l 1,83,-1
 523 748 l 1,84,-1
 505 748 l 1,85,-1
 505 710 l 1,86,-1
 486 710 l 1,87,-1
 486 691 l 1,88,-1
 505 691 l 1,89,-1
 505 673 l 1,90,-1
 523 673 l 1,91,-1
 523 93 l 1,92,-1
 505 93 l 1,93,-1
 505 56 l 1,94,-1
 486 56 l 1,95,-1
 486 37 l 1,96,-1
 467 37 l 1,97,-1
 467 19 l 1,98,-1
 430 19 l 1,99,-1
 430 0 l 1,100,-1
 131 0 l 1,101,-1
 131 -37 l 1,102,-1
 112 -37 l 1,103,-1
 112 -75 l 1,64,-1
EndSplineSet
EndChar

StartChar: LATIN
Encoding: 217 217 156
Width: 598
VWidth: 1196
GlyphClass: 1
Flags: HW
HStem: 0 75<187 449> 724 23G<75 150 449 523> 785 56<355 374> 785 37<374 392> 878 56<206 224> 897 37<187 206>
VStem: 75 75<112 748> 449 75<75 748>
LayerCount: 2
Fore
SplineSet
392 785 m 1,0,-1
 299 785 l 1,1,-1
 299 804 l 1,2,-1
 280 804 l 1,3,-1
 280 822 l 1,4,-1
 262 822 l 1,5,-1
 262 841 l 1,6,-1
 243 841 l 1,7,-1
 243 860 l 1,8,-1
 224 860 l 1,9,-1
 224 878 l 1,10,-1
 206 878 l 1,11,-1
 206 897 l 1,12,-1
 187 897 l 1,13,-1
 187 934 l 1,14,-1
 280 934 l 1,15,-1
 280 916 l 1,16,-1
 299 916 l 1,17,-1
 299 897 l 1,18,-1
 318 897 l 1,19,-1
 318 878 l 1,20,-1
 336 878 l 1,21,-1
 336 860 l 1,22,-1
 355 860 l 1,23,-1
 355 841 l 1,24,-1
 374 841 l 1,25,-1
 374 822 l 1,26,-1
 392 822 l 1,27,-1
 392 785 l 1,0,-1
523 0 m 1,28,-1
 168 0 l 1,29,-1
 168 19 l 1,30,-1
 131 19 l 1,31,-1
 131 37 l 1,32,-1
 112 37 l 1,33,-1
 112 56 l 1,34,-1
 93 56 l 1,35,-1
 93 93 l 1,36,-1
 75 93 l 1,37,-1
 75 748 l 1,38,-1
 150 748 l 1,39,-1
 150 112 l 1,40,-1
 168 112 l 1,41,-1
 168 93 l 1,42,-1
 187 93 l 1,43,-1
 187 75 l 1,44,-1
 449 75 l 1,45,-1
 449 748 l 1,46,-1
 523 748 l 1,47,-1
 523 0 l 1,28,-1
EndSplineSet
EndChar

StartChar: LATIN
Encoding: 218 218 157
Width: 598
VWidth: 1196
GlyphClass: 1
Flags: HW
HStem: 0 75<187 449> 724 23G<75 150 449 523> 785 56<224 243> 785 37<206 224> 878 56<374 392> 897 37<392 411>
VStem: 75 75<112 748> 449 75<75 748>
LayerCount: 2
Fore
SplineSet
299 785 m 1,0,-1
 206 785 l 1,1,-1
 206 822 l 1,2,-1
 224 822 l 1,3,-1
 224 841 l 1,4,-1
 243 841 l 1,5,-1
 243 860 l 1,6,-1
 262 860 l 1,7,-1
 262 878 l 1,8,-1
 280 878 l 1,9,-1
 280 897 l 1,10,-1
 299 897 l 1,11,-1
 299 916 l 1,12,-1
 318 916 l 1,13,-1
 318 934 l 1,14,-1
 411 934 l 1,15,-1
 411 897 l 1,16,-1
 392 897 l 1,17,-1
 392 878 l 1,18,-1
 374 878 l 1,19,-1
 374 860 l 1,20,-1
 355 860 l 1,21,-1
 355 841 l 1,22,-1
 336 841 l 1,23,-1
 336 822 l 1,24,-1
 318 822 l 1,25,-1
 318 804 l 1,26,-1
 299 804 l 1,27,-1
 299 785 l 1,0,-1
523 0 m 1,28,-1
 168 0 l 1,29,-1
 168 19 l 1,30,-1
 131 19 l 1,31,-1
 131 37 l 1,32,-1
 112 37 l 1,33,-1
 112 56 l 1,34,-1
 93 56 l 1,35,-1
 93 93 l 1,36,-1
 75 93 l 1,37,-1
 75 748 l 1,38,-1
 150 748 l 1,39,-1
 150 112 l 1,40,-1
 168 112 l 1,41,-1
 168 93 l 1,42,-1
 187 93 l 1,43,-1
 187 75 l 1,44,-1
 449 75 l 1,45,-1
 449 748 l 1,46,-1
 523 748 l 1,47,-1
 523 0 l 1,28,-1
EndSplineSet
EndChar

StartChar: LATIN
Encoding: 219 219 158
Width: 598
VWidth: 1196
GlyphClass: 1
Flags: HW
HStem: 0 75<187 449> 724 23G<75 150 449 523> 822 93<206 224 374 392> 822 75<187 206 392 411> 822 56<168 187 411 430> 822 37<150 168 430 449> 878 93<280 318>
VStem: 75 75<112 748> 449 75<75 748>
LayerCount: 2
Fore
SplineSet
449 822 m 1,0,-1
 355 822 l 1,1,-1
 355 841 l 1,2,-1
 336 841 l 1,3,-1
 336 860 l 1,4,-1
 318 860 l 1,5,-1
 318 878 l 1,6,-1
 280 878 l 1,7,-1
 280 860 l 1,8,-1
 262 860 l 1,9,-1
 262 841 l 1,10,-1
 243 841 l 1,11,-1
 243 822 l 1,12,-1
 150 822 l 1,13,-1
 150 860 l 1,14,-1
 168 860 l 1,15,-1
 168 878 l 1,16,-1
 187 878 l 1,17,-1
 187 897 l 1,18,-1
 206 897 l 1,19,-1
 206 916 l 1,20,-1
 224 916 l 1,21,-1
 224 934 l 1,22,-1
 243 934 l 1,23,-1
 243 953 l 1,24,-1
 262 953 l 1,25,-1
 262 972 l 1,26,-1
 336 972 l 1,27,-1
 336 953 l 1,28,-1
 355 953 l 1,29,-1
 355 934 l 1,30,-1
 374 934 l 1,31,-1
 374 916 l 1,32,-1
 392 916 l 1,33,-1
 392 897 l 1,34,-1
 411 897 l 1,35,-1
 411 878 l 1,36,-1
 430 878 l 1,37,-1
 430 860 l 1,38,-1
 449 860 l 1,39,-1
 449 822 l 1,0,-1
523 0 m 1,40,-1
 168 0 l 1,41,-1
 168 19 l 1,42,-1
 131 19 l 1,43,-1
 131 37 l 1,44,-1
 112 37 l 1,45,-1
 112 56 l 1,46,-1
 93 56 l 1,47,-1
 93 93 l 1,48,-1
 75 93 l 1,49,-1
 75 748 l 1,50,-1
 150 748 l 1,51,-1
 150 112 l 1,52,-1
 168 112 l 1,53,-1
 168 93 l 1,54,-1
 187 93 l 1,55,-1
 187 75 l 1,56,-1
 449 75 l 1,57,-1
 449 748 l 1,58,-1
 523 748 l 1,59,-1
 523 0 l 1,40,-1
EndSplineSet
EndChar

StartChar: LATIN
Encoding: 220 220 159
Width: 598
VWidth: 1196
GlyphClass: 1
Flags: HW
HStem: 0 75<187 449> 724 23G<75 150 449 523> 822 112<150 224 374 449>
VStem: 75 75<112 748> 150 75<822 934> 374 75<822 934> 449 75<75 748>
LayerCount: 2
Fore
SplineSet
224 822 m 1,0,-1
 150 822 l 1,1,-1
 150 934 l 1,2,-1
 224 934 l 1,3,-1
 224 822 l 1,0,-1
449 822 m 1,4,-1
 374 822 l 1,5,-1
 374 934 l 1,6,-1
 449 934 l 1,7,-1
 449 822 l 1,4,-1
523 0 m 1,8,-1
 168 0 l 1,9,-1
 168 19 l 1,10,-1
 131 19 l 1,11,-1
 131 37 l 1,12,-1
 112 37 l 1,13,-1
 112 56 l 1,14,-1
 93 56 l 1,15,-1
 93 93 l 1,16,-1
 75 93 l 1,17,-1
 75 748 l 1,18,-1
 150 748 l 1,19,-1
 150 112 l 1,20,-1
 168 112 l 1,21,-1
 168 93 l 1,22,-1
 187 93 l 1,23,-1
 187 75 l 1,24,-1
 449 75 l 1,25,-1
 449 748 l 1,26,-1
 523 748 l 1,27,-1
 523 0 l 1,8,-1
EndSplineSet
EndChar

StartChar: LATIN
Encoding: 221 221 160
Width: 598
VWidth: 1196
GlyphClass: 1
Flags: HW
HStem: 0 75<75 411> 336 75<187 449> 724 23G<75 150 449 523> 785 56<224 243> 785 37<206 224> 878 56<374 392> 897 37<392 411>
VStem: 75 75<449 748> 449 75<112 336 411 748>
LayerCount: 2
Fore
SplineSet
299 785 m 1,0,-1
 206 785 l 1,1,-1
 206 822 l 1,2,-1
 224 822 l 1,3,-1
 224 841 l 1,4,-1
 243 841 l 1,5,-1
 243 860 l 1,6,-1
 262 860 l 1,7,-1
 262 878 l 1,8,-1
 280 878 l 1,9,-1
 280 897 l 1,10,-1
 299 897 l 1,11,-1
 299 916 l 1,12,-1
 318 916 l 1,13,-1
 318 934 l 1,14,-1
 411 934 l 1,15,-1
 411 897 l 1,16,-1
 392 897 l 1,17,-1
 392 878 l 1,18,-1
 374 878 l 1,19,-1
 374 860 l 1,20,-1
 355 860 l 1,21,-1
 355 841 l 1,22,-1
 336 841 l 1,23,-1
 336 822 l 1,24,-1
 318 822 l 1,25,-1
 318 804 l 1,26,-1
 299 804 l 1,27,-1
 299 785 l 1,0,-1
430 0 m 1,28,-1
 75 0 l 1,29,-1
 75 75 l 1,30,-1
 411 75 l 1,31,-1
 411 93 l 1,32,-1
 430 93 l 1,33,-1
 430 112 l 1,34,-1
 449 112 l 1,35,-1
 449 336 l 1,36,-1
 168 336 l 1,37,-1
 168 355 l 1,38,-1
 131 355 l 1,39,-1
 131 374 l 1,40,-1
 112 374 l 1,41,-1
 112 392 l 1,42,-1
 93 392 l 1,43,-1
 93 430 l 1,44,-1
 75 430 l 1,45,-1
 75 748 l 1,46,-1
 150 748 l 1,47,-1
 150 449 l 1,48,-1
 168 449 l 1,49,-1
 168 430 l 1,50,-1
 187 430 l 1,51,-1
 187 411 l 1,52,-1
 449 411 l 1,53,-1
 449 748 l 1,54,-1
 523 748 l 1,55,-1
 523 93 l 1,56,-1
 505 93 l 1,57,-1
 505 56 l 1,58,-1
 486 56 l 1,59,-1
 486 37 l 1,60,-1
 467 37 l 1,61,-1
 467 19 l 1,62,-1
 430 19 l 1,63,-1
 430 0 l 1,28,-1
EndSplineSet
EndChar

StartChar: LATIN
Encoding: 222 222 161
Width: 598
VWidth: 1196
GlyphClass: 1
Flags: HW
HStem: 0 75<150 411> 449 75<150 411>
VStem: 75 75<-150 0 75 449 523 673> 411 93<75 93 430 449> 430 93<93 112 411 430> 449 75<112 411>
LayerCount: 2
Fore
SplineSet
150 75 m 1,0,-1
 411 75 l 1,1,-1
 411 93 l 1,2,-1
 430 93 l 1,3,-1
 430 112 l 1,4,-1
 449 112 l 1,5,-1
 449 411 l 1,6,-1
 430 411 l 1,7,-1
 430 430 l 1,8,-1
 411 430 l 1,9,-1
 411 449 l 1,10,-1
 150 449 l 1,11,-1
 150 75 l 1,0,-1
150 -150 m 1,12,-1
 75 -150 l 1,13,-1
 75 673 l 1,14,-1
 150 673 l 1,15,-1
 150 523 l 1,16,-1
 430 523 l 1,17,-1
 430 505 l 1,18,-1
 467 505 l 1,19,-1
 467 486 l 1,20,-1
 486 486 l 1,21,-1
 486 467 l 1,22,-1
 505 467 l 1,23,-1
 505 430 l 1,24,-1
 523 430 l 1,25,-1
 523 93 l 1,26,-1
 505 93 l 1,27,-1
 505 56 l 1,28,-1
 486 56 l 1,29,-1
 486 37 l 1,30,-1
 467 37 l 1,31,-1
 467 19 l 1,32,-1
 430 19 l 1,33,-1
 430 0 l 1,34,-1
 150 0 l 1,35,-1
 150 -150 l 1,12,-1
EndSplineSet
EndChar

StartChar: LATIN
Encoding: 223 223 162
Width: 598
VWidth: 1196
GlyphClass: 1
Flags: HW
HStem: 0 93<280 299 411 430> 0 75<299 411> 336 93<299 336> 336 75<224 299> 635 93<150 168 355 374> 654 93<168 187 336 355> 673 75<187 336>
VStem: 75 75<0 635> 187 75<112 150> 336 93<430 449 654 673> 355 93<449 486 635 654> 374 75<486 635> 430 93<93 112 262 299> 449 75<112 262>
LayerCount: 2
Fore
SplineSet
449 0 m 1,0,-1
 262 0 l 1,1,-1
 262 19 l 1,2,-1
 224 19 l 1,3,-1
 224 37 l 1,4,-1
 206 37 l 1,5,-1
 206 75 l 1,6,-1
 187 75 l 1,7,-1
 187 150 l 1,8,-1
 262 150 l 1,9,-1
 262 112 l 1,10,-1
 280 112 l 1,11,-1
 280 93 l 1,12,-1
 299 93 l 1,13,-1
 299 75 l 1,14,-1
 411 75 l 1,15,-1
 411 93 l 1,16,-1
 430 93 l 1,17,-1
 430 112 l 1,18,-1
 449 112 l 1,19,-1
 449 262 l 1,20,-1
 430 262 l 1,21,-1
 430 299 l 1,22,-1
 411 299 l 1,23,-1
 411 318 l 1,24,-1
 374 318 l 1,25,-1
 374 336 l 1,26,-1
 224 336 l 1,27,-1
 224 411 l 1,28,-1
 299 411 l 1,29,-1
 299 430 l 1,30,-1
 336 430 l 1,31,-1
 336 449 l 1,32,-1
 355 449 l 1,33,-1
 355 486 l 1,34,-1
 374 486 l 1,35,-1
 374 635 l 1,36,-1
 355 635 l 1,37,-1
 355 654 l 1,38,-1
 336 654 l 1,39,-1
 336 673 l 1,40,-1
 187 673 l 1,41,-1
 187 654 l 1,42,-1
 168 654 l 1,43,-1
 168 635 l 1,44,-1
 150 635 l 1,45,-1
 150 0 l 1,46,-1
 75 0 l 1,47,-1
 75 654 l 1,48,-1
 93 654 l 1,49,-1
 93 691 l 1,50,-1
 112 691 l 1,51,-1
 112 710 l 1,52,-1
 131 710 l 1,53,-1
 131 729 l 1,54,-1
 168 729 l 1,55,-1
 168 748 l 1,56,-1
 355 748 l 1,57,-1
 355 729 l 1,58,-1
 392 729 l 1,59,-1
 392 710 l 1,60,-1
 411 710 l 1,61,-1
 411 691 l 1,62,-1
 430 691 l 1,63,-1
 430 654 l 1,64,-1
 449 654 l 1,65,-1
 449 449 l 1,66,-1
 430 449 l 1,67,-1
 430 411 l 1,68,-1
 411 411 l 1,69,-1
 411 392 l 1,70,-1
 449 392 l 1,71,-1
 449 374 l 1,72,-1
 467 374 l 1,73,-1
 467 355 l 1,74,-1
 486 355 l 1,75,-1
 486 336 l 1,76,-1
 505 336 l 1,77,-1
 505 299 l 1,78,-1
 523 299 l 1,79,-1
 523 75 l 1,80,-1
 505 75 l 1,81,-1
 505 37 l 1,82,-1
 486 37 l 1,83,-1
 486 19 l 1,84,-1
 449 19 l 1,85,-1
 449 0 l 1,0,-1
EndSplineSet
EndChar

StartChar: LATIN
Encoding: 224 224 163
Width: 598
VWidth: 1196
GlyphClass: 1
Flags: HW
HStem: 0 75<187 449> 262 75<187 449> 449 75<112 411> 598 56<392 411>
VStem: 75 93<93 112 224 243> 75 75<112 224> 93 93<75 93 243 262> 187 56<804 822> 449 75<75 262 336 411>
LayerCount: 2
Fore
SplineSet
411 598 m 1,0,-1
 336 598 l 1,1,-1
 336 617 l 1,2,-1
 318 617 l 1,3,-1
 318 635 l 1,4,-1
 299 635 l 1,5,-1
 299 654 l 1,6,-1
 280 654 l 1,7,-1
 280 673 l 1,8,-1
 262 673 l 1,9,-1
 262 691 l 1,10,-1
 243 691 l 1,11,-1
 243 710 l 1,12,-1
 224 710 l 1,13,-1
 224 729 l 1,14,-1
 206 729 l 1,15,-1
 206 748 l 1,16,-1
 187 748 l 1,17,-1
 187 822 l 1,18,-1
 243 822 l 1,19,-1
 243 804 l 1,20,-1
 262 804 l 1,21,-1
 262 785 l 1,22,-1
 280 785 l 1,23,-1
 280 766 l 1,24,-1
 299 766 l 1,25,-1
 299 748 l 1,26,-1
 318 748 l 1,27,-1
 318 729 l 1,28,-1
 336 729 l 1,29,-1
 336 710 l 1,30,-1
 355 710 l 1,31,-1
 355 691 l 1,32,-1
 374 691 l 1,33,-1
 374 673 l 1,34,-1
 392 673 l 1,35,-1
 392 654 l 1,36,-1
 411 654 l 1,37,-1
 411 598 l 1,0,-1
187 75 m 1,38,-1
 449 75 l 1,39,-1
 449 262 l 1,40,-1
 187 262 l 1,41,-1
 187 243 l 1,42,-1
 168 243 l 1,43,-1
 168 224 l 1,44,-1
 150 224 l 1,45,-1
 150 112 l 1,46,-1
 168 112 l 1,47,-1
 168 93 l 1,48,-1
 187 93 l 1,49,-1
 187 75 l 1,38,-1
523 0 m 1,50,-1
 168 0 l 1,51,-1
 168 19 l 1,52,-1
 131 19 l 1,53,-1
 131 37 l 1,54,-1
 112 37 l 1,55,-1
 112 56 l 1,56,-1
 93 56 l 1,57,-1
 93 93 l 1,58,-1
 75 93 l 1,59,-1
 75 243 l 1,60,-1
 93 243 l 1,61,-1
 93 280 l 1,62,-1
 112 280 l 1,63,-1
 112 299 l 1,64,-1
 131 299 l 1,65,-1
 131 318 l 1,66,-1
 168 318 l 1,67,-1
 168 336 l 1,68,-1
 449 336 l 1,69,-1
 449 411 l 1,70,-1
 430 411 l 1,71,-1
 430 430 l 1,72,-1
 411 430 l 1,73,-1
 411 449 l 1,74,-1
 112 449 l 1,75,-1
 112 523 l 1,76,-1
 430 523 l 1,77,-1
 430 505 l 1,78,-1
 467 505 l 1,79,-1
 467 486 l 1,80,-1
 486 486 l 1,81,-1
 486 467 l 1,82,-1
 505 467 l 1,83,-1
 505 430 l 1,84,-1
 523 430 l 1,85,-1
 523 0 l 1,50,-1
EndSplineSet
EndChar

StartChar: LATIN
Encoding: 225 225 164
Width: 598
VWidth: 1196
GlyphClass: 1
Flags: HW
HStem: 0 75<187 449> 262 75<187 449> 449 75<112 411> 598 56<224 243>
VStem: 75 93<93 112 224 243> 75 75<112 224> 93 93<75 93 243 262> 392 56<804 822> 449 75<75 262 336 411>
LayerCount: 2
Fore
SplineSet
299 598 m 1,0,-1
 224 598 l 1,1,-1
 224 654 l 1,2,-1
 243 654 l 1,3,-1
 243 673 l 1,4,-1
 262 673 l 1,5,-1
 262 691 l 1,6,-1
 280 691 l 1,7,-1
 280 710 l 1,8,-1
 299 710 l 1,9,-1
 299 729 l 1,10,-1
 318 729 l 1,11,-1
 318 748 l 1,12,-1
 336 748 l 1,13,-1
 336 766 l 1,14,-1
 355 766 l 1,15,-1
 355 785 l 1,16,-1
 374 785 l 1,17,-1
 374 804 l 1,18,-1
 392 804 l 1,19,-1
 392 822 l 1,20,-1
 449 822 l 1,21,-1
 449 748 l 1,22,-1
 430 748 l 1,23,-1
 430 729 l 1,24,-1
 411 729 l 1,25,-1
 411 710 l 1,26,-1
 392 710 l 1,27,-1
 392 691 l 1,28,-1
 374 691 l 1,29,-1
 374 673 l 1,30,-1
 355 673 l 1,31,-1
 355 654 l 1,32,-1
 336 654 l 1,33,-1
 336 635 l 1,34,-1
 318 635 l 1,35,-1
 318 617 l 1,36,-1
 299 617 l 1,37,-1
 299 598 l 1,0,-1
187 75 m 1,38,-1
 449 75 l 1,39,-1
 449 262 l 1,40,-1
 187 262 l 1,41,-1
 187 243 l 1,42,-1
 168 243 l 1,43,-1
 168 224 l 1,44,-1
 150 224 l 1,45,-1
 150 112 l 1,46,-1
 168 112 l 1,47,-1
 168 93 l 1,48,-1
 187 93 l 1,49,-1
 187 75 l 1,38,-1
523 0 m 1,50,-1
 168 0 l 1,51,-1
 168 19 l 1,52,-1
 131 19 l 1,53,-1
 131 37 l 1,54,-1
 112 37 l 1,55,-1
 112 56 l 1,56,-1
 93 56 l 1,57,-1
 93 93 l 1,58,-1
 75 93 l 1,59,-1
 75 243 l 1,60,-1
 93 243 l 1,61,-1
 93 280 l 1,62,-1
 112 280 l 1,63,-1
 112 299 l 1,64,-1
 131 299 l 1,65,-1
 131 318 l 1,66,-1
 168 318 l 1,67,-1
 168 336 l 1,68,-1
 449 336 l 1,69,-1
 449 411 l 1,70,-1
 430 411 l 1,71,-1
 430 430 l 1,72,-1
 411 430 l 1,73,-1
 411 449 l 1,74,-1
 112 449 l 1,75,-1
 112 523 l 1,76,-1
 430 523 l 1,77,-1
 430 505 l 1,78,-1
 467 505 l 1,79,-1
 467 486 l 1,80,-1
 486 486 l 1,81,-1
 486 467 l 1,82,-1
 505 467 l 1,83,-1
 505 430 l 1,84,-1
 523 430 l 1,85,-1
 523 0 l 1,50,-1
EndSplineSet
EndChar

StartChar: LATIN
Encoding: 226 226 165
Width: 598
VWidth: 1196
GlyphClass: 1
Flags: HW
HStem: 0 75<187 449> 262 75<187 449> 449 75<112 411> 598 93<131 150 449 467> 598 75<112 131 467 486> 729 93<280 318>
VStem: 75 75<112 224> 93 93<75 93 243 262> 112 56<598 617> 430 56<598 617> 449 75<75 262 336 411>
LayerCount: 2
Fore
SplineSet
486 598 m 1,0,-1
 430 598 l 1,1,-1
 430 617 l 1,2,-1
 411 617 l 1,3,-1
 411 635 l 1,4,-1
 392 635 l 1,5,-1
 392 654 l 1,6,-1
 374 654 l 1,7,-1
 374 673 l 1,8,-1
 355 673 l 1,9,-1
 355 691 l 1,10,-1
 336 691 l 1,11,-1
 336 710 l 1,12,-1
 318 710 l 1,13,-1
 318 729 l 1,14,-1
 280 729 l 1,15,-1
 280 710 l 1,16,-1
 262 710 l 1,17,-1
 262 691 l 1,18,-1
 243 691 l 1,19,-1
 243 673 l 1,20,-1
 224 673 l 1,21,-1
 224 654 l 1,22,-1
 206 654 l 1,23,-1
 206 635 l 1,24,-1
 187 635 l 1,25,-1
 187 617 l 1,26,-1
 168 617 l 1,27,-1
 168 598 l 1,28,-1
 112 598 l 1,29,-1
 112 673 l 1,30,-1
 131 673 l 1,31,-1
 131 691 l 1,32,-1
 150 691 l 1,33,-1
 150 710 l 1,34,-1
 168 710 l 1,35,-1
 168 729 l 1,36,-1
 187 729 l 1,37,-1
 187 748 l 1,38,-1
 206 748 l 1,39,-1
 206 766 l 1,40,-1
 224 766 l 1,41,-1
 224 785 l 1,42,-1
 243 785 l 1,43,-1
 243 804 l 1,44,-1
 262 804 l 1,45,-1
 262 822 l 1,46,-1
 336 822 l 1,47,-1
 336 804 l 1,48,-1
 355 804 l 1,49,-1
 355 785 l 1,50,-1
 374 785 l 1,51,-1
 374 766 l 1,52,-1
 392 766 l 1,53,-1
 392 748 l 1,54,-1
 411 748 l 1,55,-1
 411 729 l 1,56,-1
 430 729 l 1,57,-1
 430 710 l 1,58,-1
 449 710 l 1,59,-1
 449 691 l 1,60,-1
 467 691 l 1,61,-1
 467 673 l 1,62,-1
 486 673 l 1,63,-1
 486 598 l 1,0,-1
187 75 m 1,64,-1
 449 75 l 1,65,-1
 449 262 l 1,66,-1
 187 262 l 1,67,-1
 187 243 l 1,68,-1
 168 243 l 1,69,-1
 168 224 l 1,70,-1
 150 224 l 1,71,-1
 150 112 l 1,72,-1
 168 112 l 1,73,-1
 168 93 l 1,74,-1
 187 93 l 1,75,-1
 187 75 l 1,64,-1
523 0 m 1,76,-1
 168 0 l 1,77,-1
 168 19 l 1,78,-1
 131 19 l 1,79,-1
 131 37 l 1,80,-1
 112 37 l 1,81,-1
 112 56 l 1,82,-1
 93 56 l 1,83,-1
 93 93 l 1,84,-1
 75 93 l 1,85,-1
 75 243 l 1,86,-1
 93 243 l 1,87,-1
 93 280 l 1,88,-1
 112 280 l 1,89,-1
 112 299 l 1,90,-1
 131 299 l 1,91,-1
 131 318 l 1,92,-1
 168 318 l 1,93,-1
 168 336 l 1,94,-1
 449 336 l 1,95,-1
 449 411 l 1,96,-1
 430 411 l 1,97,-1
 430 430 l 1,98,-1
 411 430 l 1,99,-1
 411 449 l 1,100,-1
 112 449 l 1,101,-1
 112 523 l 1,102,-1
 430 523 l 1,103,-1
 430 505 l 1,104,-1
 467 505 l 1,105,-1
 467 486 l 1,106,-1
 486 486 l 1,107,-1
 486 467 l 1,108,-1
 505 467 l 1,109,-1
 505 430 l 1,110,-1
 523 430 l 1,111,-1
 523 0 l 1,76,-1
EndSplineSet
EndChar

StartChar: LATIN
Encoding: 227 227 166
Width: 598
VWidth: 1196
GlyphClass: 1
Flags: HW
HStem: 0 75<187 449> 262 75<187 449> 449 75<112 411> 635 93<336 355 411 430> 635 75<355 411> 654 93<318 336 430 449> 710 93<150 168 243 262> 729 93<168 187 224 243> 748 75<187 224>
VStem: 75 93<93 112 224 243 710 729> 75 75<112 224 635 710> 93 93<75 93 243 262> 430 93<411 430 729 748> 449 75<75 262 336 411 748 822>
LayerCount: 2
Fore
SplineSet
430 635 m 1,0,-1
 336 635 l 1,1,-1
 336 654 l 1,2,-1
 299 654 l 1,3,-1
 299 673 l 1,4,-1
 280 673 l 1,5,-1
 280 691 l 1,6,-1
 262 691 l 1,7,-1
 262 710 l 1,8,-1
 243 710 l 1,9,-1
 243 729 l 1,10,-1
 224 729 l 1,11,-1
 224 748 l 1,12,-1
 187 748 l 1,13,-1
 187 729 l 1,14,-1
 168 729 l 1,15,-1
 168 710 l 1,16,-1
 150 710 l 1,17,-1
 150 635 l 1,18,-1
 75 635 l 1,19,-1
 75 748 l 1,20,-1
 93 748 l 1,21,-1
 93 766 l 1,22,-1
 112 766 l 1,23,-1
 112 785 l 1,24,-1
 131 785 l 1,25,-1
 131 804 l 1,26,-1
 168 804 l 1,27,-1
 168 822 l 1,28,-1
 243 822 l 1,29,-1
 243 804 l 1,30,-1
 280 804 l 1,31,-1
 280 785 l 1,32,-1
 299 785 l 1,33,-1
 299 766 l 1,34,-1
 318 766 l 1,35,-1
 318 748 l 1,36,-1
 336 748 l 1,37,-1
 336 729 l 1,38,-1
 355 729 l 1,39,-1
 355 710 l 1,40,-1
 411 710 l 1,41,-1
 411 729 l 1,42,-1
 430 729 l 1,43,-1
 430 748 l 1,44,-1
 449 748 l 1,45,-1
 449 822 l 1,46,-1
 523 822 l 1,47,-1
 523 710 l 1,48,-1
 505 710 l 1,49,-1
 505 691 l 1,50,-1
 486 691 l 1,51,-1
 486 673 l 1,52,-1
 467 673 l 1,53,-1
 467 654 l 1,54,-1
 430 654 l 1,55,-1
 430 635 l 1,0,-1
187 75 m 1,56,-1
 449 75 l 1,57,-1
 449 262 l 1,58,-1
 187 262 l 1,59,-1
 187 243 l 1,60,-1
 168 243 l 1,61,-1
 168 224 l 1,62,-1
 150 224 l 1,63,-1
 150 112 l 1,64,-1
 168 112 l 1,65,-1
 168 93 l 1,66,-1
 187 93 l 1,67,-1
 187 75 l 1,56,-1
523 0 m 1,68,-1
 168 0 l 1,69,-1
 168 19 l 1,70,-1
 131 19 l 1,71,-1
 131 37 l 1,72,-1
 112 37 l 1,73,-1
 112 56 l 1,74,-1
 93 56 l 1,75,-1
 93 93 l 1,76,-1
 75 93 l 1,77,-1
 75 243 l 1,78,-1
 93 243 l 1,79,-1
 93 280 l 1,80,-1
 112 280 l 1,81,-1
 112 299 l 1,82,-1
 131 299 l 1,83,-1
 131 318 l 1,84,-1
 168 318 l 1,85,-1
 168 336 l 1,86,-1
 449 336 l 1,87,-1
 449 411 l 1,88,-1
 430 411 l 1,89,-1
 430 430 l 1,90,-1
 411 430 l 1,91,-1
 411 449 l 1,92,-1
 112 449 l 1,93,-1
 112 523 l 1,94,-1
 430 523 l 1,95,-1
 430 505 l 1,96,-1
 467 505 l 1,97,-1
 467 486 l 1,98,-1
 486 486 l 1,99,-1
 486 467 l 1,100,-1
 505 467 l 1,101,-1
 505 430 l 1,102,-1
 523 430 l 1,103,-1
 523 0 l 1,68,-1
EndSplineSet
EndChar

StartChar: LATIN
Encoding: 228 228 167
Width: 598
VWidth: 1196
GlyphClass: 1
Flags: HW
HStem: 0 75<187 449> 262 75<187 449> 449 75<112 411> 635 112<150 224 374 449>
VStem: 75 93<93 112 224 243> 75 75<112 224> 93 93<75 93 243 262> 150 75<635 748> 374 75<635 748> 449 75<75 262 336 411>
LayerCount: 2
Fore
SplineSet
224 635 m 1,0,-1
 150 635 l 1,1,-1
 150 748 l 1,2,-1
 224 748 l 1,3,-1
 224 635 l 1,0,-1
449 635 m 1,4,-1
 374 635 l 1,5,-1
 374 748 l 1,6,-1
 449 748 l 1,7,-1
 449 635 l 1,4,-1
187 75 m 1,8,-1
 449 75 l 1,9,-1
 449 262 l 1,10,-1
 187 262 l 1,11,-1
 187 243 l 1,12,-1
 168 243 l 1,13,-1
 168 224 l 1,14,-1
 150 224 l 1,15,-1
 150 112 l 1,16,-1
 168 112 l 1,17,-1
 168 93 l 1,18,-1
 187 93 l 1,19,-1
 187 75 l 1,8,-1
523 0 m 1,20,-1
 168 0 l 1,21,-1
 168 19 l 1,22,-1
 131 19 l 1,23,-1
 131 37 l 1,24,-1
 112 37 l 1,25,-1
 112 56 l 1,26,-1
 93 56 l 1,27,-1
 93 93 l 1,28,-1
 75 93 l 1,29,-1
 75 243 l 1,30,-1
 93 243 l 1,31,-1
 93 280 l 1,32,-1
 112 280 l 1,33,-1
 112 299 l 1,34,-1
 131 299 l 1,35,-1
 131 318 l 1,36,-1
 168 318 l 1,37,-1
 168 336 l 1,38,-1
 449 336 l 1,39,-1
 449 411 l 1,40,-1
 430 411 l 1,41,-1
 430 430 l 1,42,-1
 411 430 l 1,43,-1
 411 449 l 1,44,-1
 112 449 l 1,45,-1
 112 523 l 1,46,-1
 430 523 l 1,47,-1
 430 505 l 1,48,-1
 467 505 l 1,49,-1
 467 486 l 1,50,-1
 486 486 l 1,51,-1
 486 467 l 1,52,-1
 505 467 l 1,53,-1
 505 430 l 1,54,-1
 523 430 l 1,55,-1
 523 0 l 1,20,-1
EndSplineSet
EndChar

StartChar: LATIN
Encoding: 229 229 168
Width: 598
VWidth: 1196
GlyphClass: 1
Flags: HW
HStem: 0 75<187 449> 262 75<187 449> 449 75<112 411> 598 75<280 355> 617 75<262 280 355 374> 691 75<187 206 430 449> 766 75<262 280 355 374> 785 75<280 355>
VStem: 75 93<93 112 224 243> 75 75<112 224> 93 93<75 93 243 262> 187 75<691 766> 206 75<673 691 766 785> 280 75<598 617 841 860> 355 75<673 691 766 785> 374 75<691 766> 449 75<75 262 336 411>
LayerCount: 2
Fore
SplineSet
280 673 m 1,0,-1
 355 673 l 1,1,-1
 355 691 l 1,2,-1
 374 691 l 1,3,-1
 374 766 l 1,4,-1
 355 766 l 1,5,-1
 355 785 l 1,6,-1
 280 785 l 1,7,-1
 280 766 l 1,8,-1
 262 766 l 1,9,-1
 262 691 l 1,10,-1
 280 691 l 1,11,-1
 280 673 l 1,0,-1
355 598 m 1,12,-1
 280 598 l 1,13,-1
 280 617 l 1,14,-1
 243 617 l 1,15,-1
 243 635 l 1,16,-1
 224 635 l 1,17,-1
 224 654 l 1,18,-1
 206 654 l 1,19,-1
 206 691 l 1,20,-1
 187 691 l 1,21,-1
 187 766 l 1,22,-1
 206 766 l 1,23,-1
 206 804 l 1,24,-1
 224 804 l 1,25,-1
 224 822 l 1,26,-1
 243 822 l 1,27,-1
 243 841 l 1,28,-1
 280 841 l 1,29,-1
 280 860 l 1,30,-1
 355 860 l 1,31,-1
 355 841 l 1,32,-1
 392 841 l 1,33,-1
 392 822 l 1,34,-1
 411 822 l 1,35,-1
 411 804 l 1,36,-1
 430 804 l 1,37,-1
 430 766 l 1,38,-1
 449 766 l 1,39,-1
 449 691 l 1,40,-1
 430 691 l 1,41,-1
 430 654 l 1,42,-1
 411 654 l 1,43,-1
 411 635 l 1,44,-1
 392 635 l 1,45,-1
 392 617 l 1,46,-1
 355 617 l 1,47,-1
 355 598 l 1,12,-1
187 75 m 1,48,-1
 449 75 l 1,49,-1
 449 262 l 1,50,-1
 187 262 l 1,51,-1
 187 243 l 1,52,-1
 168 243 l 1,53,-1
 168 224 l 1,54,-1
 150 224 l 1,55,-1
 150 112 l 1,56,-1
 168 112 l 1,57,-1
 168 93 l 1,58,-1
 187 93 l 1,59,-1
 187 75 l 1,48,-1
523 0 m 1,60,-1
 168 0 l 1,61,-1
 168 19 l 1,62,-1
 131 19 l 1,63,-1
 131 37 l 1,64,-1
 112 37 l 1,65,-1
 112 56 l 1,66,-1
 93 56 l 1,67,-1
 93 93 l 1,68,-1
 75 93 l 1,69,-1
 75 243 l 1,70,-1
 93 243 l 1,71,-1
 93 280 l 1,72,-1
 112 280 l 1,73,-1
 112 299 l 1,74,-1
 131 299 l 1,75,-1
 131 318 l 1,76,-1
 168 318 l 1,77,-1
 168 336 l 1,78,-1
 449 336 l 1,79,-1
 449 411 l 1,80,-1
 430 411 l 1,81,-1
 430 430 l 1,82,-1
 411 430 l 1,83,-1
 411 449 l 1,84,-1
 112 449 l 1,85,-1
 112 523 l 1,86,-1
 430 523 l 1,87,-1
 430 505 l 1,88,-1
 467 505 l 1,89,-1
 467 486 l 1,90,-1
 486 486 l 1,91,-1
 486 467 l 1,92,-1
 505 467 l 1,93,-1
 505 430 l 1,94,-1
 523 430 l 1,95,-1
 523 0 l 1,60,-1
EndSplineSet
EndChar

StartChar: LATIN
Encoding: 230 230 169
Width: 598
VWidth: 1196
GlyphClass: 1
Flags: HW
HStem: 0 93<168 187 243 262 355 374> 0 75<187 243 374 523> 224 75<336 449> 262 75<187 262> 430 93<224 243 355 374> 449 75<112 224 374 449>
VStem: 75 93<93 112 224 243> 75 75<112 224> 93 93<75 93 243 262> 262 75<112 224 336 411> 449 75<299 449>
LayerCount: 2
Fore
SplineSet
336 299 m 1,0,-1
 449 299 l 1,1,-1
 449 449 l 1,2,-1
 374 449 l 1,3,-1
 374 430 l 1,4,-1
 355 430 l 1,5,-1
 355 411 l 1,6,-1
 336 411 l 1,7,-1
 336 299 l 1,0,-1
187 75 m 1,8,-1
 243 75 l 1,9,-1
 243 93 l 1,10,-1
 262 93 l 1,11,-1
 262 262 l 1,12,-1
 187 262 l 1,13,-1
 187 243 l 1,14,-1
 168 243 l 1,15,-1
 168 224 l 1,16,-1
 150 224 l 1,17,-1
 150 112 l 1,18,-1
 168 112 l 1,19,-1
 168 93 l 1,20,-1
 187 93 l 1,21,-1
 187 75 l 1,8,-1
523 0 m 1,22,-1
 336 0 l 1,23,-1
 336 19 l 1,24,-1
 318 19 l 1,25,-1
 318 37 l 1,26,-1
 280 37 l 1,27,-1
 280 19 l 1,28,-1
 262 19 l 1,29,-1
 262 0 l 1,30,-1
 168 0 l 1,31,-1
 168 19 l 1,32,-1
 131 19 l 1,33,-1
 131 37 l 1,34,-1
 112 37 l 1,35,-1
 112 56 l 1,36,-1
 93 56 l 1,37,-1
 93 93 l 1,38,-1
 75 93 l 1,39,-1
 75 243 l 1,40,-1
 93 243 l 1,41,-1
 93 280 l 1,42,-1
 112 280 l 1,43,-1
 112 299 l 1,44,-1
 131 299 l 1,45,-1
 131 318 l 1,46,-1
 168 318 l 1,47,-1
 168 336 l 1,48,-1
 262 336 l 1,49,-1
 262 411 l 1,50,-1
 243 411 l 1,51,-1
 243 430 l 1,52,-1
 224 430 l 1,53,-1
 224 449 l 1,54,-1
 112 449 l 1,55,-1
 112 523 l 1,56,-1
 262 523 l 1,57,-1
 262 505 l 1,58,-1
 280 505 l 1,59,-1
 280 486 l 1,60,-1
 318 486 l 1,61,-1
 318 505 l 1,62,-1
 336 505 l 1,63,-1
 336 523 l 1,64,-1
 523 523 l 1,65,-1
 523 224 l 1,66,-1
 336 224 l 1,67,-1
 336 112 l 1,68,-1
 355 112 l 1,69,-1
 355 93 l 1,70,-1
 374 93 l 1,71,-1
 374 75 l 1,72,-1
 523 75 l 1,73,-1
 523 0 l 1,22,-1
EndSplineSet
EndChar

StartChar: LATIN
Encoding: 231 231 170
Width: 598
VWidth: 1196
GlyphClass: 1
Flags: HW
HStem: -224 75<224 262> 0 75<187 299 374 523> 449 75<187 523>
VStem: 75 93<93 112 411 430> 75 75<112 411> 93 93<75 93 430 449> 224 56<-224 -206> 299 75<-112 0>
LayerCount: 2
Fore
SplineSet
280 -224 m 1,0,-1
 224 -224 l 1,1,-1
 224 -150 l 1,2,-1
 262 -150 l 1,3,-1
 262 -131 l 1,4,-1
 280 -131 l 1,5,-1
 280 -112 l 1,6,-1
 299 -112 l 1,7,-1
 299 0 l 1,8,-1
 168 0 l 1,9,-1
 168 19 l 1,10,-1
 131 19 l 1,11,-1
 131 37 l 1,12,-1
 112 37 l 1,13,-1
 112 56 l 1,14,-1
 93 56 l 1,15,-1
 93 93 l 1,16,-1
 75 93 l 1,17,-1
 75 430 l 1,18,-1
 93 430 l 1,19,-1
 93 467 l 1,20,-1
 112 467 l 1,21,-1
 112 486 l 1,22,-1
 131 486 l 1,23,-1
 131 505 l 1,24,-1
 168 505 l 1,25,-1
 168 523 l 1,26,-1
 523 523 l 1,27,-1
 523 449 l 1,28,-1
 187 449 l 1,29,-1
 187 430 l 1,30,-1
 168 430 l 1,31,-1
 168 411 l 1,32,-1
 150 411 l 1,33,-1
 150 112 l 1,34,-1
 168 112 l 1,35,-1
 168 93 l 1,36,-1
 187 93 l 1,37,-1
 187 75 l 1,38,-1
 523 75 l 1,39,-1
 523 0 l 1,40,-1
 374 0 l 1,41,-1
 374 -131 l 1,42,-1
 355 -131 l 1,43,-1
 355 -168 l 1,44,-1
 336 -168 l 1,45,-1
 336 -187 l 1,46,-1
 318 -187 l 1,47,-1
 318 -206 l 1,48,-1
 280 -206 l 1,49,-1
 280 -224 l 1,0,-1
EndSplineSet
EndChar

StartChar: LATIN
Encoding: 232 232 171
Width: 598
VWidth: 1196
GlyphClass: 1
Flags: HW
HStem: 0 75<187 523> 224 75<150 449> 449 75<187 449> 598 56<392 411>
VStem: 75 93<93 112 411 430> 75 75<112 224 299 411> 93 93<75 93 430 449> 187 56<804 822> 449 75<299 449>
LayerCount: 2
Fore
SplineSet
411 598 m 1,0,-1
 336 598 l 1,1,-1
 336 617 l 1,2,-1
 318 617 l 1,3,-1
 318 635 l 1,4,-1
 299 635 l 1,5,-1
 299 654 l 1,6,-1
 280 654 l 1,7,-1
 280 673 l 1,8,-1
 262 673 l 1,9,-1
 262 691 l 1,10,-1
 243 691 l 1,11,-1
 243 710 l 1,12,-1
 224 710 l 1,13,-1
 224 729 l 1,14,-1
 206 729 l 1,15,-1
 206 748 l 1,16,-1
 187 748 l 1,17,-1
 187 822 l 1,18,-1
 243 822 l 1,19,-1
 243 804 l 1,20,-1
 262 804 l 1,21,-1
 262 785 l 1,22,-1
 280 785 l 1,23,-1
 280 766 l 1,24,-1
 299 766 l 1,25,-1
 299 748 l 1,26,-1
 318 748 l 1,27,-1
 318 729 l 1,28,-1
 336 729 l 1,29,-1
 336 710 l 1,30,-1
 355 710 l 1,31,-1
 355 691 l 1,32,-1
 374 691 l 1,33,-1
 374 673 l 1,34,-1
 392 673 l 1,35,-1
 392 654 l 1,36,-1
 411 654 l 1,37,-1
 411 598 l 1,0,-1
150 299 m 1,38,-1
 449 299 l 1,39,-1
 449 449 l 1,40,-1
 187 449 l 1,41,-1
 187 430 l 1,42,-1
 168 430 l 1,43,-1
 168 411 l 1,44,-1
 150 411 l 1,45,-1
 150 299 l 1,38,-1
523 0 m 1,46,-1
 168 0 l 1,47,-1
 168 19 l 1,48,-1
 131 19 l 1,49,-1
 131 37 l 1,50,-1
 112 37 l 1,51,-1
 112 56 l 1,52,-1
 93 56 l 1,53,-1
 93 93 l 1,54,-1
 75 93 l 1,55,-1
 75 430 l 1,56,-1
 93 430 l 1,57,-1
 93 467 l 1,58,-1
 112 467 l 1,59,-1
 112 486 l 1,60,-1
 131 486 l 1,61,-1
 131 505 l 1,62,-1
 168 505 l 1,63,-1
 168 523 l 1,64,-1
 523 523 l 1,65,-1
 523 224 l 1,66,-1
 150 224 l 1,67,-1
 150 112 l 1,68,-1
 168 112 l 1,69,-1
 168 93 l 1,70,-1
 187 93 l 1,71,-1
 187 75 l 1,72,-1
 523 75 l 1,73,-1
 523 0 l 1,46,-1
EndSplineSet
EndChar

StartChar: LATIN
Encoding: 233 233 172
Width: 598
VWidth: 1196
GlyphClass: 1
Flags: HW
HStem: 0 75<187 523> 224 75<150 449> 449 75<187 449> 598 56<224 243>
VStem: 75 93<93 112 411 430> 75 75<112 224 299 411> 93 93<75 93 430 449> 392 56<804 822> 449 75<299 449>
LayerCount: 2
Fore
SplineSet
299 598 m 1,0,-1
 224 598 l 1,1,-1
 224 654 l 1,2,-1
 243 654 l 1,3,-1
 243 673 l 1,4,-1
 262 673 l 1,5,-1
 262 691 l 1,6,-1
 280 691 l 1,7,-1
 280 710 l 1,8,-1
 299 710 l 1,9,-1
 299 729 l 1,10,-1
 318 729 l 1,11,-1
 318 748 l 1,12,-1
 336 748 l 1,13,-1
 336 766 l 1,14,-1
 355 766 l 1,15,-1
 355 785 l 1,16,-1
 374 785 l 1,17,-1
 374 804 l 1,18,-1
 392 804 l 1,19,-1
 392 822 l 1,20,-1
 449 822 l 1,21,-1
 449 748 l 1,22,-1
 430 748 l 1,23,-1
 430 729 l 1,24,-1
 411 729 l 1,25,-1
 411 710 l 1,26,-1
 392 710 l 1,27,-1
 392 691 l 1,28,-1
 374 691 l 1,29,-1
 374 673 l 1,30,-1
 355 673 l 1,31,-1
 355 654 l 1,32,-1
 336 654 l 1,33,-1
 336 635 l 1,34,-1
 318 635 l 1,35,-1
 318 617 l 1,36,-1
 299 617 l 1,37,-1
 299 598 l 1,0,-1
150 299 m 1,38,-1
 449 299 l 1,39,-1
 449 449 l 1,40,-1
 187 449 l 1,41,-1
 187 430 l 1,42,-1
 168 430 l 1,43,-1
 168 411 l 1,44,-1
 150 411 l 1,45,-1
 150 299 l 1,38,-1
523 0 m 1,46,-1
 168 0 l 1,47,-1
 168 19 l 1,48,-1
 131 19 l 1,49,-1
 131 37 l 1,50,-1
 112 37 l 1,51,-1
 112 56 l 1,52,-1
 93 56 l 1,53,-1
 93 93 l 1,54,-1
 75 93 l 1,55,-1
 75 430 l 1,56,-1
 93 430 l 1,57,-1
 93 467 l 1,58,-1
 112 467 l 1,59,-1
 112 486 l 1,60,-1
 131 486 l 1,61,-1
 131 505 l 1,62,-1
 168 505 l 1,63,-1
 168 523 l 1,64,-1
 523 523 l 1,65,-1
 523 224 l 1,66,-1
 150 224 l 1,67,-1
 150 112 l 1,68,-1
 168 112 l 1,69,-1
 168 93 l 1,70,-1
 187 93 l 1,71,-1
 187 75 l 1,72,-1
 523 75 l 1,73,-1
 523 0 l 1,46,-1
EndSplineSet
EndChar

StartChar: LATIN
Encoding: 234 234 173
Width: 598
VWidth: 1196
GlyphClass: 1
Flags: HW
HStem: 0 75<187 523> 224 75<150 449> 449 75<187 449> 598 93<131 150 449 467> 598 75<112 131 467 486> 729 93<280 318>
VStem: 75 75<112 224 299 411> 93 93<75 93 430 449> 112 56<598 617> 430 56<598 617> 449 75<299 449>
LayerCount: 2
Fore
SplineSet
486 598 m 1,0,-1
 430 598 l 1,1,-1
 430 617 l 1,2,-1
 411 617 l 1,3,-1
 411 635 l 1,4,-1
 392 635 l 1,5,-1
 392 654 l 1,6,-1
 374 654 l 1,7,-1
 374 673 l 1,8,-1
 355 673 l 1,9,-1
 355 691 l 1,10,-1
 336 691 l 1,11,-1
 336 710 l 1,12,-1
 318 710 l 1,13,-1
 318 729 l 1,14,-1
 280 729 l 1,15,-1
 280 710 l 1,16,-1
 262 710 l 1,17,-1
 262 691 l 1,18,-1
 243 691 l 1,19,-1
 243 673 l 1,20,-1
 224 673 l 1,21,-1
 224 654 l 1,22,-1
 206 654 l 1,23,-1
 206 635 l 1,24,-1
 187 635 l 1,25,-1
 187 617 l 1,26,-1
 168 617 l 1,27,-1
 168 598 l 1,28,-1
 112 598 l 1,29,-1
 112 673 l 1,30,-1
 131 673 l 1,31,-1
 131 691 l 1,32,-1
 150 691 l 1,33,-1
 150 710 l 1,34,-1
 168 710 l 1,35,-1
 168 729 l 1,36,-1
 187 729 l 1,37,-1
 187 748 l 1,38,-1
 206 748 l 1,39,-1
 206 766 l 1,40,-1
 224 766 l 1,41,-1
 224 785 l 1,42,-1
 243 785 l 1,43,-1
 243 804 l 1,44,-1
 262 804 l 1,45,-1
 262 822 l 1,46,-1
 336 822 l 1,47,-1
 336 804 l 1,48,-1
 355 804 l 1,49,-1
 355 785 l 1,50,-1
 374 785 l 1,51,-1
 374 766 l 1,52,-1
 392 766 l 1,53,-1
 392 748 l 1,54,-1
 411 748 l 1,55,-1
 411 729 l 1,56,-1
 430 729 l 1,57,-1
 430 710 l 1,58,-1
 449 710 l 1,59,-1
 449 691 l 1,60,-1
 467 691 l 1,61,-1
 467 673 l 1,62,-1
 486 673 l 1,63,-1
 486 598 l 1,0,-1
150 299 m 1,64,-1
 449 299 l 1,65,-1
 449 449 l 1,66,-1
 187 449 l 1,67,-1
 187 430 l 1,68,-1
 168 430 l 1,69,-1
 168 411 l 1,70,-1
 150 411 l 1,71,-1
 150 299 l 1,64,-1
523 0 m 1,72,-1
 168 0 l 1,73,-1
 168 19 l 1,74,-1
 131 19 l 1,75,-1
 131 37 l 1,76,-1
 112 37 l 1,77,-1
 112 56 l 1,78,-1
 93 56 l 1,79,-1
 93 93 l 1,80,-1
 75 93 l 1,81,-1
 75 430 l 1,82,-1
 93 430 l 1,83,-1
 93 467 l 1,84,-1
 112 467 l 1,85,-1
 112 486 l 1,86,-1
 131 486 l 1,87,-1
 131 505 l 1,88,-1
 168 505 l 1,89,-1
 168 523 l 1,90,-1
 523 523 l 1,91,-1
 523 224 l 1,92,-1
 150 224 l 1,93,-1
 150 112 l 1,94,-1
 168 112 l 1,95,-1
 168 93 l 1,96,-1
 187 93 l 1,97,-1
 187 75 l 1,98,-1
 523 75 l 1,99,-1
 523 0 l 1,72,-1
EndSplineSet
EndChar

StartChar: LATIN
Encoding: 235 235 174
Width: 598
VWidth: 1196
GlyphClass: 1
Flags: HW
HStem: 0 75<187 523> 224 75<150 449> 449 75<187 449> 635 112<150 224 374 449>
VStem: 75 93<93 112 411 430> 75 75<112 224 299 411> 93 93<75 93 430 449> 150 75<635 748> 374 75<635 748> 449 75<299 449>
LayerCount: 2
Fore
SplineSet
224 635 m 1,0,-1
 150 635 l 1,1,-1
 150 748 l 1,2,-1
 224 748 l 1,3,-1
 224 635 l 1,0,-1
449 635 m 1,4,-1
 374 635 l 1,5,-1
 374 748 l 1,6,-1
 449 748 l 1,7,-1
 449 635 l 1,4,-1
150 299 m 1,8,-1
 449 299 l 1,9,-1
 449 449 l 1,10,-1
 187 449 l 1,11,-1
 187 430 l 1,12,-1
 168 430 l 1,13,-1
 168 411 l 1,14,-1
 150 411 l 1,15,-1
 150 299 l 1,8,-1
523 0 m 1,16,-1
 168 0 l 1,17,-1
 168 19 l 1,18,-1
 131 19 l 1,19,-1
 131 37 l 1,20,-1
 112 37 l 1,21,-1
 112 56 l 1,22,-1
 93 56 l 1,23,-1
 93 93 l 1,24,-1
 75 93 l 1,25,-1
 75 430 l 1,26,-1
 93 430 l 1,27,-1
 93 467 l 1,28,-1
 112 467 l 1,29,-1
 112 486 l 1,30,-1
 131 486 l 1,31,-1
 131 505 l 1,32,-1
 168 505 l 1,33,-1
 168 523 l 1,34,-1
 523 523 l 1,35,-1
 523 224 l 1,36,-1
 150 224 l 1,37,-1
 150 112 l 1,38,-1
 168 112 l 1,39,-1
 168 93 l 1,40,-1
 187 93 l 1,41,-1
 187 75 l 1,42,-1
 523 75 l 1,43,-1
 523 0 l 1,16,-1
EndSplineSet
EndChar

StartChar: LATIN
Encoding: 236 236 175
Width: 598
VWidth: 1196
GlyphClass: 1
Flags: HW
HStem: 0 75<336 411> 449 75<187 262> 598 56<392 411>
VStem: 187 56<804 822> 262 150<0 75> 262 75<75 449>
LayerCount: 2
Fore
SplineSet
411 598 m 1,0,-1
 336 598 l 1,1,-1
 336 617 l 1,2,-1
 318 617 l 1,3,-1
 318 635 l 1,4,-1
 299 635 l 1,5,-1
 299 654 l 1,6,-1
 280 654 l 1,7,-1
 280 673 l 1,8,-1
 262 673 l 1,9,-1
 262 691 l 1,10,-1
 243 691 l 1,11,-1
 243 710 l 1,12,-1
 224 710 l 1,13,-1
 224 729 l 1,14,-1
 206 729 l 1,15,-1
 206 748 l 1,16,-1
 187 748 l 1,17,-1
 187 822 l 1,18,-1
 243 822 l 1,19,-1
 243 804 l 1,20,-1
 262 804 l 1,21,-1
 262 785 l 1,22,-1
 280 785 l 1,23,-1
 280 766 l 1,24,-1
 299 766 l 1,25,-1
 299 748 l 1,26,-1
 318 748 l 1,27,-1
 318 729 l 1,28,-1
 336 729 l 1,29,-1
 336 710 l 1,30,-1
 355 710 l 1,31,-1
 355 691 l 1,32,-1
 374 691 l 1,33,-1
 374 673 l 1,34,-1
 392 673 l 1,35,-1
 392 654 l 1,36,-1
 411 654 l 1,37,-1
 411 598 l 1,0,-1
411 0 m 1,38,-1
 262 0 l 1,39,-1
 262 449 l 1,40,-1
 187 449 l 1,41,-1
 187 523 l 1,42,-1
 336 523 l 1,43,-1
 336 75 l 1,44,-1
 411 75 l 1,45,-1
 411 0 l 1,38,-1
EndSplineSet
EndChar

StartChar: LATIN
Encoding: 237 237 176
Width: 598
VWidth: 1196
GlyphClass: 1
Flags: HW
HStem: 0 75<336 411> 449 75<187 262> 598 56<187 206>
VStem: 187 150<449 523> 262 75<75 449> 355 56<804 822>
LayerCount: 2
Fore
SplineSet
262 598 m 1,0,-1
 187 598 l 1,1,-1
 187 654 l 1,2,-1
 206 654 l 1,3,-1
 206 673 l 1,4,-1
 224 673 l 1,5,-1
 224 691 l 1,6,-1
 243 691 l 1,7,-1
 243 710 l 1,8,-1
 262 710 l 1,9,-1
 262 729 l 1,10,-1
 280 729 l 1,11,-1
 280 748 l 1,12,-1
 299 748 l 1,13,-1
 299 766 l 1,14,-1
 318 766 l 1,15,-1
 318 785 l 1,16,-1
 336 785 l 1,17,-1
 336 804 l 1,18,-1
 355 804 l 1,19,-1
 355 822 l 1,20,-1
 411 822 l 1,21,-1
 411 748 l 1,22,-1
 392 748 l 1,23,-1
 392 729 l 1,24,-1
 374 729 l 1,25,-1
 374 710 l 1,26,-1
 355 710 l 1,27,-1
 355 691 l 1,28,-1
 336 691 l 1,29,-1
 336 673 l 1,30,-1
 318 673 l 1,31,-1
 318 654 l 1,32,-1
 299 654 l 1,33,-1
 299 635 l 1,34,-1
 280 635 l 1,35,-1
 280 617 l 1,36,-1
 262 617 l 1,37,-1
 262 598 l 1,0,-1
411 0 m 1,38,-1
 262 0 l 1,39,-1
 262 449 l 1,40,-1
 187 449 l 1,41,-1
 187 523 l 1,42,-1
 336 523 l 1,43,-1
 336 75 l 1,44,-1
 411 75 l 1,45,-1
 411 0 l 1,38,-1
EndSplineSet
EndChar

StartChar: LATIN
Encoding: 238 238 177
Width: 598
VWidth: 1196
GlyphClass: 1
Flags: HW
HStem: 0 75<336 411> 449 75<187 262> 598 93<131 150 449 467> 598 75<112 131 467 486> 729 93<280 318>
VStem: 112 56<598 617> 187 150<449 523> 262 150<0 75> 262 75<75 449 804 822> 430 56<598 617>
LayerCount: 2
Fore
SplineSet
486 598 m 1,0,-1
 430 598 l 1,1,-1
 430 617 l 1,2,-1
 411 617 l 1,3,-1
 411 635 l 1,4,-1
 392 635 l 1,5,-1
 392 654 l 1,6,-1
 374 654 l 1,7,-1
 374 673 l 1,8,-1
 355 673 l 1,9,-1
 355 691 l 1,10,-1
 336 691 l 1,11,-1
 336 710 l 1,12,-1
 318 710 l 1,13,-1
 318 729 l 1,14,-1
 280 729 l 1,15,-1
 280 710 l 1,16,-1
 262 710 l 1,17,-1
 262 691 l 1,18,-1
 243 691 l 1,19,-1
 243 673 l 1,20,-1
 224 673 l 1,21,-1
 224 654 l 1,22,-1
 206 654 l 1,23,-1
 206 635 l 1,24,-1
 187 635 l 1,25,-1
 187 617 l 1,26,-1
 168 617 l 1,27,-1
 168 598 l 1,28,-1
 112 598 l 1,29,-1
 112 673 l 1,30,-1
 131 673 l 1,31,-1
 131 691 l 1,32,-1
 150 691 l 1,33,-1
 150 710 l 1,34,-1
 168 710 l 1,35,-1
 168 729 l 1,36,-1
 187 729 l 1,37,-1
 187 748 l 1,38,-1
 206 748 l 1,39,-1
 206 766 l 1,40,-1
 224 766 l 1,41,-1
 224 785 l 1,42,-1
 243 785 l 1,43,-1
 243 804 l 1,44,-1
 262 804 l 1,45,-1
 262 822 l 1,46,-1
 336 822 l 1,47,-1
 336 804 l 1,48,-1
 355 804 l 1,49,-1
 355 785 l 1,50,-1
 374 785 l 1,51,-1
 374 766 l 1,52,-1
 392 766 l 1,53,-1
 392 748 l 1,54,-1
 411 748 l 1,55,-1
 411 729 l 1,56,-1
 430 729 l 1,57,-1
 430 710 l 1,58,-1
 449 710 l 1,59,-1
 449 691 l 1,60,-1
 467 691 l 1,61,-1
 467 673 l 1,62,-1
 486 673 l 1,63,-1
 486 598 l 1,0,-1
411 0 m 1,64,-1
 262 0 l 1,65,-1
 262 449 l 1,66,-1
 187 449 l 1,67,-1
 187 523 l 1,68,-1
 336 523 l 1,69,-1
 336 75 l 1,70,-1
 411 75 l 1,71,-1
 411 0 l 1,64,-1
EndSplineSet
EndChar

StartChar: LATIN
Encoding: 239 239 178
Width: 598
VWidth: 1196
GlyphClass: 1
Flags: HW
HStem: 0 75<336 411> 449 75<187 262> 635 112<150 224 374 449>
VStem: 150 75<635 748> 187 150<449 523> 262 150<0 75> 262 75<75 449> 374 75<635 748>
LayerCount: 2
Fore
SplineSet
224 635 m 1,0,-1
 150 635 l 1,1,-1
 150 748 l 1,2,-1
 224 748 l 1,3,-1
 224 635 l 1,0,-1
449 635 m 1,4,-1
 374 635 l 1,5,-1
 374 748 l 1,6,-1
 449 748 l 1,7,-1
 449 635 l 1,4,-1
411 0 m 1,8,-1
 262 0 l 1,9,-1
 262 449 l 1,10,-1
 187 449 l 1,11,-1
 187 523 l 1,12,-1
 336 523 l 1,13,-1
 336 75 l 1,14,-1
 411 75 l 1,15,-1
 411 0 l 1,8,-1
EndSplineSet
EndChar

StartChar: LATIN
Encoding: 240 240 179
Width: 598
VWidth: 1196
GlyphClass: 1
Flags: HW
HStem: 0 93<168 187 411 430> 0 75<187 411> 19 93<150 168 430 449> 449 75<187 318> 691 93<150 168 280 299> 710 75<131 150 299 318> 729 56<112 131 318 336>
VStem: 75 93<93 112 411 430> 75 75<112 411> 93 93<75 93 430 449> 112 93<579 598 748 766> 112 75<561 579 766 785> 411 93<75 93 430 449> 430 93<93 112 411 430> 449 75<112 411>
LayerCount: 2
Fore
SplineSet
187 75 m 1,0,-1
 411 75 l 1,1,-1
 411 93 l 1,2,-1
 430 93 l 1,3,-1
 430 112 l 1,4,-1
 449 112 l 1,5,-1
 449 411 l 1,6,-1
 430 411 l 1,7,-1
 430 430 l 1,8,-1
 411 430 l 1,9,-1
 411 449 l 1,10,-1
 187 449 l 1,11,-1
 187 430 l 1,12,-1
 168 430 l 1,13,-1
 168 411 l 1,14,-1
 150 411 l 1,15,-1
 150 112 l 1,16,-1
 168 112 l 1,17,-1
 168 93 l 1,18,-1
 187 93 l 1,19,-1
 187 75 l 1,0,-1
430 0 m 1,20,-1
 168 0 l 1,21,-1
 168 19 l 1,22,-1
 131 19 l 1,23,-1
 131 37 l 1,24,-1
 112 37 l 1,25,-1
 112 56 l 1,26,-1
 93 56 l 1,27,-1
 93 93 l 1,28,-1
 75 93 l 1,29,-1
 75 430 l 1,30,-1
 93 430 l 1,31,-1
 93 467 l 1,32,-1
 112 467 l 1,33,-1
 112 486 l 1,34,-1
 131 486 l 1,35,-1
 131 505 l 1,36,-1
 168 505 l 1,37,-1
 168 523 l 1,38,-1
 318 523 l 1,39,-1
 318 542 l 1,40,-1
 299 542 l 1,41,-1
 299 561 l 1,42,-1
 280 561 l 1,43,-1
 280 579 l 1,44,-1
 262 579 l 1,45,-1
 262 598 l 1,46,-1
 243 598 l 1,47,-1
 243 617 l 1,48,-1
 224 617 l 1,49,-1
 224 598 l 1,50,-1
 206 598 l 1,51,-1
 206 579 l 1,52,-1
 187 579 l 1,53,-1
 187 561 l 1,54,-1
 112 561 l 1,55,-1
 112 635 l 1,56,-1
 131 635 l 1,57,-1
 131 654 l 1,58,-1
 150 654 l 1,59,-1
 150 673 l 1,60,-1
 168 673 l 1,61,-1
 168 691 l 1,62,-1
 150 691 l 1,63,-1
 150 710 l 1,64,-1
 131 710 l 1,65,-1
 131 729 l 1,66,-1
 112 729 l 1,67,-1
 112 785 l 1,68,-1
 187 785 l 1,69,-1
 187 766 l 1,70,-1
 206 766 l 1,71,-1
 206 748 l 1,72,-1
 243 748 l 1,73,-1
 243 766 l 1,74,-1
 262 766 l 1,75,-1
 262 785 l 1,76,-1
 336 785 l 1,77,-1
 336 729 l 1,78,-1
 318 729 l 1,79,-1
 318 710 l 1,80,-1
 299 710 l 1,81,-1
 299 691 l 1,82,-1
 280 691 l 1,83,-1
 280 673 l 1,84,-1
 299 673 l 1,85,-1
 299 654 l 1,86,-1
 318 654 l 1,87,-1
 318 635 l 1,88,-1
 336 635 l 1,89,-1
 336 617 l 1,90,-1
 355 617 l 1,91,-1
 355 598 l 1,92,-1
 374 598 l 1,93,-1
 374 579 l 1,94,-1
 392 579 l 1,95,-1
 392 561 l 1,96,-1
 411 561 l 1,97,-1
 411 542 l 1,98,-1
 430 542 l 1,99,-1
 430 523 l 1,100,-1
 449 523 l 1,101,-1
 449 505 l 1,102,-1
 467 505 l 1,103,-1
 467 486 l 1,104,-1
 486 486 l 1,105,-1
 486 467 l 1,106,-1
 505 467 l 1,107,-1
 505 430 l 1,108,-1
 523 430 l 1,109,-1
 523 93 l 1,110,-1
 505 93 l 1,111,-1
 505 56 l 1,112,-1
 486 56 l 1,113,-1
 486 37 l 1,114,-1
 467 37 l 1,115,-1
 467 19 l 1,116,-1
 430 19 l 1,117,-1
 430 0 l 1,20,-1
EndSplineSet
EndChar

StartChar: LATIN
Encoding: 241 241 180
Width: 598
VWidth: 1196
GlyphClass: 1
Flags: HW
HStem: 0 25G<75 150 449 523> 449 75<150 411> 635 93<336 355 411 430> 635 75<355 411> 654 93<318 336 430 449> 710 93<150 168 243 262> 729 93<168 187 224 243> 748 75<187 224>
VStem: 75 75<0 449 635 710> 430 93<411 430 729 748> 449 75<0 411 748 822>
LayerCount: 2
Fore
SplineSet
430 635 m 1,0,-1
 336 635 l 1,1,-1
 336 654 l 1,2,-1
 299 654 l 1,3,-1
 299 673 l 1,4,-1
 280 673 l 1,5,-1
 280 691 l 1,6,-1
 262 691 l 1,7,-1
 262 710 l 1,8,-1
 243 710 l 1,9,-1
 243 729 l 1,10,-1
 224 729 l 1,11,-1
 224 748 l 1,12,-1
 187 748 l 1,13,-1
 187 729 l 1,14,-1
 168 729 l 1,15,-1
 168 710 l 1,16,-1
 150 710 l 1,17,-1
 150 635 l 1,18,-1
 75 635 l 1,19,-1
 75 748 l 1,20,-1
 93 748 l 1,21,-1
 93 766 l 1,22,-1
 112 766 l 1,23,-1
 112 785 l 1,24,-1
 131 785 l 1,25,-1
 131 804 l 1,26,-1
 168 804 l 1,27,-1
 168 822 l 1,28,-1
 243 822 l 1,29,-1
 243 804 l 1,30,-1
 280 804 l 1,31,-1
 280 785 l 1,32,-1
 299 785 l 1,33,-1
 299 766 l 1,34,-1
 318 766 l 1,35,-1
 318 748 l 1,36,-1
 336 748 l 1,37,-1
 336 729 l 1,38,-1
 355 729 l 1,39,-1
 355 710 l 1,40,-1
 411 710 l 1,41,-1
 411 729 l 1,42,-1
 430 729 l 1,43,-1
 430 748 l 1,44,-1
 449 748 l 1,45,-1
 449 822 l 1,46,-1
 523 822 l 1,47,-1
 523 710 l 1,48,-1
 505 710 l 1,49,-1
 505 691 l 1,50,-1
 486 691 l 1,51,-1
 486 673 l 1,52,-1
 467 673 l 1,53,-1
 467 654 l 1,54,-1
 430 654 l 1,55,-1
 430 635 l 1,0,-1
523 0 m 1,56,-1
 449 0 l 1,57,-1
 449 411 l 1,58,-1
 430 411 l 1,59,-1
 430 430 l 1,60,-1
 411 430 l 1,61,-1
 411 449 l 1,62,-1
 150 449 l 1,63,-1
 150 0 l 1,64,-1
 75 0 l 1,65,-1
 75 523 l 1,66,-1
 430 523 l 1,67,-1
 430 505 l 1,68,-1
 467 505 l 1,69,-1
 467 486 l 1,70,-1
 486 486 l 1,71,-1
 486 467 l 1,72,-1
 505 467 l 1,73,-1
 505 430 l 1,74,-1
 523 430 l 1,75,-1
 523 0 l 1,56,-1
EndSplineSet
EndChar

StartChar: LATIN
Encoding: 242 242 181
Width: 598
VWidth: 1196
GlyphClass: 1
Flags: HW
HStem: 0 93<168 187 411 430> 0 75<187 411> 19 93<150 168 430 449> 411 93<150 168 430 449> 430 93<168 187 411 430> 449 75<187 411> 598 56<392 411>
VStem: 75 93<93 112 411 430> 75 75<112 411> 93 93<75 93 430 449> 187 56<804 822> 411 93<75 93 430 449> 430 93<93 112 411 430> 449 75<112 411>
LayerCount: 2
Fore
SplineSet
411 598 m 1,0,-1
 336 598 l 1,1,-1
 336 617 l 1,2,-1
 318 617 l 1,3,-1
 318 635 l 1,4,-1
 299 635 l 1,5,-1
 299 654 l 1,6,-1
 280 654 l 1,7,-1
 280 673 l 1,8,-1
 262 673 l 1,9,-1
 262 691 l 1,10,-1
 243 691 l 1,11,-1
 243 710 l 1,12,-1
 224 710 l 1,13,-1
 224 729 l 1,14,-1
 206 729 l 1,15,-1
 206 748 l 1,16,-1
 187 748 l 1,17,-1
 187 822 l 1,18,-1
 243 822 l 1,19,-1
 243 804 l 1,20,-1
 262 804 l 1,21,-1
 262 785 l 1,22,-1
 280 785 l 1,23,-1
 280 766 l 1,24,-1
 299 766 l 1,25,-1
 299 748 l 1,26,-1
 318 748 l 1,27,-1
 318 729 l 1,28,-1
 336 729 l 1,29,-1
 336 710 l 1,30,-1
 355 710 l 1,31,-1
 355 691 l 1,32,-1
 374 691 l 1,33,-1
 374 673 l 1,34,-1
 392 673 l 1,35,-1
 392 654 l 1,36,-1
 411 654 l 1,37,-1
 411 598 l 1,0,-1
187 75 m 1,38,-1
 411 75 l 1,39,-1
 411 93 l 1,40,-1
 430 93 l 1,41,-1
 430 112 l 1,42,-1
 449 112 l 1,43,-1
 449 411 l 1,44,-1
 430 411 l 1,45,-1
 430 430 l 1,46,-1
 411 430 l 1,47,-1
 411 449 l 1,48,-1
 187 449 l 1,49,-1
 187 430 l 1,50,-1
 168 430 l 1,51,-1
 168 411 l 1,52,-1
 150 411 l 1,53,-1
 150 112 l 1,54,-1
 168 112 l 1,55,-1
 168 93 l 1,56,-1
 187 93 l 1,57,-1
 187 75 l 1,38,-1
430 0 m 1,58,-1
 168 0 l 1,59,-1
 168 19 l 1,60,-1
 131 19 l 1,61,-1
 131 37 l 1,62,-1
 112 37 l 1,63,-1
 112 56 l 1,64,-1
 93 56 l 1,65,-1
 93 93 l 1,66,-1
 75 93 l 1,67,-1
 75 430 l 1,68,-1
 93 430 l 1,69,-1
 93 467 l 1,70,-1
 112 467 l 1,71,-1
 112 486 l 1,72,-1
 131 486 l 1,73,-1
 131 505 l 1,74,-1
 168 505 l 1,75,-1
 168 523 l 1,76,-1
 430 523 l 1,77,-1
 430 505 l 1,78,-1
 467 505 l 1,79,-1
 467 486 l 1,80,-1
 486 486 l 1,81,-1
 486 467 l 1,82,-1
 505 467 l 1,83,-1
 505 430 l 1,84,-1
 523 430 l 1,85,-1
 523 93 l 1,86,-1
 505 93 l 1,87,-1
 505 56 l 1,88,-1
 486 56 l 1,89,-1
 486 37 l 1,90,-1
 467 37 l 1,91,-1
 467 19 l 1,92,-1
 430 19 l 1,93,-1
 430 0 l 1,58,-1
EndSplineSet
EndChar

StartChar: LATIN
Encoding: 243 243 182
Width: 598
VWidth: 1196
GlyphClass: 1
Flags: HW
HStem: 0 93<168 187 411 430> 0 75<187 411> 19 93<150 168 430 449> 411 93<150 168 430 449> 430 93<168 187 411 430> 449 75<187 411> 598 56<187 206>
VStem: 75 93<93 112 411 430> 75 75<112 411> 93 93<75 93 430 449> 355 56<804 822> 411 93<75 93 430 449> 430 93<93 112 411 430> 449 75<112 411>
LayerCount: 2
Fore
SplineSet
262 598 m 1,0,-1
 187 598 l 1,1,-1
 187 654 l 1,2,-1
 206 654 l 1,3,-1
 206 673 l 1,4,-1
 224 673 l 1,5,-1
 224 691 l 1,6,-1
 243 691 l 1,7,-1
 243 710 l 1,8,-1
 262 710 l 1,9,-1
 262 729 l 1,10,-1
 280 729 l 1,11,-1
 280 748 l 1,12,-1
 299 748 l 1,13,-1
 299 766 l 1,14,-1
 318 766 l 1,15,-1
 318 785 l 1,16,-1
 336 785 l 1,17,-1
 336 804 l 1,18,-1
 355 804 l 1,19,-1
 355 822 l 1,20,-1
 411 822 l 1,21,-1
 411 748 l 1,22,-1
 392 748 l 1,23,-1
 392 729 l 1,24,-1
 374 729 l 1,25,-1
 374 710 l 1,26,-1
 355 710 l 1,27,-1
 355 691 l 1,28,-1
 336 691 l 1,29,-1
 336 673 l 1,30,-1
 318 673 l 1,31,-1
 318 654 l 1,32,-1
 299 654 l 1,33,-1
 299 635 l 1,34,-1
 280 635 l 1,35,-1
 280 617 l 1,36,-1
 262 617 l 1,37,-1
 262 598 l 1,0,-1
187 75 m 1,38,-1
 411 75 l 1,39,-1
 411 93 l 1,40,-1
 430 93 l 1,41,-1
 430 112 l 1,42,-1
 449 112 l 1,43,-1
 449 411 l 1,44,-1
 430 411 l 1,45,-1
 430 430 l 1,46,-1
 411 430 l 1,47,-1
 411 449 l 1,48,-1
 187 449 l 1,49,-1
 187 430 l 1,50,-1
 168 430 l 1,51,-1
 168 411 l 1,52,-1
 150 411 l 1,53,-1
 150 112 l 1,54,-1
 168 112 l 1,55,-1
 168 93 l 1,56,-1
 187 93 l 1,57,-1
 187 75 l 1,38,-1
430 0 m 1,58,-1
 168 0 l 1,59,-1
 168 19 l 1,60,-1
 131 19 l 1,61,-1
 131 37 l 1,62,-1
 112 37 l 1,63,-1
 112 56 l 1,64,-1
 93 56 l 1,65,-1
 93 93 l 1,66,-1
 75 93 l 1,67,-1
 75 430 l 1,68,-1
 93 430 l 1,69,-1
 93 467 l 1,70,-1
 112 467 l 1,71,-1
 112 486 l 1,72,-1
 131 486 l 1,73,-1
 131 505 l 1,74,-1
 168 505 l 1,75,-1
 168 523 l 1,76,-1
 430 523 l 1,77,-1
 430 505 l 1,78,-1
 467 505 l 1,79,-1
 467 486 l 1,80,-1
 486 486 l 1,81,-1
 486 467 l 1,82,-1
 505 467 l 1,83,-1
 505 430 l 1,84,-1
 523 430 l 1,85,-1
 523 93 l 1,86,-1
 505 93 l 1,87,-1
 505 56 l 1,88,-1
 486 56 l 1,89,-1
 486 37 l 1,90,-1
 467 37 l 1,91,-1
 467 19 l 1,92,-1
 430 19 l 1,93,-1
 430 0 l 1,58,-1
EndSplineSet
EndChar

StartChar: LATIN
Encoding: 244 244 183
Width: 598
VWidth: 1196
GlyphClass: 1
Flags: HW
HStem: 0 93<168 187 411 430> 0 75<187 411> 19 93<150 168 430 449> 411 93<150 168 430 449> 430 93<168 187 411 430> 449 75<187 411> 598 93<131 150 449 467> 598 75<112 131 467 486> 729 93<280 318>
VStem: 75 75<112 411> 93 93<75 93 430 449> 112 56<598 617> 411 93<75 93 430 449> 430 56<598 617> 449 75<112 411>
LayerCount: 2
Fore
SplineSet
486 598 m 1,0,-1
 430 598 l 1,1,-1
 430 617 l 1,2,-1
 411 617 l 1,3,-1
 411 635 l 1,4,-1
 392 635 l 1,5,-1
 392 654 l 1,6,-1
 374 654 l 1,7,-1
 374 673 l 1,8,-1
 355 673 l 1,9,-1
 355 691 l 1,10,-1
 336 691 l 1,11,-1
 336 710 l 1,12,-1
 318 710 l 1,13,-1
 318 729 l 1,14,-1
 280 729 l 1,15,-1
 280 710 l 1,16,-1
 262 710 l 1,17,-1
 262 691 l 1,18,-1
 243 691 l 1,19,-1
 243 673 l 1,20,-1
 224 673 l 1,21,-1
 224 654 l 1,22,-1
 206 654 l 1,23,-1
 206 635 l 1,24,-1
 187 635 l 1,25,-1
 187 617 l 1,26,-1
 168 617 l 1,27,-1
 168 598 l 1,28,-1
 112 598 l 1,29,-1
 112 673 l 1,30,-1
 131 673 l 1,31,-1
 131 691 l 1,32,-1
 150 691 l 1,33,-1
 150 710 l 1,34,-1
 168 710 l 1,35,-1
 168 729 l 1,36,-1
 187 729 l 1,37,-1
 187 748 l 1,38,-1
 206 748 l 1,39,-1
 206 766 l 1,40,-1
 224 766 l 1,41,-1
 224 785 l 1,42,-1
 243 785 l 1,43,-1
 243 804 l 1,44,-1
 262 804 l 1,45,-1
 262 822 l 1,46,-1
 336 822 l 1,47,-1
 336 804 l 1,48,-1
 355 804 l 1,49,-1
 355 785 l 1,50,-1
 374 785 l 1,51,-1
 374 766 l 1,52,-1
 392 766 l 1,53,-1
 392 748 l 1,54,-1
 411 748 l 1,55,-1
 411 729 l 1,56,-1
 430 729 l 1,57,-1
 430 710 l 1,58,-1
 449 710 l 1,59,-1
 449 691 l 1,60,-1
 467 691 l 1,61,-1
 467 673 l 1,62,-1
 486 673 l 1,63,-1
 486 598 l 1,0,-1
187 75 m 1,64,-1
 411 75 l 1,65,-1
 411 93 l 1,66,-1
 430 93 l 1,67,-1
 430 112 l 1,68,-1
 449 112 l 1,69,-1
 449 411 l 1,70,-1
 430 411 l 1,71,-1
 430 430 l 1,72,-1
 411 430 l 1,73,-1
 411 449 l 1,74,-1
 187 449 l 1,75,-1
 187 430 l 1,76,-1
 168 430 l 1,77,-1
 168 411 l 1,78,-1
 150 411 l 1,79,-1
 150 112 l 1,80,-1
 168 112 l 1,81,-1
 168 93 l 1,82,-1
 187 93 l 1,83,-1
 187 75 l 1,64,-1
430 0 m 1,84,-1
 168 0 l 1,85,-1
 168 19 l 1,86,-1
 131 19 l 1,87,-1
 131 37 l 1,88,-1
 112 37 l 1,89,-1
 112 56 l 1,90,-1
 93 56 l 1,91,-1
 93 93 l 1,92,-1
 75 93 l 1,93,-1
 75 430 l 1,94,-1
 93 430 l 1,95,-1
 93 467 l 1,96,-1
 112 467 l 1,97,-1
 112 486 l 1,98,-1
 131 486 l 1,99,-1
 131 505 l 1,100,-1
 168 505 l 1,101,-1
 168 523 l 1,102,-1
 430 523 l 1,103,-1
 430 505 l 1,104,-1
 467 505 l 1,105,-1
 467 486 l 1,106,-1
 486 486 l 1,107,-1
 486 467 l 1,108,-1
 505 467 l 1,109,-1
 505 430 l 1,110,-1
 523 430 l 1,111,-1
 523 93 l 1,112,-1
 505 93 l 1,113,-1
 505 56 l 1,114,-1
 486 56 l 1,115,-1
 486 37 l 1,116,-1
 467 37 l 1,117,-1
 467 19 l 1,118,-1
 430 19 l 1,119,-1
 430 0 l 1,84,-1
EndSplineSet
EndChar

StartChar: LATIN
Encoding: 245 245 184
Width: 598
VWidth: 1196
GlyphClass: 1
Flags: HW
HStem: 0 93<168 187 411 430> 0 75<187 411> 19 93<150 168 430 449> 411 93<150 168 430 449> 430 93<168 187 411 430> 449 75<187 411> 635 93<336 355 411 430> 635 75<355 411> 654 93<318 336 430 449> 710 93<150 168 243 262> 729 93<168 187 224 243> 748 75<187 224>
VStem: 75 93<93 112 411 430 710 729> 75 75<112 411 635 710> 93 93<75 93 430 449> 411 93<75 93 430 449> 430 93<93 112 411 430 729 748> 449 75<112 411 748 822>
LayerCount: 2
Fore
SplineSet
430 635 m 1,0,-1
 336 635 l 1,1,-1
 336 654 l 1,2,-1
 299 654 l 1,3,-1
 299 673 l 1,4,-1
 280 673 l 1,5,-1
 280 691 l 1,6,-1
 262 691 l 1,7,-1
 262 710 l 1,8,-1
 243 710 l 1,9,-1
 243 729 l 1,10,-1
 224 729 l 1,11,-1
 224 748 l 1,12,-1
 187 748 l 1,13,-1
 187 729 l 1,14,-1
 168 729 l 1,15,-1
 168 710 l 1,16,-1
 150 710 l 1,17,-1
 150 635 l 1,18,-1
 75 635 l 1,19,-1
 75 748 l 1,20,-1
 93 748 l 1,21,-1
 93 766 l 1,22,-1
 112 766 l 1,23,-1
 112 785 l 1,24,-1
 131 785 l 1,25,-1
 131 804 l 1,26,-1
 168 804 l 1,27,-1
 168 822 l 1,28,-1
 243 822 l 1,29,-1
 243 804 l 1,30,-1
 280 804 l 1,31,-1
 280 785 l 1,32,-1
 299 785 l 1,33,-1
 299 766 l 1,34,-1
 318 766 l 1,35,-1
 318 748 l 1,36,-1
 336 748 l 1,37,-1
 336 729 l 1,38,-1
 355 729 l 1,39,-1
 355 710 l 1,40,-1
 411 710 l 1,41,-1
 411 729 l 1,42,-1
 430 729 l 1,43,-1
 430 748 l 1,44,-1
 449 748 l 1,45,-1
 449 822 l 1,46,-1
 523 822 l 1,47,-1
 523 710 l 1,48,-1
 505 710 l 1,49,-1
 505 691 l 1,50,-1
 486 691 l 1,51,-1
 486 673 l 1,52,-1
 467 673 l 1,53,-1
 467 654 l 1,54,-1
 430 654 l 1,55,-1
 430 635 l 1,0,-1
187 75 m 1,56,-1
 411 75 l 1,57,-1
 411 93 l 1,58,-1
 430 93 l 1,59,-1
 430 112 l 1,60,-1
 449 112 l 1,61,-1
 449 411 l 1,62,-1
 430 411 l 1,63,-1
 430 430 l 1,64,-1
 411 430 l 1,65,-1
 411 449 l 1,66,-1
 187 449 l 1,67,-1
 187 430 l 1,68,-1
 168 430 l 1,69,-1
 168 411 l 1,70,-1
 150 411 l 1,71,-1
 150 112 l 1,72,-1
 168 112 l 1,73,-1
 168 93 l 1,74,-1
 187 93 l 1,75,-1
 187 75 l 1,56,-1
430 0 m 1,76,-1
 168 0 l 1,77,-1
 168 19 l 1,78,-1
 131 19 l 1,79,-1
 131 37 l 1,80,-1
 112 37 l 1,81,-1
 112 56 l 1,82,-1
 93 56 l 1,83,-1
 93 93 l 1,84,-1
 75 93 l 1,85,-1
 75 430 l 1,86,-1
 93 430 l 1,87,-1
 93 467 l 1,88,-1
 112 467 l 1,89,-1
 112 486 l 1,90,-1
 131 486 l 1,91,-1
 131 505 l 1,92,-1
 168 505 l 1,93,-1
 168 523 l 1,94,-1
 430 523 l 1,95,-1
 430 505 l 1,96,-1
 467 505 l 1,97,-1
 467 486 l 1,98,-1
 486 486 l 1,99,-1
 486 467 l 1,100,-1
 505 467 l 1,101,-1
 505 430 l 1,102,-1
 523 430 l 1,103,-1
 523 93 l 1,104,-1
 505 93 l 1,105,-1
 505 56 l 1,106,-1
 486 56 l 1,107,-1
 486 37 l 1,108,-1
 467 37 l 1,109,-1
 467 19 l 1,110,-1
 430 19 l 1,111,-1
 430 0 l 1,76,-1
EndSplineSet
EndChar

StartChar: LATIN
Encoding: 246 246 185
Width: 598
VWidth: 1196
GlyphClass: 1
Flags: HW
HStem: 0 93<168 187 411 430> 0 75<187 411> 19 93<150 168 430 449> 411 93<150 168 430 449> 430 93<168 187 411 430> 449 75<187 411> 635 112<150 224 374 449>
VStem: 75 93<93 112 411 430> 75 75<112 411> 93 93<75 93 430 449> 150 75<635 748> 374 75<635 748> 411 93<75 93 430 449> 430 93<93 112 411 430> 449 75<112 411>
LayerCount: 2
Fore
SplineSet
224 635 m 1,0,-1
 150 635 l 1,1,-1
 150 748 l 1,2,-1
 224 748 l 1,3,-1
 224 635 l 1,0,-1
449 635 m 1,4,-1
 374 635 l 1,5,-1
 374 748 l 1,6,-1
 449 748 l 1,7,-1
 449 635 l 1,4,-1
187 75 m 1,8,-1
 411 75 l 1,9,-1
 411 93 l 1,10,-1
 430 93 l 1,11,-1
 430 112 l 1,12,-1
 449 112 l 1,13,-1
 449 411 l 1,14,-1
 430 411 l 1,15,-1
 430 430 l 1,16,-1
 411 430 l 1,17,-1
 411 449 l 1,18,-1
 187 449 l 1,19,-1
 187 430 l 1,20,-1
 168 430 l 1,21,-1
 168 411 l 1,22,-1
 150 411 l 1,23,-1
 150 112 l 1,24,-1
 168 112 l 1,25,-1
 168 93 l 1,26,-1
 187 93 l 1,27,-1
 187 75 l 1,8,-1
430 0 m 1,28,-1
 168 0 l 1,29,-1
 168 19 l 1,30,-1
 131 19 l 1,31,-1
 131 37 l 1,32,-1
 112 37 l 1,33,-1
 112 56 l 1,34,-1
 93 56 l 1,35,-1
 93 93 l 1,36,-1
 75 93 l 1,37,-1
 75 430 l 1,38,-1
 93 430 l 1,39,-1
 93 467 l 1,40,-1
 112 467 l 1,41,-1
 112 486 l 1,42,-1
 131 486 l 1,43,-1
 131 505 l 1,44,-1
 168 505 l 1,45,-1
 168 523 l 1,46,-1
 430 523 l 1,47,-1
 430 505 l 1,48,-1
 467 505 l 1,49,-1
 467 486 l 1,50,-1
 486 486 l 1,51,-1
 486 467 l 1,52,-1
 505 467 l 1,53,-1
 505 430 l 1,54,-1
 523 430 l 1,55,-1
 523 93 l 1,56,-1
 505 93 l 1,57,-1
 505 56 l 1,58,-1
 486 56 l 1,59,-1
 486 37 l 1,60,-1
 467 37 l 1,61,-1
 467 19 l 1,62,-1
 430 19 l 1,63,-1
 430 0 l 1,28,-1
EndSplineSet
EndChar

StartChar: DIVISION
Encoding: 247 247 186
Width: 598
VWidth: 1196
GlyphClass: 1
Flags: HW
HStem: 112 112<262 336> 299 75<112 486> 449 112<262 336>
VStem: 262 75<112 224 449 561>
CounterMasks: 1 e0
LayerCount: 2
Fore
SplineSet
336 449 m 1,0,-1
 262 449 l 1,1,-1
 262 561 l 1,2,-1
 336 561 l 1,3,-1
 336 449 l 1,0,-1
486 299 m 1,4,-1
 112 299 l 1,5,-1
 112 374 l 1,6,-1
 486 374 l 1,7,-1
 486 299 l 1,4,-1
336 112 m 1,8,-1
 262 112 l 1,9,-1
 262 224 l 1,10,-1
 336 224 l 1,11,-1
 336 112 l 1,8,-1
EndSplineSet
EndChar

StartChar: LATIN
Encoding: 248 248 187
Width: 598
VWidth: 1196
GlyphClass: 1
Flags: HW
HStem: 0 75<56 75 187 411> 0 56<37 56> 449 75<187 411 523 542> 467 56<542 561>
VStem: 37 56<0 19> 75 75<168 411> 449 75<112 336> 505 56<505 523>
LayerCount: 2
Fore
SplineSet
168 168 m 1,0,-1
 168 187 l 1,1,-1
 187 187 l 1,2,-1
 187 206 l 1,3,-1
 206 206 l 1,4,-1
 206 224 l 1,5,-1
 224 224 l 1,6,-1
 224 243 l 1,7,-1
 243 243 l 1,8,-1
 243 262 l 1,9,-1
 262 262 l 1,10,-1
 262 280 l 1,11,-1
 280 280 l 1,12,-1
 280 299 l 1,13,-1
 299 299 l 1,14,-1
 299 318 l 1,15,-1
 318 318 l 1,16,-1
 318 336 l 1,17,-1
 336 336 l 1,18,-1
 336 355 l 1,19,-1
 355 355 l 1,20,-1
 355 374 l 1,21,-1
 374 374 l 1,22,-1
 374 392 l 1,23,-1
 392 392 l 1,24,-1
 392 411 l 1,25,-1
 411 411 l 1,26,-1
 411 449 l 1,27,-1
 187 449 l 1,28,-1
 187 430 l 1,29,-1
 168 430 l 1,30,-1
 168 411 l 1,31,-1
 150 411 l 1,32,-1
 150 168 l 1,33,-1
 168 168 l 1,0,-1
187 75 m 1,34,-1
 411 75 l 1,35,-1
 411 93 l 1,36,-1
 430 93 l 1,37,-1
 430 112 l 1,38,-1
 449 112 l 1,39,-1
 449 336 l 1,40,-1
 430 336 l 1,41,-1
 430 318 l 1,42,-1
 411 318 l 1,43,-1
 411 299 l 1,44,-1
 392 299 l 1,45,-1
 392 280 l 1,46,-1
 374 280 l 1,47,-1
 374 262 l 1,48,-1
 355 262 l 1,49,-1
 355 243 l 1,50,-1
 336 243 l 1,51,-1
 336 224 l 1,52,-1
 318 224 l 1,53,-1
 318 206 l 1,54,-1
 299 206 l 1,55,-1
 299 187 l 1,56,-1
 280 187 l 1,57,-1
 280 168 l 1,58,-1
 262 168 l 1,59,-1
 262 150 l 1,60,-1
 243 150 l 1,61,-1
 243 131 l 1,62,-1
 224 131 l 1,63,-1
 224 112 l 1,64,-1
 206 112 l 1,65,-1
 206 93 l 1,66,-1
 187 93 l 1,67,-1
 187 75 l 1,34,-1
430 0 m 1,68,-1
 168 0 l 1,69,-1
 168 19 l 1,70,-1
 131 19 l 1,71,-1
 131 37 l 1,72,-1
 112 37 l 1,73,-1
 112 19 l 1,74,-1
 93 19 l 1,75,-1
 93 0 l 1,76,-1
 37 0 l 1,77,-1
 37 56 l 1,78,-1
 56 56 l 1,79,-1
 56 75 l 1,80,-1
 75 75 l 1,81,-1
 75 430 l 1,82,-1
 93 430 l 1,83,-1
 93 467 l 1,84,-1
 112 467 l 1,85,-1
 112 486 l 1,86,-1
 131 486 l 1,87,-1
 131 505 l 1,88,-1
 168 505 l 1,89,-1
 168 523 l 1,90,-1
 430 523 l 1,91,-1
 430 505 l 1,92,-1
 467 505 l 1,93,-1
 467 486 l 1,94,-1
 486 486 l 1,95,-1
 486 505 l 1,96,-1
 505 505 l 1,97,-1
 505 523 l 1,98,-1
 561 523 l 1,99,-1
 561 467 l 1,100,-1
 542 467 l 1,101,-1
 542 449 l 1,102,-1
 523 449 l 1,103,-1
 523 93 l 1,104,-1
 505 93 l 1,105,-1
 505 56 l 1,106,-1
 486 56 l 1,107,-1
 486 37 l 1,108,-1
 467 37 l 1,109,-1
 467 19 l 1,110,-1
 430 19 l 1,111,-1
 430 0 l 1,68,-1
EndSplineSet
EndChar

StartChar: LATIN
Encoding: 249 249 188
Width: 598
VWidth: 1196
GlyphClass: 1
Flags: HW
HStem: 0 75<187 449> 500 23G<75 150 449 523> 598 56<392 411>
VStem: 75 75<112 523> 187 56<804 822> 449 75<75 523>
LayerCount: 2
Fore
SplineSet
411 598 m 1,0,-1
 336 598 l 1,1,-1
 336 617 l 1,2,-1
 318 617 l 1,3,-1
 318 635 l 1,4,-1
 299 635 l 1,5,-1
 299 654 l 1,6,-1
 280 654 l 1,7,-1
 280 673 l 1,8,-1
 262 673 l 1,9,-1
 262 691 l 1,10,-1
 243 691 l 1,11,-1
 243 710 l 1,12,-1
 224 710 l 1,13,-1
 224 729 l 1,14,-1
 206 729 l 1,15,-1
 206 748 l 1,16,-1
 187 748 l 1,17,-1
 187 822 l 1,18,-1
 243 822 l 1,19,-1
 243 804 l 1,20,-1
 262 804 l 1,21,-1
 262 785 l 1,22,-1
 280 785 l 1,23,-1
 280 766 l 1,24,-1
 299 766 l 1,25,-1
 299 748 l 1,26,-1
 318 748 l 1,27,-1
 318 729 l 1,28,-1
 336 729 l 1,29,-1
 336 710 l 1,30,-1
 355 710 l 1,31,-1
 355 691 l 1,32,-1
 374 691 l 1,33,-1
 374 673 l 1,34,-1
 392 673 l 1,35,-1
 392 654 l 1,36,-1
 411 654 l 1,37,-1
 411 598 l 1,0,-1
523 0 m 1,38,-1
 168 0 l 1,39,-1
 168 19 l 1,40,-1
 131 19 l 1,41,-1
 131 37 l 1,42,-1
 112 37 l 1,43,-1
 112 56 l 1,44,-1
 93 56 l 1,45,-1
 93 93 l 1,46,-1
 75 93 l 1,47,-1
 75 523 l 1,48,-1
 150 523 l 1,49,-1
 150 112 l 1,50,-1
 168 112 l 1,51,-1
 168 93 l 1,52,-1
 187 93 l 1,53,-1
 187 75 l 1,54,-1
 449 75 l 1,55,-1
 449 523 l 1,56,-1
 523 523 l 1,57,-1
 523 0 l 1,38,-1
EndSplineSet
EndChar

StartChar: LATIN
Encoding: 250 250 189
Width: 598
VWidth: 1196
GlyphClass: 1
Flags: HW
HStem: 0 75<187 449> 500 23G<75 150 449 523> 598 56<187 206>
VStem: 75 75<112 523> 355 56<804 822> 449 75<75 523>
LayerCount: 2
Fore
SplineSet
262 598 m 1,0,-1
 187 598 l 1,1,-1
 187 654 l 1,2,-1
 206 654 l 1,3,-1
 206 673 l 1,4,-1
 224 673 l 1,5,-1
 224 691 l 1,6,-1
 243 691 l 1,7,-1
 243 710 l 1,8,-1
 262 710 l 1,9,-1
 262 729 l 1,10,-1
 280 729 l 1,11,-1
 280 748 l 1,12,-1
 299 748 l 1,13,-1
 299 766 l 1,14,-1
 318 766 l 1,15,-1
 318 785 l 1,16,-1
 336 785 l 1,17,-1
 336 804 l 1,18,-1
 355 804 l 1,19,-1
 355 822 l 1,20,-1
 411 822 l 1,21,-1
 411 748 l 1,22,-1
 392 748 l 1,23,-1
 392 729 l 1,24,-1
 374 729 l 1,25,-1
 374 710 l 1,26,-1
 355 710 l 1,27,-1
 355 691 l 1,28,-1
 336 691 l 1,29,-1
 336 673 l 1,30,-1
 318 673 l 1,31,-1
 318 654 l 1,32,-1
 299 654 l 1,33,-1
 299 635 l 1,34,-1
 280 635 l 1,35,-1
 280 617 l 1,36,-1
 262 617 l 1,37,-1
 262 598 l 1,0,-1
523 0 m 1,38,-1
 168 0 l 1,39,-1
 168 19 l 1,40,-1
 131 19 l 1,41,-1
 131 37 l 1,42,-1
 112 37 l 1,43,-1
 112 56 l 1,44,-1
 93 56 l 1,45,-1
 93 93 l 1,46,-1
 75 93 l 1,47,-1
 75 523 l 1,48,-1
 150 523 l 1,49,-1
 150 112 l 1,50,-1
 168 112 l 1,51,-1
 168 93 l 1,52,-1
 187 93 l 1,53,-1
 187 75 l 1,54,-1
 449 75 l 1,55,-1
 449 523 l 1,56,-1
 523 523 l 1,57,-1
 523 0 l 1,38,-1
EndSplineSet
EndChar

StartChar: LATIN
Encoding: 251 251 190
Width: 598
VWidth: 1196
GlyphClass: 1
Flags: HW
HStem: 0 75<187 449> 500 23G<75 150 449 523> 598 93<131 150 449 467> 598 75<112 131 467 486> 729 93<280 318>
VStem: 75 75<112 523> 112 56<598 617> 430 56<598 617> 449 75<75 523>
LayerCount: 2
Fore
SplineSet
486 598 m 1,0,-1
 430 598 l 1,1,-1
 430 617 l 1,2,-1
 411 617 l 1,3,-1
 411 635 l 1,4,-1
 392 635 l 1,5,-1
 392 654 l 1,6,-1
 374 654 l 1,7,-1
 374 673 l 1,8,-1
 355 673 l 1,9,-1
 355 691 l 1,10,-1
 336 691 l 1,11,-1
 336 710 l 1,12,-1
 318 710 l 1,13,-1
 318 729 l 1,14,-1
 280 729 l 1,15,-1
 280 710 l 1,16,-1
 262 710 l 1,17,-1
 262 691 l 1,18,-1
 243 691 l 1,19,-1
 243 673 l 1,20,-1
 224 673 l 1,21,-1
 224 654 l 1,22,-1
 206 654 l 1,23,-1
 206 635 l 1,24,-1
 187 635 l 1,25,-1
 187 617 l 1,26,-1
 168 617 l 1,27,-1
 168 598 l 1,28,-1
 112 598 l 1,29,-1
 112 673 l 1,30,-1
 131 673 l 1,31,-1
 131 691 l 1,32,-1
 150 691 l 1,33,-1
 150 710 l 1,34,-1
 168 710 l 1,35,-1
 168 729 l 1,36,-1
 187 729 l 1,37,-1
 187 748 l 1,38,-1
 206 748 l 1,39,-1
 206 766 l 1,40,-1
 224 766 l 1,41,-1
 224 785 l 1,42,-1
 243 785 l 1,43,-1
 243 804 l 1,44,-1
 262 804 l 1,45,-1
 262 822 l 1,46,-1
 336 822 l 1,47,-1
 336 804 l 1,48,-1
 355 804 l 1,49,-1
 355 785 l 1,50,-1
 374 785 l 1,51,-1
 374 766 l 1,52,-1
 392 766 l 1,53,-1
 392 748 l 1,54,-1
 411 748 l 1,55,-1
 411 729 l 1,56,-1
 430 729 l 1,57,-1
 430 710 l 1,58,-1
 449 710 l 1,59,-1
 449 691 l 1,60,-1
 467 691 l 1,61,-1
 467 673 l 1,62,-1
 486 673 l 1,63,-1
 486 598 l 1,0,-1
523 0 m 1,64,-1
 168 0 l 1,65,-1
 168 19 l 1,66,-1
 131 19 l 1,67,-1
 131 37 l 1,68,-1
 112 37 l 1,69,-1
 112 56 l 1,70,-1
 93 56 l 1,71,-1
 93 93 l 1,72,-1
 75 93 l 1,73,-1
 75 523 l 1,74,-1
 150 523 l 1,75,-1
 150 112 l 1,76,-1
 168 112 l 1,77,-1
 168 93 l 1,78,-1
 187 93 l 1,79,-1
 187 75 l 1,80,-1
 449 75 l 1,81,-1
 449 523 l 1,82,-1
 523 523 l 1,83,-1
 523 0 l 1,64,-1
EndSplineSet
EndChar

StartChar: LATIN
Encoding: 252 252 191
Width: 598
VWidth: 1196
GlyphClass: 1
Flags: HW
HStem: 0 75<187 449> 500 23G<75 150 449 523> 635 112<150 224 374 449>
VStem: 75 75<112 523> 150 75<635 748> 374 75<635 748> 449 75<75 523>
LayerCount: 2
Fore
SplineSet
224 635 m 1,0,-1
 150 635 l 1,1,-1
 150 748 l 1,2,-1
 224 748 l 1,3,-1
 224 635 l 1,0,-1
449 635 m 1,4,-1
 374 635 l 1,5,-1
 374 748 l 1,6,-1
 449 748 l 1,7,-1
 449 635 l 1,4,-1
523 0 m 1,8,-1
 168 0 l 1,9,-1
 168 19 l 1,10,-1
 131 19 l 1,11,-1
 131 37 l 1,12,-1
 112 37 l 1,13,-1
 112 56 l 1,14,-1
 93 56 l 1,15,-1
 93 93 l 1,16,-1
 75 93 l 1,17,-1
 75 523 l 1,18,-1
 150 523 l 1,19,-1
 150 112 l 1,20,-1
 168 112 l 1,21,-1
 168 93 l 1,22,-1
 187 93 l 1,23,-1
 187 75 l 1,24,-1
 449 75 l 1,25,-1
 449 523 l 1,26,-1
 523 523 l 1,27,-1
 523 0 l 1,8,-1
EndSplineSet
EndChar

StartChar: LATIN
Encoding: 253 253 192
Width: 598
VWidth: 1196
GlyphClass: 1
Flags: HW
HStem: -224 75<75 411> 0 75<187 449> 500 23G<75 150 449 523> 598 56<187 206>
VStem: 75 75<112 523> 355 56<804 822> 449 75<-112 0 75 523>
LayerCount: 2
Fore
SplineSet
262 598 m 1,0,-1
 187 598 l 1,1,-1
 187 654 l 1,2,-1
 206 654 l 1,3,-1
 206 673 l 1,4,-1
 224 673 l 1,5,-1
 224 691 l 1,6,-1
 243 691 l 1,7,-1
 243 710 l 1,8,-1
 262 710 l 1,9,-1
 262 729 l 1,10,-1
 280 729 l 1,11,-1
 280 748 l 1,12,-1
 299 748 l 1,13,-1
 299 766 l 1,14,-1
 318 766 l 1,15,-1
 318 785 l 1,16,-1
 336 785 l 1,17,-1
 336 804 l 1,18,-1
 355 804 l 1,19,-1
 355 822 l 1,20,-1
 411 822 l 1,21,-1
 411 748 l 1,22,-1
 392 748 l 1,23,-1
 392 729 l 1,24,-1
 374 729 l 1,25,-1
 374 710 l 1,26,-1
 355 710 l 1,27,-1
 355 691 l 1,28,-1
 336 691 l 1,29,-1
 336 673 l 1,30,-1
 318 673 l 1,31,-1
 318 654 l 1,32,-1
 299 654 l 1,33,-1
 299 635 l 1,34,-1
 280 635 l 1,35,-1
 280 617 l 1,36,-1
 262 617 l 1,37,-1
 262 598 l 1,0,-1
430 -224 m 1,38,-1
 75 -224 l 1,39,-1
 75 -150 l 1,40,-1
 411 -150 l 1,41,-1
 411 -131 l 1,42,-1
 430 -131 l 1,43,-1
 430 -112 l 1,44,-1
 449 -112 l 1,45,-1
 449 0 l 1,46,-1
 168 0 l 1,47,-1
 168 19 l 1,48,-1
 131 19 l 1,49,-1
 131 37 l 1,50,-1
 112 37 l 1,51,-1
 112 56 l 1,52,-1
 93 56 l 1,53,-1
 93 93 l 1,54,-1
 75 93 l 1,55,-1
 75 523 l 1,56,-1
 150 523 l 1,57,-1
 150 112 l 1,58,-1
 168 112 l 1,59,-1
 168 93 l 1,60,-1
 187 93 l 1,61,-1
 187 75 l 1,62,-1
 449 75 l 1,63,-1
 449 523 l 1,64,-1
 523 523 l 1,65,-1
 523 -131 l 1,66,-1
 505 -131 l 1,67,-1
 505 -168 l 1,68,-1
 486 -168 l 1,69,-1
 486 -187 l 1,70,-1
 467 -187 l 1,71,-1
 467 -206 l 1,72,-1
 430 -206 l 1,73,-1
 430 -224 l 1,38,-1
EndSplineSet
EndChar

StartChar: LATIN
Encoding: 254 254 193
Width: 598
VWidth: 1196
GlyphClass: 1
Flags: HW
HStem: -224 25G<75 150> 0 75<150 411> 449 75<150 411> 724 23G<75 150>
VStem: 75 75<-224 0 75 449 523 748> 411 93<75 93 430 449> 430 93<93 112 411 430> 449 75<112 411>
LayerCount: 2
Fore
SplineSet
150 75 m 1,0,-1
 411 75 l 1,1,-1
 411 93 l 1,2,-1
 430 93 l 1,3,-1
 430 112 l 1,4,-1
 449 112 l 1,5,-1
 449 411 l 1,6,-1
 430 411 l 1,7,-1
 430 430 l 1,8,-1
 411 430 l 1,9,-1
 411 449 l 1,10,-1
 150 449 l 1,11,-1
 150 75 l 1,0,-1
150 -224 m 1,12,-1
 75 -224 l 1,13,-1
 75 748 l 1,14,-1
 150 748 l 1,15,-1
 150 523 l 1,16,-1
 430 523 l 1,17,-1
 430 505 l 1,18,-1
 467 505 l 1,19,-1
 467 486 l 1,20,-1
 486 486 l 1,21,-1
 486 467 l 1,22,-1
 505 467 l 1,23,-1
 505 430 l 1,24,-1
 523 430 l 1,25,-1
 523 93 l 1,26,-1
 505 93 l 1,27,-1
 505 56 l 1,28,-1
 486 56 l 1,29,-1
 486 37 l 1,30,-1
 467 37 l 1,31,-1
 467 19 l 1,32,-1
 430 19 l 1,33,-1
 430 0 l 1,34,-1
 150 0 l 1,35,-1
 150 -224 l 1,12,-1
EndSplineSet
EndChar

StartChar: LATIN
Encoding: 255 255 194
Width: 598
VWidth: 1196
GlyphClass: 1
Flags: HW
HStem: -224 75<75 411> 0 75<187 449> 500 23G<75 150 449 523> 635 112<150 224 374 449>
VStem: 75 75<112 523> 150 75<635 748> 374 75<635 748> 449 75<-112 0 75 523>
LayerCount: 2
Fore
SplineSet
224 635 m 1,0,-1
 150 635 l 1,1,-1
 150 748 l 1,2,-1
 224 748 l 1,3,-1
 224 635 l 1,0,-1
449 635 m 1,4,-1
 374 635 l 1,5,-1
 374 748 l 1,6,-1
 449 748 l 1,7,-1
 449 635 l 1,4,-1
430 -224 m 1,8,-1
 75 -224 l 1,9,-1
 75 -150 l 1,10,-1
 411 -150 l 1,11,-1
 411 -131 l 1,12,-1
 430 -131 l 1,13,-1
 430 -112 l 1,14,-1
 449 -112 l 1,15,-1
 449 0 l 1,16,-1
 168 0 l 1,17,-1
 168 19 l 1,18,-1
 131 19 l 1,19,-1
 131 37 l 1,20,-1
 112 37 l 1,21,-1
 112 56 l 1,22,-1
 93 56 l 1,23,-1
 93 93 l 1,24,-1
 75 93 l 1,25,-1
 75 523 l 1,26,-1
 150 523 l 1,27,-1
 150 112 l 1,28,-1
 168 112 l 1,29,-1
 168 93 l 1,30,-1
 187 93 l 1,31,-1
 187 75 l 1,32,-1
 449 75 l 1,33,-1
 449 523 l 1,34,-1
 523 523 l 1,35,-1
 523 -131 l 1,36,-1
 505 -131 l 1,37,-1
 505 -168 l 1,38,-1
 486 -168 l 1,39,-1
 486 -187 l 1,40,-1
 467 -187 l 1,41,-1
 467 -206 l 1,42,-1
 430 -206 l 1,43,-1
 430 -224 l 1,8,-1
EndSplineSet
EndChar

StartChar: LATIN
Encoding: 257 257 195
Width: 598
VWidth: 1196
GlyphClass: 1
Flags: HW
HStem: 0 75<187 449> 262 75<187 449> 449 75<112 411> 598 75<150 449>
VStem: 75 93<93 112 224 243> 75 75<112 224> 93 93<75 93 243 262> 449 75<75 262 336 411>
LayerCount: 2
Fore
SplineSet
449 598 m 1,0,-1
 150 598 l 1,1,-1
 150 673 l 1,2,-1
 449 673 l 1,3,-1
 449 598 l 1,0,-1
187 75 m 1,4,-1
 449 75 l 1,5,-1
 449 262 l 1,6,-1
 187 262 l 1,7,-1
 187 243 l 1,8,-1
 168 243 l 1,9,-1
 168 224 l 1,10,-1
 150 224 l 1,11,-1
 150 112 l 1,12,-1
 168 112 l 1,13,-1
 168 93 l 1,14,-1
 187 93 l 1,15,-1
 187 75 l 1,4,-1
523 0 m 1,16,-1
 168 0 l 1,17,-1
 168 19 l 1,18,-1
 131 19 l 1,19,-1
 131 37 l 1,20,-1
 112 37 l 1,21,-1
 112 56 l 1,22,-1
 93 56 l 1,23,-1
 93 93 l 1,24,-1
 75 93 l 1,25,-1
 75 243 l 1,26,-1
 93 243 l 1,27,-1
 93 280 l 1,28,-1
 112 280 l 1,29,-1
 112 299 l 1,30,-1
 131 299 l 1,31,-1
 131 318 l 1,32,-1
 168 318 l 1,33,-1
 168 336 l 1,34,-1
 449 336 l 1,35,-1
 449 411 l 1,36,-1
 430 411 l 1,37,-1
 430 430 l 1,38,-1
 411 430 l 1,39,-1
 411 449 l 1,40,-1
 112 449 l 1,41,-1
 112 523 l 1,42,-1
 430 523 l 1,43,-1
 430 505 l 1,44,-1
 467 505 l 1,45,-1
 467 486 l 1,46,-1
 486 486 l 1,47,-1
 486 467 l 1,48,-1
 505 467 l 1,49,-1
 505 430 l 1,50,-1
 523 430 l 1,51,-1
 523 0 l 1,16,-1
EndSplineSet
EndChar

StartChar: LATIN
Encoding: 259 259 196
Width: 598
VWidth: 1196
GlyphClass: 1
Flags: HW
HStem: 0 75<187 449> 262 75<187 449> 449 75<112 411> 598 75<243 355> 617 75<224 243 355 374> 654 93<168 187 411 430> 691 56<150 168 430 449>
VStem: 75 93<93 112 224 243> 75 75<112 224> 93 93<75 93 243 262> 150 75<691 748> 374 75<691 748> 449 75<75 262 336 411>
LayerCount: 2
Fore
SplineSet
355 598 m 1,0,-1
 243 598 l 1,1,-1
 243 617 l 1,2,-1
 206 617 l 1,3,-1
 206 635 l 1,4,-1
 187 635 l 1,5,-1
 187 654 l 1,6,-1
 168 654 l 1,7,-1
 168 691 l 1,8,-1
 150 691 l 1,9,-1
 150 748 l 1,10,-1
 224 748 l 1,11,-1
 224 691 l 1,12,-1
 243 691 l 1,13,-1
 243 673 l 1,14,-1
 355 673 l 1,15,-1
 355 691 l 1,16,-1
 374 691 l 1,17,-1
 374 748 l 1,18,-1
 449 748 l 1,19,-1
 449 691 l 1,20,-1
 430 691 l 1,21,-1
 430 654 l 1,22,-1
 411 654 l 1,23,-1
 411 635 l 1,24,-1
 392 635 l 1,25,-1
 392 617 l 1,26,-1
 355 617 l 1,27,-1
 355 598 l 1,0,-1
187 75 m 1,28,-1
 449 75 l 1,29,-1
 449 262 l 1,30,-1
 187 262 l 1,31,-1
 187 243 l 1,32,-1
 168 243 l 1,33,-1
 168 224 l 1,34,-1
 150 224 l 1,35,-1
 150 112 l 1,36,-1
 168 112 l 1,37,-1
 168 93 l 1,38,-1
 187 93 l 1,39,-1
 187 75 l 1,28,-1
523 0 m 1,40,-1
 168 0 l 1,41,-1
 168 19 l 1,42,-1
 131 19 l 1,43,-1
 131 37 l 1,44,-1
 112 37 l 1,45,-1
 112 56 l 1,46,-1
 93 56 l 1,47,-1
 93 93 l 1,48,-1
 75 93 l 1,49,-1
 75 243 l 1,50,-1
 93 243 l 1,51,-1
 93 280 l 1,52,-1
 112 280 l 1,53,-1
 112 299 l 1,54,-1
 131 299 l 1,55,-1
 131 318 l 1,56,-1
 168 318 l 1,57,-1
 168 336 l 1,58,-1
 449 336 l 1,59,-1
 449 411 l 1,60,-1
 430 411 l 1,61,-1
 430 430 l 1,62,-1
 411 430 l 1,63,-1
 411 449 l 1,64,-1
 112 449 l 1,65,-1
 112 523 l 1,66,-1
 430 523 l 1,67,-1
 430 505 l 1,68,-1
 467 505 l 1,69,-1
 467 486 l 1,70,-1
 486 486 l 1,71,-1
 486 467 l 1,72,-1
 505 467 l 1,73,-1
 505 430 l 1,74,-1
 523 430 l 1,75,-1
 523 0 l 1,40,-1
EndSplineSet
EndChar

StartChar: LATIN
Encoding: 260 260 197
Width: 598
VWidth: 1196
GlyphClass: 1
Flags: HW
HStem: -187 75<430 561> -56 56<411 430> -37 37<430 449> 0 25G<75 150> 336 75<150 449> 635 93<150 168 430 449> 654 93<168 187 411 430> 673 75<187 411>
VStem: 75 75<0 336 411 635> 336 93<-112 -93 -56 -37> 336 75<-93 -56> 449 75<0 336 411 635>
LayerCount: 2
Fore
SplineSet
150 411 m 1,0,-1
 449 411 l 1,1,-1
 449 635 l 1,2,-1
 430 635 l 1,3,-1
 430 654 l 1,4,-1
 411 654 l 1,5,-1
 411 673 l 1,6,-1
 187 673 l 1,7,-1
 187 654 l 1,8,-1
 168 654 l 1,9,-1
 168 635 l 1,10,-1
 150 635 l 1,11,-1
 150 411 l 1,0,-1
561 -187 m 1,12,-1
 374 -187 l 1,13,-1
 374 -168 l 1,14,-1
 355 -168 l 1,15,-1
 355 -150 l 1,16,-1
 336 -150 l 1,17,-1
 336 -37 l 1,18,-1
 355 -37 l 1,19,-1
 355 -19 l 1,20,-1
 374 -19 l 1,21,-1
 374 0 l 1,22,-1
 449 0 l 1,23,-1
 449 336 l 1,24,-1
 150 336 l 1,25,-1
 150 0 l 1,26,-1
 75 0 l 1,27,-1
 75 654 l 1,28,-1
 93 654 l 1,29,-1
 93 691 l 1,30,-1
 112 691 l 1,31,-1
 112 710 l 1,32,-1
 131 710 l 1,33,-1
 131 729 l 1,34,-1
 168 729 l 1,35,-1
 168 748 l 1,36,-1
 430 748 l 1,37,-1
 430 729 l 1,38,-1
 467 729 l 1,39,-1
 467 710 l 1,40,-1
 486 710 l 1,41,-1
 486 691 l 1,42,-1
 505 691 l 1,43,-1
 505 654 l 1,44,-1
 523 654 l 1,45,-1
 523 -37 l 1,46,-1
 430 -37 l 1,47,-1
 430 -56 l 1,48,-1
 411 -56 l 1,49,-1
 411 -93 l 1,50,-1
 430 -93 l 1,51,-1
 430 -112 l 1,52,-1
 561 -112 l 1,53,-1
 561 -187 l 1,12,-1
EndSplineSet
EndChar

StartChar: LATIN
Encoding: 261 261 198
Width: 598
VWidth: 1196
GlyphClass: 1
Flags: HW
HStem: -187 75<430 561> 0 75<187 374> 262 75<187 449> 449 75<112 411>
VStem: 75 93<93 112 224 243> 75 75<112 224> 93 93<75 93 243 262> 336 93<-112 -93 -56 -37> 336 75<-93 -56> 449 75<75 262 336 411>
LayerCount: 2
Fore
SplineSet
187 75 m 1,0,-1
 449 75 l 1,1,-1
 449 262 l 1,2,-1
 187 262 l 1,3,-1
 187 243 l 1,4,-1
 168 243 l 1,5,-1
 168 224 l 1,6,-1
 150 224 l 1,7,-1
 150 112 l 1,8,-1
 168 112 l 1,9,-1
 168 93 l 1,10,-1
 187 93 l 1,11,-1
 187 75 l 1,0,-1
561 -187 m 1,12,-1
 374 -187 l 1,13,-1
 374 -168 l 1,14,-1
 355 -168 l 1,15,-1
 355 -150 l 1,16,-1
 336 -150 l 1,17,-1
 336 -37 l 1,18,-1
 355 -37 l 1,19,-1
 355 -19 l 1,20,-1
 374 -19 l 1,21,-1
 374 0 l 1,22,-1
 168 0 l 1,23,-1
 168 19 l 1,24,-1
 131 19 l 1,25,-1
 131 37 l 1,26,-1
 112 37 l 1,27,-1
 112 56 l 1,28,-1
 93 56 l 1,29,-1
 93 93 l 1,30,-1
 75 93 l 1,31,-1
 75 243 l 1,32,-1
 93 243 l 1,33,-1
 93 280 l 1,34,-1
 112 280 l 1,35,-1
 112 299 l 1,36,-1
 131 299 l 1,37,-1
 131 318 l 1,38,-1
 168 318 l 1,39,-1
 168 336 l 1,40,-1
 449 336 l 1,41,-1
 449 411 l 1,42,-1
 430 411 l 1,43,-1
 430 430 l 1,44,-1
 411 430 l 1,45,-1
 411 449 l 1,46,-1
 112 449 l 1,47,-1
 112 523 l 1,48,-1
 430 523 l 1,49,-1
 430 505 l 1,50,-1
 467 505 l 1,51,-1
 467 486 l 1,52,-1
 486 486 l 1,53,-1
 486 467 l 1,54,-1
 505 467 l 1,55,-1
 505 430 l 1,56,-1
 523 430 l 1,57,-1
 523 -19 l 1,58,-1
 467 -19 l 1,59,-1
 467 -37 l 1,60,-1
 430 -37 l 1,61,-1
 430 -56 l 1,62,-1
 411 -56 l 1,63,-1
 411 -93 l 1,64,-1
 430 -93 l 1,65,-1
 430 -112 l 1,66,-1
 561 -112 l 1,67,-1
 561 -187 l 1,12,-1
EndSplineSet
EndChar

StartChar: LATIN
Encoding: 262 262 199
Width: 598
VWidth: 1196
GlyphClass: 1
Flags: HW
HStem: 0 75<187 523> 673 75<187 523> 785 56<262 280> 785 37<243 262> 878 56<411 430> 897 37<430 449>
VStem: 75 93<93 112 635 654> 75 75<112 635> 93 93<75 93 654 673>
LayerCount: 2
Fore
SplineSet
336 785 m 1,0,-1
 243 785 l 1,1,-1
 243 822 l 1,2,-1
 262 822 l 1,3,-1
 262 841 l 1,4,-1
 280 841 l 1,5,-1
 280 860 l 1,6,-1
 299 860 l 1,7,-1
 299 878 l 1,8,-1
 318 878 l 1,9,-1
 318 897 l 1,10,-1
 336 897 l 1,11,-1
 336 916 l 1,12,-1
 355 916 l 1,13,-1
 355 934 l 1,14,-1
 449 934 l 1,15,-1
 449 897 l 1,16,-1
 430 897 l 1,17,-1
 430 878 l 1,18,-1
 411 878 l 1,19,-1
 411 860 l 1,20,-1
 392 860 l 1,21,-1
 392 841 l 1,22,-1
 374 841 l 1,23,-1
 374 822 l 1,24,-1
 355 822 l 1,25,-1
 355 804 l 1,26,-1
 336 804 l 1,27,-1
 336 785 l 1,0,-1
523 0 m 1,28,-1
 168 0 l 1,29,-1
 168 19 l 1,30,-1
 131 19 l 1,31,-1
 131 37 l 1,32,-1
 112 37 l 1,33,-1
 112 56 l 1,34,-1
 93 56 l 1,35,-1
 93 93 l 1,36,-1
 75 93 l 1,37,-1
 75 654 l 1,38,-1
 93 654 l 1,39,-1
 93 691 l 1,40,-1
 112 691 l 1,41,-1
 112 710 l 1,42,-1
 131 710 l 1,43,-1
 131 729 l 1,44,-1
 168 729 l 1,45,-1
 168 748 l 1,46,-1
 523 748 l 1,47,-1
 523 673 l 1,48,-1
 187 673 l 1,49,-1
 187 654 l 1,50,-1
 168 654 l 1,51,-1
 168 635 l 1,52,-1
 150 635 l 1,53,-1
 150 112 l 1,54,-1
 168 112 l 1,55,-1
 168 93 l 1,56,-1
 187 93 l 1,57,-1
 187 75 l 1,58,-1
 523 75 l 1,59,-1
 523 0 l 1,28,-1
EndSplineSet
EndChar

StartChar: LATIN
Encoding: 263 263 200
Width: 598
VWidth: 1196
GlyphClass: 1
Flags: HW
HStem: 0 75<187 523> 449 75<187 523> 598 56<224 243>
VStem: 75 93<93 112 411 430> 75 75<112 411> 93 93<75 93 430 449> 392 56<804 822>
LayerCount: 2
Fore
SplineSet
299 598 m 1,0,-1
 224 598 l 1,1,-1
 224 654 l 1,2,-1
 243 654 l 1,3,-1
 243 673 l 1,4,-1
 262 673 l 1,5,-1
 262 691 l 1,6,-1
 280 691 l 1,7,-1
 280 710 l 1,8,-1
 299 710 l 1,9,-1
 299 729 l 1,10,-1
 318 729 l 1,11,-1
 318 748 l 1,12,-1
 336 748 l 1,13,-1
 336 766 l 1,14,-1
 355 766 l 1,15,-1
 355 785 l 1,16,-1
 374 785 l 1,17,-1
 374 804 l 1,18,-1
 392 804 l 1,19,-1
 392 822 l 1,20,-1
 449 822 l 1,21,-1
 449 748 l 1,22,-1
 430 748 l 1,23,-1
 430 729 l 1,24,-1
 411 729 l 1,25,-1
 411 710 l 1,26,-1
 392 710 l 1,27,-1
 392 691 l 1,28,-1
 374 691 l 1,29,-1
 374 673 l 1,30,-1
 355 673 l 1,31,-1
 355 654 l 1,32,-1
 336 654 l 1,33,-1
 336 635 l 1,34,-1
 318 635 l 1,35,-1
 318 617 l 1,36,-1
 299 617 l 1,37,-1
 299 598 l 1,0,-1
523 0 m 1,38,-1
 168 0 l 1,39,-1
 168 19 l 1,40,-1
 131 19 l 1,41,-1
 131 37 l 1,42,-1
 112 37 l 1,43,-1
 112 56 l 1,44,-1
 93 56 l 1,45,-1
 93 93 l 1,46,-1
 75 93 l 1,47,-1
 75 430 l 1,48,-1
 93 430 l 1,49,-1
 93 467 l 1,50,-1
 112 467 l 1,51,-1
 112 486 l 1,52,-1
 131 486 l 1,53,-1
 131 505 l 1,54,-1
 168 505 l 1,55,-1
 168 523 l 1,56,-1
 523 523 l 1,57,-1
 523 449 l 1,58,-1
 187 449 l 1,59,-1
 187 430 l 1,60,-1
 168 430 l 1,61,-1
 168 411 l 1,62,-1
 150 411 l 1,63,-1
 150 112 l 1,64,-1
 168 112 l 1,65,-1
 168 93 l 1,66,-1
 187 93 l 1,67,-1
 187 75 l 1,68,-1
 523 75 l 1,69,-1
 523 0 l 1,38,-1
EndSplineSet
EndChar

StartChar: LATIN
Encoding: 264 264 201
Width: 598
VWidth: 1196
GlyphClass: 1
Flags: HW
HStem: 0 75<187 523> 673 75<187 523> 822 93<206 224 374 392> 822 75<187 206 392 411> 822 56<168 187 411 430> 822 37<150 168 430 449> 878 93<280 318>
VStem: 75 93<93 112 635 654> 75 75<112 635> 93 93<75 93 654 673>
LayerCount: 2
Fore
SplineSet
449 822 m 1,0,-1
 355 822 l 1,1,-1
 355 841 l 1,2,-1
 336 841 l 1,3,-1
 336 860 l 1,4,-1
 318 860 l 1,5,-1
 318 878 l 1,6,-1
 280 878 l 1,7,-1
 280 860 l 1,8,-1
 262 860 l 1,9,-1
 262 841 l 1,10,-1
 243 841 l 1,11,-1
 243 822 l 1,12,-1
 150 822 l 1,13,-1
 150 860 l 1,14,-1
 168 860 l 1,15,-1
 168 878 l 1,16,-1
 187 878 l 1,17,-1
 187 897 l 1,18,-1
 206 897 l 1,19,-1
 206 916 l 1,20,-1
 224 916 l 1,21,-1
 224 934 l 1,22,-1
 243 934 l 1,23,-1
 243 953 l 1,24,-1
 262 953 l 1,25,-1
 262 972 l 1,26,-1
 336 972 l 1,27,-1
 336 953 l 1,28,-1
 355 953 l 1,29,-1
 355 934 l 1,30,-1
 374 934 l 1,31,-1
 374 916 l 1,32,-1
 392 916 l 1,33,-1
 392 897 l 1,34,-1
 411 897 l 1,35,-1
 411 878 l 1,36,-1
 430 878 l 1,37,-1
 430 860 l 1,38,-1
 449 860 l 1,39,-1
 449 822 l 1,0,-1
523 0 m 1,40,-1
 168 0 l 1,41,-1
 168 19 l 1,42,-1
 131 19 l 1,43,-1
 131 37 l 1,44,-1
 112 37 l 1,45,-1
 112 56 l 1,46,-1
 93 56 l 1,47,-1
 93 93 l 1,48,-1
 75 93 l 1,49,-1
 75 654 l 1,50,-1
 93 654 l 1,51,-1
 93 691 l 1,52,-1
 112 691 l 1,53,-1
 112 710 l 1,54,-1
 131 710 l 1,55,-1
 131 729 l 1,56,-1
 168 729 l 1,57,-1
 168 748 l 1,58,-1
 523 748 l 1,59,-1
 523 673 l 1,60,-1
 187 673 l 1,61,-1
 187 654 l 1,62,-1
 168 654 l 1,63,-1
 168 635 l 1,64,-1
 150 635 l 1,65,-1
 150 112 l 1,66,-1
 168 112 l 1,67,-1
 168 93 l 1,68,-1
 187 93 l 1,69,-1
 187 75 l 1,70,-1
 523 75 l 1,71,-1
 523 0 l 1,40,-1
EndSplineSet
EndChar

StartChar: LATIN
Encoding: 265 265 202
Width: 598
VWidth: 1196
GlyphClass: 1
Flags: HW
HStem: 0 75<187 523> 449 75<187 523> 598 93<131 150 449 467> 598 75<112 131 467 486> 729 93<280 318>
VStem: 75 75<112 411> 93 93<75 93 430 449> 112 56<598 617> 430 56<598 617>
LayerCount: 2
Fore
SplineSet
486 598 m 1,0,-1
 430 598 l 1,1,-1
 430 617 l 1,2,-1
 411 617 l 1,3,-1
 411 635 l 1,4,-1
 392 635 l 1,5,-1
 392 654 l 1,6,-1
 374 654 l 1,7,-1
 374 673 l 1,8,-1
 355 673 l 1,9,-1
 355 691 l 1,10,-1
 336 691 l 1,11,-1
 336 710 l 1,12,-1
 318 710 l 1,13,-1
 318 729 l 1,14,-1
 280 729 l 1,15,-1
 280 710 l 1,16,-1
 262 710 l 1,17,-1
 262 691 l 1,18,-1
 243 691 l 1,19,-1
 243 673 l 1,20,-1
 224 673 l 1,21,-1
 224 654 l 1,22,-1
 206 654 l 1,23,-1
 206 635 l 1,24,-1
 187 635 l 1,25,-1
 187 617 l 1,26,-1
 168 617 l 1,27,-1
 168 598 l 1,28,-1
 112 598 l 1,29,-1
 112 673 l 1,30,-1
 131 673 l 1,31,-1
 131 691 l 1,32,-1
 150 691 l 1,33,-1
 150 710 l 1,34,-1
 168 710 l 1,35,-1
 168 729 l 1,36,-1
 187 729 l 1,37,-1
 187 748 l 1,38,-1
 206 748 l 1,39,-1
 206 766 l 1,40,-1
 224 766 l 1,41,-1
 224 785 l 1,42,-1
 243 785 l 1,43,-1
 243 804 l 1,44,-1
 262 804 l 1,45,-1
 262 822 l 1,46,-1
 336 822 l 1,47,-1
 336 804 l 1,48,-1
 355 804 l 1,49,-1
 355 785 l 1,50,-1
 374 785 l 1,51,-1
 374 766 l 1,52,-1
 392 766 l 1,53,-1
 392 748 l 1,54,-1
 411 748 l 1,55,-1
 411 729 l 1,56,-1
 430 729 l 1,57,-1
 430 710 l 1,58,-1
 449 710 l 1,59,-1
 449 691 l 1,60,-1
 467 691 l 1,61,-1
 467 673 l 1,62,-1
 486 673 l 1,63,-1
 486 598 l 1,0,-1
523 0 m 1,64,-1
 168 0 l 1,65,-1
 168 19 l 1,66,-1
 131 19 l 1,67,-1
 131 37 l 1,68,-1
 112 37 l 1,69,-1
 112 56 l 1,70,-1
 93 56 l 1,71,-1
 93 93 l 1,72,-1
 75 93 l 1,73,-1
 75 430 l 1,74,-1
 93 430 l 1,75,-1
 93 467 l 1,76,-1
 112 467 l 1,77,-1
 112 486 l 1,78,-1
 131 486 l 1,79,-1
 131 505 l 1,80,-1
 168 505 l 1,81,-1
 168 523 l 1,82,-1
 523 523 l 1,83,-1
 523 449 l 1,84,-1
 187 449 l 1,85,-1
 187 430 l 1,86,-1
 168 430 l 1,87,-1
 168 411 l 1,88,-1
 150 411 l 1,89,-1
 150 112 l 1,90,-1
 168 112 l 1,91,-1
 168 93 l 1,92,-1
 187 93 l 1,93,-1
 187 75 l 1,94,-1
 523 75 l 1,95,-1
 523 0 l 1,64,-1
EndSplineSet
EndChar

StartChar: LATIN
Encoding: 266 266 203
Width: 598
VWidth: 1196
GlyphClass: 1
Flags: HW
HStem: 0 75<187 523> 673 75<187 523> 822 112<262 336>
VStem: 75 93<93 112 635 654> 75 75<112 635> 93 93<75 93 654 673> 262 75<822 934>
LayerCount: 2
Fore
SplineSet
336 822 m 1,0,-1
 262 822 l 1,1,-1
 262 934 l 1,2,-1
 336 934 l 1,3,-1
 336 822 l 1,0,-1
523 0 m 1,4,-1
 168 0 l 1,5,-1
 168 19 l 1,6,-1
 131 19 l 1,7,-1
 131 37 l 1,8,-1
 112 37 l 1,9,-1
 112 56 l 1,10,-1
 93 56 l 1,11,-1
 93 93 l 1,12,-1
 75 93 l 1,13,-1
 75 654 l 1,14,-1
 93 654 l 1,15,-1
 93 691 l 1,16,-1
 112 691 l 1,17,-1
 112 710 l 1,18,-1
 131 710 l 1,19,-1
 131 729 l 1,20,-1
 168 729 l 1,21,-1
 168 748 l 1,22,-1
 523 748 l 1,23,-1
 523 673 l 1,24,-1
 187 673 l 1,25,-1
 187 654 l 1,26,-1
 168 654 l 1,27,-1
 168 635 l 1,28,-1
 150 635 l 1,29,-1
 150 112 l 1,30,-1
 168 112 l 1,31,-1
 168 93 l 1,32,-1
 187 93 l 1,33,-1
 187 75 l 1,34,-1
 523 75 l 1,35,-1
 523 0 l 1,4,-1
EndSplineSet
EndChar

StartChar: LATIN
Encoding: 267 267 204
Width: 598
VWidth: 1196
GlyphClass: 1
Flags: HW
HStem: 0 75<187 523> 449 75<187 523> 635 112<262 336>
VStem: 75 93<93 112 411 430> 75 75<112 411> 93 93<75 93 430 449> 262 75<635 748>
LayerCount: 2
Fore
SplineSet
336 635 m 1,0,-1
 262 635 l 1,1,-1
 262 748 l 1,2,-1
 336 748 l 1,3,-1
 336 635 l 1,0,-1
523 0 m 1,4,-1
 168 0 l 1,5,-1
 168 19 l 1,6,-1
 131 19 l 1,7,-1
 131 37 l 1,8,-1
 112 37 l 1,9,-1
 112 56 l 1,10,-1
 93 56 l 1,11,-1
 93 93 l 1,12,-1
 75 93 l 1,13,-1
 75 430 l 1,14,-1
 93 430 l 1,15,-1
 93 467 l 1,16,-1
 112 467 l 1,17,-1
 112 486 l 1,18,-1
 131 486 l 1,19,-1
 131 505 l 1,20,-1
 168 505 l 1,21,-1
 168 523 l 1,22,-1
 523 523 l 1,23,-1
 523 449 l 1,24,-1
 187 449 l 1,25,-1
 187 430 l 1,26,-1
 168 430 l 1,27,-1
 168 411 l 1,28,-1
 150 411 l 1,29,-1
 150 112 l 1,30,-1
 168 112 l 1,31,-1
 168 93 l 1,32,-1
 187 93 l 1,33,-1
 187 75 l 1,34,-1
 523 75 l 1,35,-1
 523 0 l 1,4,-1
EndSplineSet
EndChar

StartChar: LATIN
Encoding: 268 268 205
Width: 598
VWidth: 1196
GlyphClass: 1
Flags: HW
HStem: 0 75<187 523> 673 75<187 523> 822 93<280 318> 878 93<206 224 374 392> 897 75<187 206 392 411> 916 56<168 187 411 430> 934 37<150 168 430 449>
VStem: 75 93<93 112 635 654> 75 75<112 635> 93 93<75 93 654 673>
LayerCount: 2
Fore
SplineSet
336 822 m 1,0,-1
 262 822 l 1,1,-1
 262 841 l 1,2,-1
 243 841 l 1,3,-1
 243 860 l 1,4,-1
 224 860 l 1,5,-1
 224 878 l 1,6,-1
 206 878 l 1,7,-1
 206 897 l 1,8,-1
 187 897 l 1,9,-1
 187 916 l 1,10,-1
 168 916 l 1,11,-1
 168 934 l 1,12,-1
 150 934 l 1,13,-1
 150 972 l 1,14,-1
 243 972 l 1,15,-1
 243 953 l 1,16,-1
 262 953 l 1,17,-1
 262 934 l 1,18,-1
 280 934 l 1,19,-1
 280 916 l 1,20,-1
 318 916 l 1,21,-1
 318 934 l 1,22,-1
 336 934 l 1,23,-1
 336 953 l 1,24,-1
 355 953 l 1,25,-1
 355 972 l 1,26,-1
 449 972 l 1,27,-1
 449 934 l 1,28,-1
 430 934 l 1,29,-1
 430 916 l 1,30,-1
 411 916 l 1,31,-1
 411 897 l 1,32,-1
 392 897 l 1,33,-1
 392 878 l 1,34,-1
 374 878 l 1,35,-1
 374 860 l 1,36,-1
 355 860 l 1,37,-1
 355 841 l 1,38,-1
 336 841 l 1,39,-1
 336 822 l 1,0,-1
523 0 m 1,40,-1
 168 0 l 1,41,-1
 168 19 l 1,42,-1
 131 19 l 1,43,-1
 131 37 l 1,44,-1
 112 37 l 1,45,-1
 112 56 l 1,46,-1
 93 56 l 1,47,-1
 93 93 l 1,48,-1
 75 93 l 1,49,-1
 75 654 l 1,50,-1
 93 654 l 1,51,-1
 93 691 l 1,52,-1
 112 691 l 1,53,-1
 112 710 l 1,54,-1
 131 710 l 1,55,-1
 131 729 l 1,56,-1
 168 729 l 1,57,-1
 168 748 l 1,58,-1
 523 748 l 1,59,-1
 523 673 l 1,60,-1
 187 673 l 1,61,-1
 187 654 l 1,62,-1
 168 654 l 1,63,-1
 168 635 l 1,64,-1
 150 635 l 1,65,-1
 150 112 l 1,66,-1
 168 112 l 1,67,-1
 168 93 l 1,68,-1
 187 93 l 1,69,-1
 187 75 l 1,70,-1
 523 75 l 1,71,-1
 523 0 l 1,40,-1
EndSplineSet
EndChar

StartChar: LATIN
Encoding: 269 269 206
Width: 598
VWidth: 1196
GlyphClass: 1
Flags: HW
HStem: 0 75<187 523> 449 75<187 523> 598 93<280 318> 729 93<131 150 449 467> 748 75<112 131 467 486>
VStem: 75 75<112 411> 93 93<75 93 430 449> 112 56<804 822> 430 56<804 822>
LayerCount: 2
Fore
SplineSet
336 598 m 1,0,-1
 262 598 l 1,1,-1
 262 617 l 1,2,-1
 243 617 l 1,3,-1
 243 635 l 1,4,-1
 224 635 l 1,5,-1
 224 654 l 1,6,-1
 206 654 l 1,7,-1
 206 673 l 1,8,-1
 187 673 l 1,9,-1
 187 691 l 1,10,-1
 168 691 l 1,11,-1
 168 710 l 1,12,-1
 150 710 l 1,13,-1
 150 729 l 1,14,-1
 131 729 l 1,15,-1
 131 748 l 1,16,-1
 112 748 l 1,17,-1
 112 822 l 1,18,-1
 168 822 l 1,19,-1
 168 804 l 1,20,-1
 187 804 l 1,21,-1
 187 785 l 1,22,-1
 206 785 l 1,23,-1
 206 766 l 1,24,-1
 224 766 l 1,25,-1
 224 748 l 1,26,-1
 243 748 l 1,27,-1
 243 729 l 1,28,-1
 262 729 l 1,29,-1
 262 710 l 1,30,-1
 280 710 l 1,31,-1
 280 691 l 1,32,-1
 318 691 l 1,33,-1
 318 710 l 1,34,-1
 336 710 l 1,35,-1
 336 729 l 1,36,-1
 355 729 l 1,37,-1
 355 748 l 1,38,-1
 374 748 l 1,39,-1
 374 766 l 1,40,-1
 392 766 l 1,41,-1
 392 785 l 1,42,-1
 411 785 l 1,43,-1
 411 804 l 1,44,-1
 430 804 l 1,45,-1
 430 822 l 1,46,-1
 486 822 l 1,47,-1
 486 748 l 1,48,-1
 467 748 l 1,49,-1
 467 729 l 1,50,-1
 449 729 l 1,51,-1
 449 710 l 1,52,-1
 430 710 l 1,53,-1
 430 691 l 1,54,-1
 411 691 l 1,55,-1
 411 673 l 1,56,-1
 392 673 l 1,57,-1
 392 654 l 1,58,-1
 374 654 l 1,59,-1
 374 635 l 1,60,-1
 355 635 l 1,61,-1
 355 617 l 1,62,-1
 336 617 l 1,63,-1
 336 598 l 1,0,-1
523 0 m 1,64,-1
 168 0 l 1,65,-1
 168 19 l 1,66,-1
 131 19 l 1,67,-1
 131 37 l 1,68,-1
 112 37 l 1,69,-1
 112 56 l 1,70,-1
 93 56 l 1,71,-1
 93 93 l 1,72,-1
 75 93 l 1,73,-1
 75 430 l 1,74,-1
 93 430 l 1,75,-1
 93 467 l 1,76,-1
 112 467 l 1,77,-1
 112 486 l 1,78,-1
 131 486 l 1,79,-1
 131 505 l 1,80,-1
 168 505 l 1,81,-1
 168 523 l 1,82,-1
 523 523 l 1,83,-1
 523 449 l 1,84,-1
 187 449 l 1,85,-1
 187 430 l 1,86,-1
 168 430 l 1,87,-1
 168 411 l 1,88,-1
 150 411 l 1,89,-1
 150 112 l 1,90,-1
 168 112 l 1,91,-1
 168 93 l 1,92,-1
 187 93 l 1,93,-1
 187 75 l 1,94,-1
 523 75 l 1,95,-1
 523 0 l 1,64,-1
EndSplineSet
EndChar

StartChar: LATIN
Encoding: 270 270 207
Width: 598
VWidth: 1196
GlyphClass: 1
Flags: HW
HStem: 0 75<150 411> 673 75<150 411> 822 93<280 318> 878 93<206 224 374 392> 897 75<187 206 392 411> 916 56<168 187 411 430> 934 37<150 168 430 449>
VStem: 75 75<75 673> 411 93<75 93 654 673> 430 93<93 112 635 654> 449 75<112 635>
LayerCount: 2
Fore
SplineSet
336 822 m 1,0,-1
 262 822 l 1,1,-1
 262 841 l 1,2,-1
 243 841 l 1,3,-1
 243 860 l 1,4,-1
 224 860 l 1,5,-1
 224 878 l 1,6,-1
 206 878 l 1,7,-1
 206 897 l 1,8,-1
 187 897 l 1,9,-1
 187 916 l 1,10,-1
 168 916 l 1,11,-1
 168 934 l 1,12,-1
 150 934 l 1,13,-1
 150 972 l 1,14,-1
 243 972 l 1,15,-1
 243 953 l 1,16,-1
 262 953 l 1,17,-1
 262 934 l 1,18,-1
 280 934 l 1,19,-1
 280 916 l 1,20,-1
 318 916 l 1,21,-1
 318 934 l 1,22,-1
 336 934 l 1,23,-1
 336 953 l 1,24,-1
 355 953 l 1,25,-1
 355 972 l 1,26,-1
 449 972 l 1,27,-1
 449 934 l 1,28,-1
 430 934 l 1,29,-1
 430 916 l 1,30,-1
 411 916 l 1,31,-1
 411 897 l 1,32,-1
 392 897 l 1,33,-1
 392 878 l 1,34,-1
 374 878 l 1,35,-1
 374 860 l 1,36,-1
 355 860 l 1,37,-1
 355 841 l 1,38,-1
 336 841 l 1,39,-1
 336 822 l 1,0,-1
150 75 m 1,40,-1
 411 75 l 1,41,-1
 411 93 l 1,42,-1
 430 93 l 1,43,-1
 430 112 l 1,44,-1
 449 112 l 1,45,-1
 449 635 l 1,46,-1
 430 635 l 1,47,-1
 430 654 l 1,48,-1
 411 654 l 1,49,-1
 411 673 l 1,50,-1
 150 673 l 1,51,-1
 150 75 l 1,40,-1
430 0 m 1,52,-1
 75 0 l 1,53,-1
 75 748 l 1,54,-1
 430 748 l 1,55,-1
 430 729 l 1,56,-1
 467 729 l 1,57,-1
 467 710 l 1,58,-1
 486 710 l 1,59,-1
 486 691 l 1,60,-1
 505 691 l 1,61,-1
 505 654 l 1,62,-1
 523 654 l 1,63,-1
 523 93 l 1,64,-1
 505 93 l 1,65,-1
 505 56 l 1,66,-1
 486 56 l 1,67,-1
 486 37 l 1,68,-1
 467 37 l 1,69,-1
 467 19 l 1,70,-1
 430 19 l 1,71,-1
 430 0 l 1,52,-1
EndSplineSet
EndChar

StartChar: LATIN
Encoding: 271 271 208
Width: 598
VWidth: 1196
GlyphClass: 1
Flags: HW
HStem: 0 75<187 449> 449 75<187 449> 724 23G<449 523> 822 93<280 318> 878 93<206 224 374 392> 897 75<187 206 392 411> 916 56<168 187 411 430> 934 37<150 168 430 449>
VStem: 75 93<93 112 411 430> 75 75<112 411> 93 93<75 93 430 449> 449 75<75 449 523 748>
LayerCount: 2
Fore
SplineSet
336 822 m 1,0,-1
 262 822 l 1,1,-1
 262 841 l 1,2,-1
 243 841 l 1,3,-1
 243 860 l 1,4,-1
 224 860 l 1,5,-1
 224 878 l 1,6,-1
 206 878 l 1,7,-1
 206 897 l 1,8,-1
 187 897 l 1,9,-1
 187 916 l 1,10,-1
 168 916 l 1,11,-1
 168 934 l 1,12,-1
 150 934 l 1,13,-1
 150 972 l 1,14,-1
 243 972 l 1,15,-1
 243 953 l 1,16,-1
 262 953 l 1,17,-1
 262 934 l 1,18,-1
 280 934 l 1,19,-1
 280 916 l 1,20,-1
 318 916 l 1,21,-1
 318 934 l 1,22,-1
 336 934 l 1,23,-1
 336 953 l 1,24,-1
 355 953 l 1,25,-1
 355 972 l 1,26,-1
 449 972 l 1,27,-1
 449 934 l 1,28,-1
 430 934 l 1,29,-1
 430 916 l 1,30,-1
 411 916 l 1,31,-1
 411 897 l 1,32,-1
 392 897 l 1,33,-1
 392 878 l 1,34,-1
 374 878 l 1,35,-1
 374 860 l 1,36,-1
 355 860 l 1,37,-1
 355 841 l 1,38,-1
 336 841 l 1,39,-1
 336 822 l 1,0,-1
187 75 m 1,40,-1
 449 75 l 1,41,-1
 449 449 l 1,42,-1
 187 449 l 1,43,-1
 187 430 l 1,44,-1
 168 430 l 1,45,-1
 168 411 l 1,46,-1
 150 411 l 1,47,-1
 150 112 l 1,48,-1
 168 112 l 1,49,-1
 168 93 l 1,50,-1
 187 93 l 1,51,-1
 187 75 l 1,40,-1
523 0 m 1,52,-1
 168 0 l 1,53,-1
 168 19 l 1,54,-1
 131 19 l 1,55,-1
 131 37 l 1,56,-1
 112 37 l 1,57,-1
 112 56 l 1,58,-1
 93 56 l 1,59,-1
 93 93 l 1,60,-1
 75 93 l 1,61,-1
 75 430 l 1,62,-1
 93 430 l 1,63,-1
 93 467 l 1,64,-1
 112 467 l 1,65,-1
 112 486 l 1,66,-1
 131 486 l 1,67,-1
 131 505 l 1,68,-1
 168 505 l 1,69,-1
 168 523 l 1,70,-1
 449 523 l 1,71,-1
 449 748 l 1,72,-1
 523 748 l 1,73,-1
 523 0 l 1,52,-1
EndSplineSet
EndChar

StartChar: LATIN
Encoding: 272 272 209
Width: 598
VWidth: 1196
GlyphClass: 1
Flags: HW
HStem: 0 75<150 411> 336 75<0 75 150 299> 673 75<150 411>
VStem: 75 75<75 336 411 673> 411 93<75 93 654 673> 430 93<93 112 635 654> 449 75<112 635>
CounterMasks: 1 e0
LayerCount: 2
Fore
SplineSet
150 75 m 1,0,-1
 411 75 l 1,1,-1
 411 93 l 1,2,-1
 430 93 l 1,3,-1
 430 112 l 1,4,-1
 449 112 l 1,5,-1
 449 635 l 1,6,-1
 430 635 l 1,7,-1
 430 654 l 1,8,-1
 411 654 l 1,9,-1
 411 673 l 1,10,-1
 150 673 l 1,11,-1
 150 411 l 1,12,-1
 299 411 l 1,13,-1
 299 336 l 1,14,-1
 150 336 l 1,15,-1
 150 75 l 1,0,-1
430 0 m 1,16,-1
 75 0 l 1,17,-1
 75 336 l 1,18,-1
 0 336 l 1,19,-1
 0 411 l 1,20,-1
 75 411 l 1,21,-1
 75 748 l 1,22,-1
 430 748 l 1,23,-1
 430 729 l 1,24,-1
 467 729 l 1,25,-1
 467 710 l 1,26,-1
 486 710 l 1,27,-1
 486 691 l 1,28,-1
 505 691 l 1,29,-1
 505 654 l 1,30,-1
 523 654 l 1,31,-1
 523 93 l 1,32,-1
 505 93 l 1,33,-1
 505 56 l 1,34,-1
 486 56 l 1,35,-1
 486 37 l 1,36,-1
 467 37 l 1,37,-1
 467 19 l 1,38,-1
 430 19 l 1,39,-1
 430 0 l 1,16,-1
EndSplineSet
EndChar

